{
.appVersion = "1075";
DisplayStrings = (
_
);
classes = (
{
automatic = 1;

glyphs = (
{
glyphname = A;
layers = (
{
anchors = (
{
name = bottom;
position = "{350, 0}";
},
{
name = ogonek;
position = "{633, 10}";
},
{
name = top;
position = "{350, 694}";
}
);
layerId = "F333AEC5-BB61-4D5E-9EDD-6124322D28F2";
paths = (
{
closed = 1;
nodes = (
"130 0 LINE",
"357 636 LINE",
"348 636 LINE",
"562 0 LINE",
"655 0 LINE",
"411 694 LINE",
"303 694 LINE",
"43 0 LINE"
);
},
{
closed = 1;
nodes = (
"521 206 LINE",
"521 278 LINE",
"174 278 LINE",
"174 206 LINE"
);
}
);
width = 699;
},
{
anchors = (
{
name = bottom;
position = "{367, 0}";
},
{
name = ogonek;
position = "{673, 10}";
},
{
name = top;
position = "{367, 694}";
}
);
layerId = "51C2DFEF-3776-4D13-9284-96485B799B57";
paths = (
{
closed = 1;
nodes = (
"200 0 LINE",
"384 620 LINE",
"336 620 LINE",
"529 0 LINE",
"720 0 LINE",
"483 694 LINE",
"262 694 LINE",
"15 0 LINE"
);
},
{
closed = 1;
nodes = (
"526 143 LINE",
"490 299 LINE",
"243 299 LINE",
"208 143 LINE"
);
}
);
width = 735;
},
{
anchors = (
{
name = bottom;
position = "{344, 0}";
},
{
name = ogonek;
position = "{604, 10}";
},
{
name = top;
position = "{347, 694}";
}
);
layerId = "0B2E441B-685E-400D-9B9B-E078DEED62EF";
paths = (
{
closed = 1;
nodes = (
"87 0 LINE",
"347 676 LINE",
"343 676 LINE",
"586 0 LINE",
"610 0 LINE",
"358 694 LINE",
"335 694 LINE",
"65 0 LINE"
);
},
{
closed = 1;
nodes = (
"510 249 LINE",
"504 268 LINE",
"178 268 LINE",
"173 249 LINE"
);
}
);
width = 676;
}
);
note = A;
unicode = 0041;
},
{
glyphname = AE;
layers = (
{
anchors = (
{
name = bottom;
position = "{511, 0}";
},
{
name = top;
position = "{511, 694}";
}
);
layerId = "F333AEC5-BB61-4D5E-9EDD-6124322D28F2";
paths = (
{
closed = 1;
nodes = (
"130 0 LINE",
"521 694 LINE",
"438 694 LINE",
"40 0 LINE"
);
},
{
closed = 1;
nodes = (
"511 202 LINE",
"511 282 LINE",
"235 282 LINE",
"235 202 LINE"
);
},
{
closed = 1;
nodes = (
"545 0 LINE",
"545 694 LINE",
"462 694 LINE",
"462 0 LINE"
);
},
{
closed = 1;
nodes = (
"898 0 LINE",
"898 72 LINE",
"502 72 LINE",
"502 0 LINE"
);
},
{
closed = 1;
nodes = (
"871 323 LINE",
"871 395 LINE",
"502 395 LINE",
"502 323 LINE"
);
},
{
closed = 1;
nodes = (
"898 622 LINE",
"898 694 LINE",
"502 694 LINE",
"502 622 LINE"
);
}
);
width = 961;
},
{
anchors = (
{
name = bottom;
position = "{533, 0}";
},
{
name = top;
position = "{533, 694}";
}
);
layerId = "51C2DFEF-3776-4D13-9284-96485B799B57";
paths = (
{
closed = 1;
nodes = (
"201 0 LINE",
"571 694 LINE",
"392 694 LINE",
"11 0 LINE"
);
},
{
closed = 1;
nodes = (
"505 149 LINE",
"505 305 LINE",
"187 305 LINE",
"187 149 LINE"
);
},
{
closed = 1;
nodes = (
"638 0 LINE",
"638 694 LINE",
"465 694 LINE",
"465 0 LINE"
);
},
{
closed = 1;
nodes = (
"963 0 LINE",
"963 152 LINE",
"545 152 LINE",
"545 0 LINE"
);
},
{
closed = 1;
nodes = (
"935 278 LINE",
"935 430 LINE",
"545 430 LINE",
"545 278 LINE"
);
},
{
closed = 1;
nodes = (
"963 542 LINE",
"963 694 LINE",
"545 694 LINE",
"545 542 LINE"
);
}
);
width = 1018;
},
{
anchors = (
{
name = bottom;
position = "{495, 0}";
},
{
name = top;
position = "{495, 694}";
}
);
layerId = "0B2E441B-685E-400D-9B9B-E078DEED62EF";
paths = (
{
closed = 1;
nodes = (
"85 0 LINE",
"488 694 LINE",
"469 694 LINE",
"62 0 LINE"
);
},
{
closed = 1;
nodes = (
"483 243 LINE",
"484 262 LINE",
"234 262 LINE",
"225 243 LINE"
);
},
{
closed = 1;
nodes = (
"494 0 LINE",
"494 694 LINE",
"473 694 LINE",
"473 0 LINE"
);
},
{
closed = 1;
nodes = (
"860 0 LINE",
"860 18 LINE",
"482 18 LINE",
"482 0 LINE"
);
},
{
closed = 1;
nodes = (
"835 351 LINE",
"835 369 LINE",
"482 369 LINE",
"482 351 LINE"
);
},
{
closed = 1;
nodes = (
"860 676 LINE",
"860 694 LINE",
"482 694 LINE",
"482 676 LINE"
);
}
);
width = 929;
}
);
rightMetricsKey = E;
unicode = 00C6;
},
{
glyphname = B;
layers = (
{
anchors = (
{
name = bottom;
position = "{328, 0}";
},
{
name = top;
position = "{328, 694}";
}
);
layerId = "F333AEC5-BB61-4D5E-9EDD-6124322D28F2";
paths = (
{
closed = 1;
nodes = (
"348 0 LINE SMOOTH",
"508 0 OFFCURVE",
"602 74 OFFCURVE",
"602 201 CURVE SMOOTH",
"602 322 OFFCURVE",
"518 396 OFFCURVE",
"381 396 CURVE SMOOTH",
"155 396 LINE",
"155 327 LINE",
"372 327 LINE SMOOTH",
"466 327 OFFCURVE",
"517 278 OFFCURVE",
"517 190 CURVE SMOOTH",
"517 106 OFFCURVE",
"470 71 OFFCURVE",
"358 71 CURVE SMOOTH",
"189 71 LINE",
"189 623 LINE",
"307 623 LINE SMOOTH",
"413 623 OFFCURVE",
"465 584 OFFCURVE",
"465 505 CURVE SMOOTH",
"465 444 OFFCURVE",
"431 409 OFFCURVE",
"339 375 CURVE",
"459 375 LINE",
"515 399 OFFCURVE",
"550 457 OFFCURVE",
"550 524 CURVE SMOOTH",
"550 631 OFFCURVE",
"463 694 OFFCURVE",
"317 694 CURVE SMOOTH",
"106 694 LINE",
"106 0 LINE"
);
}
);
width = 662;
},
{
anchors = (
{
name = bottom;
position = "{328, 0}";
},
{
name = top;
position = "{328, 694}";
}
);
layerId = "51C2DFEF-3776-4D13-9284-96485B799B57";
paths = (
{
closed = 1;
nodes = (
"363 0 LINE SMOOTH",
"540 0 OFFCURVE",
"644 84 OFFCURVE",
"644 225 CURVE SMOOTH",
"644 350 OFFCURVE",
"554 425 OFFCURVE",
"404 425 CURVE SMOOTH",
"190 425 LINE",
"190 290 LINE",
"366 290 LINE SMOOTH",
"428 290 OFFCURVE",
"464 260 OFFCURVE",
"464 210 CURVE SMOOTH",
"464 161 OFFCURVE",
"434 136 OFFCURVE",
"376 136 CURVE SMOOTH",
"247 136 LINE",
"247 558 LINE",
"325 558 LINE SMOOTH",
"379 558 OFFCURVE",
"411 532 OFFCURVE",
"411 488 CURVE SMOOTH",
"411 448 OFFCURVE",
"383 416 OFFCURVE",
"324 401 CURVE",
"458 374 LINE",
"534 392 OFFCURVE",
"585 455 OFFCURVE",
"585 531 CURVE SMOOTH",
"585 634 OFFCURVE",
"489 694 OFFCURVE",
"325 694 CURVE SMOOTH",
"77 694 LINE",
"77 0 LINE"
);
}
);
width = 674;
},
{
anchors = (
{
name = bottom;
position = "{284, 0}";
},
{
name = top;
position = "{284, 694}";
}
);
layerId = "0B2E441B-685E-400D-9B9B-E078DEED62EF";
paths = (
{
closed = 1;
nodes = (
"336 0 LINE SMOOTH",
"491 0 OFFCURVE",
"574 64 OFFCURVE",
"574 183 CURVE SMOOTH",
"574 298 OFFCURVE",
"494 373 OFFCURVE",
"370 373 CURVE SMOOTH",
"141 373 LINE",
"141 356 LINE",
"360 356 LINE SMOOTH",
"479 356 OFFCURVE",
"553 288 OFFCURVE",
"553 181 CURVE SMOOTH",
"553 75 OFFCURVE",
"481 18 OFFCURVE",
"347 18 CURVE SMOOTH",
"147 18 LINE",
"147 676 LINE",
"303 676 LINE SMOOTH",
"431 676 OFFCURVE",
"502 622 OFFCURVE",
"502 526 CURVE SMOOTH",
"502 447 OFFCURVE",
"452 386 OFFCURVE",
"374 369 CURVE",
"400 365 LINE",
"469 375 OFFCURVE",
"523 446 OFFCURVE",
"523 529 CURVE SMOOTH",
"523 634 OFFCURVE",
"443 694 OFFCURVE",
"303 694 CURVE SMOOTH",
"127 694 LINE",
"127 0 LINE"
);
}
);
width = 655;
}
);
note = B;
unicode = 0042;
},
{
glyphname = C;
layers = (
{
anchors = (
{
name = bottom;
position = "{380, 0}";
},
{
name = top;
position = "{380, 694}";
}
);
background = {
components = (
{
name = O;
transform = "{1, 0, 0, 1, -1, 0}";
}
);
};
layerId = "F333AEC5-BB61-4D5E-9EDD-6124322D28F2";
paths = (
{
closed = 1;
nodes = (
"476 -10 OFFCURVE",
"546 5 OFFCURVE",
"612 34 CURVE",
"593 95 LINE",
"543 75 OFFCURVE",
"481 63 OFFCURVE",
"428 63 CURVE SMOOTH",
"262 63 OFFCURVE",
"152 181 OFFCURVE",
"152 358 CURVE SMOOTH",
"152 527 OFFCURVE",
"253 630 OFFCURVE",
"420 630 CURVE SMOOTH",
"477 630 OFFCURVE",
"540 618 OFFCURVE",
"592 597 CURVE",
"616 662 LINE",
"566 687 OFFCURVE",
"494 703 OFFCURVE",
"425 703 CURVE SMOOTH",
"210 703 OFFCURVE",
"67 557 OFFCURVE",
"67 339 CURVE SMOOTH",
"67 130 OFFCURVE",
"204 -10 OFFCURVE",
"409 -10 CURVE SMOOTH"
);
}
);
width = 669;
},
{
anchors = (
{
name = bottom;
position = "{361, 0}";
},
{
name = top;
position = "{361, 694}";
}
);
background = {
components = (
{
name = O;
transform = "{1, 0, 0, 1, -1, 0}";
}
);
};
layerId = "51C2DFEF-3776-4D13-9284-96485B799B57";
paths = (
{
closed = 1;
nodes = (
"473 -10 OFFCURVE",
"552 6 OFFCURVE",
"611 35 CURVE",
"571 168 LINE",
"523 151 OFFCURVE",
"473 142 OFFCURVE",
"432 142 CURVE SMOOTH",
"303 142 OFFCURVE",
"217 231 OFFCURVE",
"217 363 CURVE SMOOTH",
"217 483 OFFCURVE",
"288 551 OFFCURVE",
"412 551 CURVE SMOOTH",
"461 551 OFFCURVE",
"526 540 OFFCURVE",
"570 522 CURVE",
"620 663 LINE",
"558 690 OFFCURVE",
"491 704 OFFCURVE",
"422 704 CURVE SMOOTH",
"191 704 OFFCURVE",
"37 560 OFFCURVE",
"37 342 CURVE SMOOTH",
"37 131 OFFCURVE",
"182 -10 OFFCURVE",
"399 -10 CURVE SMOOTH"
);
}
);
width = 648;
},
{
anchors = (
{
name = bottom;
position = "{378, 0}";
},
{
name = top;
position = "{378, 694}";
}
);
layerId = "0B2E441B-685E-400D-9B9B-E078DEED62EF";
paths = (
{
closed = 1;
nodes = (
"480 -10 OFFCURVE",
"554 6 OFFCURVE",
"615 33 CURVE",
"610 49 LINE",
"550 24 OFFCURVE",
"478 9 OFFCURVE",
"418 9 CURVE SMOOTH",
"235 9 OFFCURVE",
"111 145 OFFCURVE",
"111 348 CURVE SMOOTH",
"111 549 OFFCURVE",
"238 683 OFFCURVE",
"428 683 CURVE SMOOTH",
"488 683 OFFCURVE",
"551 670 OFFCURVE",
"609 645 CURVE",
"616 662 LINE",
"558 689 OFFCURVE",
"495 702 OFFCURVE",
"431 702 CURVE SMOOTH",
"226 702 OFFCURVE",
"89 556 OFFCURVE",
"89 338 CURVE SMOOTH",
"89 129 OFFCURVE",
"220 -10 OFFCURVE",
"414 -10 CURVE SMOOTH"
);
}
);
width = 686;
}
);
note = C;
unicode = 0043;
},
{
glyphname = D;
layers = (
{
anchors = (
{
name = bottom;
position = "{336, 0}";
},
{
name = center;
position = "{173, 347}";
},
{
name = top;
position = "{336, 694}";
}
);
layerId = "F333AEC5-BB61-4D5E-9EDD-6124322D28F2";
paths = (
{
closed = 1;
nodes = (
"318 0 LINE SMOOTH",
"533 0 OFFCURVE",
"670 139 OFFCURVE",
"670 356 CURVE SMOOTH",
"670 563 OFFCURVE",
"539 694 OFFCURVE",
"333 694 CURVE SMOOTH",
"106 694 LINE",
"106 0 LINE"
);
},
{
closed = 1;
nodes = (
"189 622 LINE",
"323 622 LINE SMOOTH",
"492 622 OFFCURVE",
"587 523 OFFCURVE",
"587 347 CURVE SMOOTH",
"587 172 OFFCURVE",
"493 72 OFFCURVE",
"328 72 CURVE SMOOTH",
"189 72 LINE"
);
}
);
width = 737;
},
{
anchors = (
{
name = bottom;
position = "{368, 0}";
},
{
name = center;
position = "{186, 344}";
},
{
name = top;
position = "{345, 694}";
}
);
layerId = "51C2DFEF-3776-4D13-9284-96485B799B57";
paths = (
{
closed = 1;
nodes = (
"326 0 LINE SMOOTH",
"571 0 OFFCURVE",
"719 134 OFFCURVE",
"719 356 CURVE SMOOTH",
"719 568 OFFCURVE",
"576 694 OFFCURVE",
"337 694 CURVE SMOOTH",
"77 694 LINE",
"77 0 LINE"
);
},
{
closed = 1;
nodes = (
"247 545 LINE",
"327 545 LINE SMOOTH",
"466 545 OFFCURVE",
"539 477 OFFCURVE",
"539 347 CURVE SMOOTH",
"539 217 OFFCURVE",
"473 149 OFFCURVE",
"344 149 CURVE SMOOTH",
"247 149 LINE"
);
}
);
width = 756;
},
{
anchors = (
{
name = bottom;
position = "{357, 0}";
},
{
name = center;
position = "{190, 364}";
},
{
name = top;
position = "{347, 694}";
}
);
layerId = "0B2E441B-685E-400D-9B9B-E078DEED62EF";
paths = (
{
closed = 1;
nodes = (
"290 0 LINE SMOOTH",
"509 0 OFFCURVE",
"638 130 OFFCURVE",
"638 351 CURVE SMOOTH",
"638 576 OFFCURVE",
"521 694 OFFCURVE",
"296 694 CURVE SMOOTH",
"127 694 LINE",
"127 0 LINE"
);
},
{
closed = 1;
nodes = (
"149 676 LINE",
"290 676 LINE SMOOTH",
"504 676 OFFCURVE",
"616 564 OFFCURVE",
"616 348 CURVE SMOOTH",
"616 138 OFFCURVE",
"500 18 OFFCURVE",
"296 18 CURVE SMOOTH",
"149 18 LINE"
);
}
);
width = 728;
}
);
note = D;
unicode = 0044;
},
{
glyphname = E;
layers = (
{
anchors = (
{
name = bottom;
position = "{315, 0}";
},
{
name = ogonek;
position = "{520, 10}";
},
{
name = top;
position = "{335, 694}";
},
{
name = topleft;
position = "{17, 694}";
}
);
layerId = "F333AEC5-BB61-4D5E-9EDD-6124322D28F2";
paths = (
{
closed = 1;
nodes = (
"189 0 LINE",
"189 694 LINE",
"106 694 LINE",
"106 0 LINE"
);
},
{
closed = 1;
nodes = (
"542 0 LINE",
"542 72 LINE",
"146 72 LINE",
"146 0 LINE"
);
},
{
closed = 1;
nodes = (
"515 323 LINE",
"515 395 LINE",
"146 395 LINE",
"146 323 LINE"
);
},
{
closed = 1;
nodes = (
"542 622 LINE",
"542 694 LINE",
"146 694 LINE",
"146 622 LINE"
);
}
);
width = 605;
},
{
anchors = (
{
name = bottom;
position = "{330, 0}";
},
{
name = ogonek;
position = "{528, 10}";
},
{
name = top;
position = "{323, 694}";
},
{
name = topleft;
position = "{25, 694}";
}
);
layerId = "51C2DFEF-3776-4D13-9284-96485B799B57";
paths = (
{
closed = 1;
nodes = (
"250 0 LINE",
"250 694 LINE",
"77 694 LINE",
"77 0 LINE"
);
},
{
closed = 1;
nodes = (
"575 0 LINE",
"575 152 LINE",
"157 152 LINE",
"157 0 LINE"
);
},
{
closed = 1;
nodes = (
"547 276 LINE",
"547 428 LINE",
"157 428 LINE",
"157 276 LINE"
);
},
{
closed = 1;
nodes = (
"575 542 LINE",
"575 694 LINE",
"157 694 LINE",
"157 542 LINE"
);
}
);
width = 630;
},
{
anchors = (
{
name = bottom;
position = "{321, 0}";
},
{
name = ogonek;
position = "{515, 10}";
},
{
name = top;
position = "{320, 694}";
},
{
name = topleft;
position = "{10, 694}";
}
);
layerId = "0B2E441B-685E-400D-9B9B-E078DEED62EF";
paths = (
{
closed = 1;
nodes = (
"148 0 LINE",
"148 694 LINE",
"127 694 LINE",
"127 0 LINE"
);
},
{
closed = 1;
nodes = (
"521 0 LINE",
"521 18 LINE",
"136 18 LINE",
"136 0 LINE"
);
},
{
closed = 1;
nodes = (
"494 355 LINE",
"494 373 LINE",
"136 373 LINE",
"136 355 LINE"
);
},
{
closed = 1;
nodes = (
"521 676 LINE",
"521 694 LINE",
"136 694 LINE",
"136 676 LINE"
);
}
);
width = 590;
}
);
note = E;
unicode = 0045;
},
{
glyphname = F;
layers = (
{
anchors = (
{
name = bottom;
position = "{273, 0}";
},
{
name = top;
position = "{273, 694}";
}
);
layerId = "F333AEC5-BB61-4D5E-9EDD-6124322D28F2";
paths = (
{
closed = 1;
nodes = (
"189 0 LINE",
"189 694 LINE",
"106 694 LINE",
"106 0 LINE"
);
},
{
closed = 1;
nodes = (
"508 322 LINE",
"508 394 LINE",
"138 394 LINE",
"138 322 LINE"
);
},
{
closed = 1;
nodes = (
"537 622 LINE",
"537 694 LINE",
"138 694 LINE",
"138 622 LINE"
);
}
);
width = 588;
},
{
anchors = (
{
name = bottom;
position = "{181, 0}";
},
{
name = top;
position = "{288, 694}";
}
);
layerId = "51C2DFEF-3776-4D13-9284-96485B799B57";
paths = (
{
closed = 1;
nodes = (
"253 0 LINE",
"253 694 LINE",
"77 694 LINE",
"77 0 LINE"
);
},
{
closed = 1;
nodes = (
"536 257 LINE",
"536 409 LINE",
"157 409 LINE",
"157 257 LINE"
);
},
{
closed = 1;
nodes = (
"572 542 LINE",
"572 694 LINE",
"157 694 LINE",
"157 542 LINE"
);
}
);
width = 605;
},
{
anchors = (
{
name = bottom;
position = "{287, 0}";
},
{
name = top;
position = "{287, 694}";
}
);
layerId = "0B2E441B-685E-400D-9B9B-E078DEED62EF";
paths = (
{
closed = 1;
nodes = (
"149 0 LINE",
"149 694 LINE",
"127 694 LINE",
"127 0 LINE"
);
},
{
closed = 1;
nodes = (
"490 366 LINE",
"490 384 LINE",
"136 384 LINE",
"136 366 LINE"
);
},
{
closed = 1;
nodes = (
"514 676 LINE",
"514 694 LINE",
"136 694 LINE",
"136 676 LINE"
);
}
);
width = 578;
}
);
note = F;
unicode = 0046;
},
{
glyphname = G;
layers = (
{
anchors = (
{
name = bottom;
position = "{406, 0}";
},
{
name = top;
position = "{406, 694}";
}
);
layerId = "F333AEC5-BB61-4D5E-9EDD-6124322D28F2";
paths = (
{
closed = 1;
nodes = (
"511 -9 OFFCURVE",
"598 19 OFFCURVE",
"668 74 CURVE",
"668 368 LINE",
"388 368 LINE",
"388 296 LINE",
"585 296 LINE",
"585 71 LINE",
"604 112 LINE",
"550 81 OFFCURVE",
"489 64 OFFCURVE",
"427 64 CURVE SMOOTH",
"260 64 OFFCURVE",
"152 179 OFFCURVE",
"152 357 CURVE SMOOTH",
"152 530 OFFCURVE",
"251 630 OFFCURVE",
"420 630 CURVE SMOOTH",
"484 630 OFFCURVE",
"554 615 OFFCURVE",
"617 589 CURVE",
"641 657 LINE",
"580 687 OFFCURVE",
"507 703 OFFCURVE",
"431 703 CURVE SMOOTH",
"212 703 OFFCURVE",
"67 560 OFFCURVE",
"67 342 CURVE SMOOTH",
"67 130 OFFCURVE",
"205 -9 OFFCURVE",
"415 -9 CURVE SMOOTH"
);
}
);
width = 744;
},
{
anchors = (
{
name = bottom;
position = "{360, 0}";
},
{
name = top;
position = "{380, 694}";
}
);
layerId = "51C2DFEF-3776-4D13-9284-96485B799B57";
paths = (
{
closed = 1;
nodes = (
"507 -10 OFFCURVE",
"601 23 OFFCURVE",
"678 89 CURVE",
"678 411 LINE",
"368 411 LINE",
"368 265 LINE",
"513 265 LINE",
"513 79 LINE",
"539 180 LINE",
"517 155 OFFCURVE",
"473 140 OFFCURVE",
"422 140 CURVE SMOOTH",
"296 140 OFFCURVE",
"217 230 OFFCURVE",
"217 357 CURVE SMOOTH",
"217 482 OFFCURVE",
"293 554 OFFCURVE",
"424 554 CURVE SMOOTH",
"479 554 OFFCURVE",
"545 542 OFFCURVE",
"604 522 CURVE",
"652 665 LINE",
"578 692 OFFCURVE",
"510 704 OFFCURVE",
"438 704 CURVE SMOOTH",
"196 704 OFFCURVE",
"37 560 OFFCURVE",
"37 339 CURVE SMOOTH",
"37 130 OFFCURVE",
"181 -10 OFFCURVE",
"398 -10 CURVE SMOOTH"
);
}
);
width = 730;
},
{
anchors = (
{
name = bottom;
position = "{371, 0}";
},
{
name = top;
position = "{390, 694}";
}
);
layerId = "0B2E441B-685E-400D-9B9B-E078DEED62EF";
paths = (
{
closed = 1;
nodes = (
"506 -10 OFFCURVE",
"604 18 OFFCURVE",
"663 60 CURVE",
"663 338 LINE",
"404 338 LINE",
"404 319 LINE",
"641 319 LINE",
"641 57 LINE",
"646 69 LINE",
"582 32 OFFCURVE",
"495 9 OFFCURVE",
"421 9 CURVE SMOOTH",
"234 9 OFFCURVE",
"112 143 OFFCURVE",
"112 348 CURVE SMOOTH",
"112 554 OFFCURVE",
"235 680 OFFCURVE",
"434 680 CURVE SMOOTH",
"505 680 OFFCURVE",
"577 664 OFFCURVE",
"628 634 CURVE",
"635 651 LINE",
"580 683 OFFCURVE",
"512 699 OFFCURVE",
"437 699 CURVE SMOOTH",
"222 699 OFFCURVE",
"89 564 OFFCURVE",
"89 345 CURVE SMOOTH",
"89 130 OFFCURVE",
"219 -10 OFFCURVE",
"418 -10 CURVE SMOOTH"
);
}
);
width = 757;
}
);
note = G;
unicode = 0047;
},
{
glyphname = H;
layers = (
{
anchors = (
{
name = bottom;
position = "{375, 0}";
},
{
name = center;
position = "{375, 539}";
},
{
name = top;
position = "{375, 694}";
},
{
name = topleft;
position = "{17, 694}";
}
);
background = {
components = (
{
name = O;
transform = "{1, 0, 0, 1, -18, 0}";
}
);
};
layerId = "F333AEC5-BB61-4D5E-9EDD-6124322D28F2";
paths = (
{
closed = 1;
nodes = (
"643 0 LINE",
"643 694 LINE",
"560 694 LINE",
"560 0 LINE"
);
},
{
closed = 1;
nodes = (
"189 0 LINE",
"189 694 LINE",
"106 694 LINE",
"106 0 LINE"
);
},
{
closed = 1;
nodes = (
"608 323 LINE",
"608 395 LINE",
"138 395 LINE",
"138 323 LINE"
);
}
);
width = 749;
},
{
anchors = (
{
name = bottom;
position = "{391, 0}";
},
{
name = center;
position = "{391, 566}";
},
{
name = top;
position = "{391, 694}";
},
{
name = topleft;
position = "{16, 694}";
}
);
background = {
components = (
{
name = O;
transform = "{1, 0, 0, 1, -9, 0}";
}
);
};
layerId = "51C2DFEF-3776-4D13-9284-96485B799B57";
paths = (
{
closed = 1;
nodes = (
"704 0 LINE",
"704 694 LINE",
"528 694 LINE",
"528 0 LINE"
);
},
{
closed = 1;
nodes = (
"253 0 LINE",
"253 694 LINE",
"77 694 LINE",
"77 0 LINE"
);
},
{
closed = 1;
nodes = (
"548 274 LINE",
"548 430 LINE",
"232 430 LINE",
"232 274 LINE"
);
}
);
width = 781;
},
{
anchors = (
{
name = bottom;
position = "{367, 0}";
},
{
name = center;
position = "{367, 534}";
},
{
name = top;
position = "{367, 694}";
},
{
name = topleft;
position = "{20, 694}";
}
);
background = {
components = (
{
name = O;
transform = "{1, 0, 0, 1, -21, 0}";
}
);
};
layerId = "0B2E441B-685E-400D-9B9B-E078DEED62EF";
paths = (
{
closed = 1;
nodes = (
"604 0 LINE",
"604 694 LINE",
"582 694 LINE",
"582 0 LINE"
);
},
{
closed = 1;
nodes = (
"149 0 LINE",
"149 694 LINE",
"127 694 LINE",
"127 0 LINE"
);
},
{
closed = 1;
nodes = (
"588 352 LINE",
"588 371 LINE",
"142 371 LINE",
"142 352 LINE"
);
}
);
width = 731;
}
);
note = H;
unicode = 0048;
},
{
glyphname = I;
layers = (
{
anchors = (
{
name = bottom;
position = "{148, 0}";
},
{
name = ogonek;
position = "{177, 10}";
},
{
name = top;
position = "{148, 694}";
},
{
name = topleft;
position = "{17, 694}";
}
);
layerId = "F333AEC5-BB61-4D5E-9EDD-6124322D28F2";
paths = (
{
closed = 1;
nodes = (
"189 0 LINE",
"189 694 LINE",
"106 694 LINE",
"106 0 LINE"
);
}
);
width = 295;
},
{
anchors = (
{
name = bottom;
position = "{165, 0}";
},
{
name = ogonek;
position = "{213, 10}";
},
{
name = top;
position = "{165, 694}";
},
{
name = topleft;
position = "{34, 694}";
}
);
layerId = "51C2DFEF-3776-4D13-9284-96485B799B57";
paths = (
{
closed = 1;
nodes = (
"253 0 LINE",
"253 694 LINE",
"77 694 LINE",
"77 0 LINE"
);
}
);
width = 330;
},
{
anchors = (
{
name = bottom;
position = "{138, 0}";
},
{
name = ogonek;
position = "{146, 10}";
},
{
name = top;
position = "{138, 694}";
},
{
name = topleft;
position = "{11, 694}";
}
);
layerId = "0B2E441B-685E-400D-9B9B-E078DEED62EF";
paths = (
{
closed = 1;
nodes = (
"148 0 LINE",
"148 694 LINE",
"127 694 LINE",
"127 0 LINE"
);
}
);
width = 275;
}
);
note = I;
unicode = 0049;
},
{
glyphname = J;
layers = (
{
anchors = (
{
name = bottom;
position = "{234, 0}";
},
{
name = top;
position = "{309, 694}";
}
);
layerId = "F333AEC5-BB61-4D5E-9EDD-6124322D28F2";
paths = (
{
closed = 1;
nodes = (
"285 -10 OFFCURVE",
"352 65 OFFCURVE",
"352 200 CURVE SMOOTH",
"352 694 LINE",
"269 694 LINE",
"269 191 LINE SMOOTH",
"269 104 OFFCURVE",
"238 63 OFFCURVE",
"168 63 CURVE SMOOTH",
"135 63 OFFCURVE",
"98 72 OFFCURVE",
"67 87 CURVE",
"43 21 LINE",
"78 2 OFFCURVE",
"120 -10 OFFCURVE",
"167 -10 CURVE SMOOTH"
);
}
);
width = 450;
},
{
anchors = (
{
name = bottom;
position = "{247, 0}";
},
{
name = top;
position = "{323, 694}";
}
);
layerId = "51C2DFEF-3776-4D13-9284-96485B799B57";
paths = (
{
closed = 1;
nodes = (
"324 -10 OFFCURVE",
"412 78 OFFCURVE",
"412 243 CURVE SMOOTH",
"412 694 LINE",
"238 694 LINE",
"238 233 LINE SMOOTH",
"238 168 OFFCURVE",
"216 143 OFFCURVE",
"161 143 CURVE SMOOTH",
"129 143 OFFCURVE",
"92 151 OFFCURVE",
"64 165 CURVE",
"16 23 LINE",
"60 1 OFFCURVE",
"104 -10 OFFCURVE",
"161 -10 CURVE SMOOTH"
);
}
);
width = 478;
},
{
anchors = (
{
name = bottom;
position = "{279, 0}";
},
{
name = top;
position = "{304, 694}";
}
);
layerId = "0B2E441B-685E-400D-9B9B-E078DEED62EF";
paths = (
{
closed = 1;
nodes = (
"259 -10 OFFCURVE",
"315 54 OFFCURVE",
"315 158 CURVE SMOOTH",
"315 694 LINE",
"294 694 LINE",
"294 154 LINE SMOOTH",
"294 63 OFFCURVE",
"248 9 OFFCURVE",
"171 9 CURVE SMOOTH",
"138 9 OFFCURVE",
"100 19 OFFCURVE",
"70 36 CURVE",
"62 19 LINE",
"91 1 OFFCURVE",
"130 -10 OFFCURVE",
"168 -10 CURVE SMOOTH"
);
}
);
width = 437;
}
);
note = J;
unicode = 004A;
},
{
glyphname = K;
layers = (
{
anchors = (
{
name = bottom;
position = "{320, 0}";
},
{
name = top;
position = "{320, 694}";
}
);
layerId = "F333AEC5-BB61-4D5E-9EDD-6124322D28F2";
paths = (
{
closed = 1;
nodes = (
"617 0 LINE",
"273 380 LINE",
"272 358 LINE",
"598 694 LINE",
"497 694 LINE",
"180 361 LINE",
"503 0 LINE"
);
},
{
closed = 1;
nodes = (
"189 0 LINE",
"189 694 LINE",
"106 694 LINE",
"106 0 LINE"
);
}
);
width = 657;
},
{
anchors = (
{
name = bottom;
position = "{349, 0}";
},
{
name = top;
position = "{349, 694}";
}
);
layerId = "51C2DFEF-3776-4D13-9284-96485B799B57";
paths = (
{
closed = 1;
nodes = (
"731 0 LINE",
"447 392 LINE",
"443 358 LINE",
"720 694 LINE",
"514 694 LINE",
"245 361 LINE",
"495 0 LINE"
);
},
{
closed = 1;
nodes = (
"255 0 LINE",
"255 694 LINE",
"77 694 LINE",
"77 0 LINE"
);
}
);
width = 743;
},
{
anchors = (
{
name = bottom;
position = "{300, 0}";
},
{
name = top;
position = "{300, 694}";
}
);
layerId = "0B2E441B-685E-400D-9B9B-E078DEED62EF";
paths = (
{
closed = 1;
nodes = (
"544 0 LINE",
"161 367 LINE",
"161 357 LINE",
"516 694 LINE",
"487 694 LINE",
"142 361 LINE",
"514 0 LINE"
);
},
{
closed = 1;
nodes = (
"147 0 LINE",
"147 694 LINE",
"127 694 LINE",
"127 0 LINE"
);
}
);
width = 604;
}
);
note = K;
unicode = 004B;
},
{
glyphname = L;
layers = (
{
anchors = (
{
name = bottom;
position = "{304, 0}";
},
{
name = center;
position = "{174, 347}";
},
{
name = periodcentered;
position = "{415, 352}";
},
{
name = top;
position = "{149, 694}";
},
{
name = topright;
position = "{313, 482}";
}
);
layerId = "F333AEC5-BB61-4D5E-9EDD-6124322D28F2";
paths = (
{
closed = 1;
nodes = (
"500 0 LINE",
"500 74 LINE",
"189 74 LINE",
"189 694 LINE",
"106 694 LINE",
"106 0 LINE"
);
}
);
width = 545;
},
{
anchors = (
{
name = bottom;
position = "{278, 0}";
},
{
name = center;
position = "{176, 377}";
},
{
name = periodcentered;
position = "{446, 352}";
},
{
name = top;
position = "{162, 694}";
},
{
name = topright;
position = "{377, 490}";
}
);
layerId = "51C2DFEF-3776-4D13-9284-96485B799B57";
paths = (
{
closed = 1;
nodes = (
"537 0 LINE",
"537 153 LINE",
"250 153 LINE",
"250 694 LINE",
"77 694 LINE",
"77 0 LINE"
);
}
);
width = 561;
},
{
anchors = (
{
name = bottom;
position = "{303, 0}";
},
{
name = center;
position = "{179, 367}";
},
{
name = periodcentered;
position = "{391, 352}";
},
{
name = top;
position = "{139, 694}";
},
{
name = topright;
position = "{268, 480}";
}
);
layerId = "0B2E441B-685E-400D-9B9B-E078DEED62EF";
paths = (
{
closed = 1;
nodes = (
"473 0 LINE",
"473 19 LINE",
"148 19 LINE",
"148 694 LINE",
"127 694 LINE",
"127 0 LINE"
);
}
);
width = 534;
}
);
note = L;
unicode = 004C;
},
{
glyphname = M;
layers = (
{
anchors = (
{
name = bottom;
position = "{444, 0}";
},
{
name = top;
position = "{444, 694}";
}
);
layerId = "F333AEC5-BB61-4D5E-9EDD-6124322D28F2";
paths = (
{
closed = 1;
nodes = (
"185 0 LINE",
"185 578 LINE",
"168 578 LINE",
"410 108 LINE",
"475 108 LINE",
"714 578 LINE",
"702 578 LINE",
"702 0 LINE",
"781 0 LINE",
"781 694 LINE",
"699 694 LINE",
"420 148 LINE",
"470 148 LINE",
"191 694 LINE",
"106 694 LINE",
"106 0 LINE"
);
}
);
width = 887;
},
{
anchors = (
{
name = bottom;
position = "{457, 0}";
},
{
name = top;
position = "{457, 694}";
}
);
layerId = "51C2DFEF-3776-4D13-9284-96485B799B57";
paths = (
{
closed = 1;
nodes = (
"245 0 LINE",
"245 458 LINE",
"214 431 LINE",
"389 107 LINE",
"520 107 LINE",
"688 431 LINE",
"667 453 LINE",
"667 0 LINE",
"835 0 LINE",
"835 694 LINE",
"670 694 LINE",
"429 222 LINE",
"500 222 LINE",
"244 694 LINE",
"77 694 LINE",
"77 0 LINE"
);
}
);
width = 912;
},
{
anchors = (
{
name = bottom;
position = "{449, 0}";
},
{
name = top;
position = "{449, 694}";
}
);
layerId = "0B2E441B-685E-400D-9B9B-E078DEED62EF";
paths = (
{
closed = 1;
nodes = (
"148 0 LINE",
"148 677 LINE",
"141 677 LINE",
"421 108 LINE",
"441 108 LINE",
"728 676 LINE",
"721 676 LINE",
"721 0 LINE",
"742 0 LINE",
"742 694 LINE",
"716 694 LINE",
"427 118 LINE",
"438 118 LINE",
"155 694 LINE",
"127 694 LINE",
"127 0 LINE"
);
}
);
width = 869;
}
);
note = M;
unicode = 004D;
},
{
glyphname = N;
layers = (
{
anchors = (
{
name = bottom;
position = "{389, 0}";
},
{
name = top;
position = "{389, 694}";
}
);
layerId = "F333AEC5-BB61-4D5E-9EDD-6124322D28F2";
paths = (
{
closed = 1;
nodes = (
"184 0 LINE",
"184 605 LINE",
"169 605 LINE",
"577 0 LINE",
"672 0 LINE",
"672 694 LINE",
"594 694 LINE",
"594 87 LINE",
"610 87 LINE",
"201 694 LINE",
"106 694 LINE",
"106 0 LINE"
);
}
);
width = 778;
},
{
anchors = (
{
name = bottom;
position = "{402, 0}";
},
{
name = top;
position = "{402, 694}";
}
);
layerId = "51C2DFEF-3776-4D13-9284-96485B799B57";
paths = (
{
closed = 1;
nodes = (
"241 0 LINE",
"241 470 LINE",
"232 460 LINE",
"536 0 LINE",
"728 0 LINE",
"728 694 LINE",
"564 694 LINE",
"562 216 LINE",
"576 226 LINE",
"270 694 LINE",
"77 694 LINE",
"77 0 LINE"
);
}
);
width = 805;
},
{
anchors = (
{
name = bottom;
position = "{392, 0}";
},
{
name = top;
position = "{392, 694}";
}
);
layerId = "0B2E441B-685E-400D-9B9B-E078DEED62EF";
paths = (
{
closed = 1;
nodes = (
"147 0 LINE",
"147 674 LINE",
"146 674 LINE",
"609 0 LINE",
"636 0 LINE",
"636 694 LINE",
"616 694 LINE",
"616 20 LINE",
"619 20 LINE",
"156 694 LINE",
"127 694 LINE",
"127 0 LINE"
);
}
);
width = 763;
}
);
note = N;
unicode = 004E;
},
{
glyphname = Eng;
layers = (
{
layerId = "F333AEC5-BB61-4D5E-9EDD-6124322D28F2";
paths = (
{
closed = 1;
nodes = (
"184 0 LINE",
"184 605 LINE",
"167 605 LINE",
"601 -35 LINE",
"672 0 LINE",
"672 694 LINE",
"594 694 LINE",
"594 87 LINE",
"612 87 LINE",
"201 694 LINE",
"106 694 LINE",
"106 0 LINE"
);
},
{
closed = 1;
nodes = (
"623 -194 OFFCURVE",
"672 -113 OFFCURVE",
"672 -23 CURVE SMOOTH",
"672 0 LINE",
"592 0 LINE",
"592 -35 LINE SMOOTH",
"592 -98 OFFCURVE",
"564 -155 OFFCURVE",
"522 -179 CURVE",
"549 -227 LINE"
);
}
);
width = 778;
},
{
layerId = "51C2DFEF-3776-4D13-9284-96485B799B57";
paths = (
{
closed = 1;
nodes = (
"240 0 LINE",
"240 470 LINE",
"228 460 LINE",
"560 -36 LINE",
"728 0 LINE",
"728 694 LINE",
"565 694 LINE",
"563 216 LINE",
"584 226 LINE",
"270 694 LINE",
"77 694 LINE",
"77 0 LINE"
);
},
{
closed = 1;
nodes = (
"659 -197 OFFCURVE",
"728 -111 OFFCURVE",
"728 -13 CURVE SMOOTH",
"728 0 LINE",
"555 0 LINE",
"555 -25 LINE SMOOTH",
"555 -70 OFFCURVE",
"533 -112 OFFCURVE",
"500 -131 CURVE",
"555 -227 LINE"
);
}
);
width = 805;
},
{
layerId = "0B2E441B-685E-400D-9B9B-E078DEED62EF";
paths = (
{
closed = 1;
nodes = (
"147 0 LINE",
"147 674 LINE",
"145 674 LINE",
"616 -10 LINE",
"636 0 LINE",
"636 694 LINE",
"616 694 LINE",
"616 20 LINE",
"620 20 LINE",
"156 694 LINE",
"127 694 LINE",
"127 0 LINE"
);
},
{
closed = 1;
nodes = (
"594 -187 OFFCURVE",
"636 -110 OFFCURVE",
"636 -23 CURVE SMOOTH",
"636 0 LINE",
"615 0 LINE",
"615 -35 LINE SMOOTH",
"615 -104 OFFCURVE",
"579 -173 OFFCURVE",
"525 -207 CURVE",
"530 -217 LINE"
);
}
);
width = 763;
},
{
associatedMasterId = "0B2E441B-685E-400D-9B9B-E078DEED62EF";
components = (
{
name = N;
transform = "{1, 0, 0, 1, -1, 0}";
},
{
name = _bottomhook;
transform = "{1, 0, 0, 1, 155, 0}";
}
);
layerId = "1FA188A2-3D8B-43B9-A26D-4C91645B7C89";
name = Template;
width = 750;
},
{
associatedMasterId = "F333AEC5-BB61-4D5E-9EDD-6124322D28F2";
components = (
{
alignment = 1;
name = N;
},
{
name = _bottomhook;
transform = "{1, 0, 0, 1, 170, 0}";
}
);
layerId = "EB1199AD-1D48-4FC9-ACEF-2C644E00CDB4";
name = Template;
width = 778;
},
{
associatedMasterId = "51C2DFEF-3776-4D13-9284-96485B799B57";
components = (
{
alignment = 1;
name = N;
},
{
name = _bottomhook;
transform = "{1, 0, 0, 1, 156, 0}";
}
);
layerId = "54BA577D-EF5C-4C49-B346-BD2BDDA1045F";
name = Template;
width = 805;
}
);
leftMetricsKey = N;
rightMetricsKey = N;
unicode = 014A;
},
{
glyphname = O;
layers = (
{
anchors = (
{
name = Qtail;
position = "{553, 73}";
},
{
name = bottom;
position = "{394, 0}";
},
{
name = center;
position = "{394, 347}";
},
{
name = ogonek;
position = "{486, 10}";
},
{
name = top;
position = "{394, 694}";
},
{
name = topleft;
position = "{23, 694}";
},
{
name = topright;
position = "{585, 694}";
}
);
layerId = "F333AEC5-BB61-4D5E-9EDD-6124322D28F2";
paths = (
{
closed = 1;
nodes = (
"586 -7 OFFCURVE",
"720 138 OFFCURVE",
"720 356 CURVE SMOOTH",
"720 564 OFFCURVE",
"590 703 OFFCURVE",
"396 703 CURVE SMOOTH",
"199 703 OFFCURVE",
"68 559 OFFCURVE",
"68 344 CURVE SMOOTH",
"68 133 OFFCURVE",
"195 -7 OFFCURVE",
"386 -7 CURVE SMOOTH"
);
},
{
closed = 1;
nodes = (
"250 65 OFFCURVE",
"153 181 OFFCURVE",
"153 356 CURVE SMOOTH",
"153 520 OFFCURVE",
"246 630 OFFCURVE",
"386 630 CURVE SMOOTH",
"535 630 OFFCURVE",
"635 516 OFFCURVE",
"635 344 CURVE SMOOTH",
"635 177 OFFCURVE",
"539 65 OFFCURVE",
"396 65 CURVE SMOOTH"
);
}
);
width = 788;
},
{
anchors = (
{
name = Qtail;
position = "{537, 101}";
},
{
name = bottom;
position = "{397, 0}";
},
{
name = center;
position = "{420, 347}";
},
{
name = ogonek;
position = "{479, 10}";
},
{
name = top;
position = "{397, 694}";
},
{
name = topleft;
position = "{93, 694}";
},
{
name = topright;
position = "{607, 694}";
}
);
layerId = "51C2DFEF-3776-4D13-9284-96485B799B57";
paths = (
{
closed = 1;
nodes = (
"610 -10 OFFCURVE",
"756 134 OFFCURVE",
"756 351 CURVE SMOOTH",
"756 563 OFFCURVE",
"614 704 OFFCURVE",
"401 704 CURVE SMOOTH",
"183 704 OFFCURVE",
"38 559 OFFCURVE",
"38 341 CURVE SMOOTH",
"38 130 OFFCURVE",
"179 -10 OFFCURVE",
"390 -10 CURVE SMOOTH"
);
},
{
closed = 1;
nodes = (
"291 140 OFFCURVE",
"218 225 OFFCURVE",
"218 351 CURVE SMOOTH",
"218 473 OFFCURVE",
"286 554 OFFCURVE",
"390 554 CURVE SMOOTH",
"502 554 OFFCURVE",
"576 468 OFFCURVE",
"576 341 CURVE SMOOTH",
"576 221 OFFCURVE",
"507 140 OFFCURVE",
"401 140 CURVE SMOOTH"
);
}
);
width = 794;
},
{
anchors = (
{
name = Qtail;
position = "{573, 62}";
},
{
name = bottom;
position = "{394, 0}";
},
{
name = center;
position = "{395, 345}";
},
{
name = ogonek;
position = "{476, 10}";
},
{
name = top;
position = "{394, 694}";
},
{
name = topleft;
position = "{17, 694}";
},
{
name = topright;
position = "{593, 694}";
}
);
layerId = "0B2E441B-685E-400D-9B9B-E078DEED62EF";
paths = (
{
closed = 1;
nodes = (
"574 -10 OFFCURVE",
"696 134 OFFCURVE",
"696 346 CURVE SMOOTH",
"696 558 OFFCURVE",
"576 699 OFFCURVE",
"395 699 CURVE SMOOTH",
"212 699 OFFCURVE",
"90 554 OFFCURVE",
"90 343 CURVE SMOOTH",
"90 132 OFFCURVE",
"211 -10 OFFCURVE",
"392 -10 CURVE SMOOTH"
);
},
{
closed = 1;
nodes = (
"225 9 OFFCURVE",
"112 146 OFFCURVE",
"112 346 CURVE SMOOTH",
"112 546 OFFCURVE",
"224 680 OFFCURVE",
"392 680 CURVE SMOOTH",
"561 680 OFFCURVE",
"674 543 OFFCURVE",
"674 343 CURVE SMOOTH",
"674 143 OFFCURVE",
"563 9 OFFCURVE",
"394 9 CURVE SMOOTH"
);
}
);
width = 786;
}
);
note = O;
unicode = 004F;
},
{
glyphname = OE;
layers = (
{
anchors = (
{
name = bottom;
position = "{569, 0}";
},
{
name = top;
position = "{569, 694}";
}
);
layerId = "F333AEC5-BB61-4D5E-9EDD-6124322D28F2";
paths = (
{
closed = 1;
nodes = (
"471 -7 OFFCURVE",
"543 1 OFFCURVE",
"567 10 CURVE",
"527 79 LINE",
"506 71 OFFCURVE",
"462 65 OFFCURVE",
"417 65 CURVE SMOOTH",
"256 65 OFFCURVE",
"153 178 OFFCURVE",
"153 355 CURVE SMOOTH",
"153 525 OFFCURVE",
"249 630 OFFCURVE",
"409 630 CURVE SMOOTH",
"454 630 OFFCURVE",
"501 625 OFFCURVE",
"527 611 CURVE",
"567 686 LINE",
"543 695 OFFCURVE",
"470 703 OFFCURVE",
"418 703 CURVE SMOOTH",
"201 703 OFFCURVE",
"68 564 OFFCURVE",
"68 343 CURVE SMOOTH",
"68 127 OFFCURVE",
"195 -7 OFFCURVE",
"417 -7 CURVE SMOOTH"
);
},
{
closed = 1;
nodes = (
"602 0 LINE",
"602 694 LINE",
"519 694 LINE",
"519 0 LINE"
);
},
{
closed = 1;
nodes = (
"955 0 LINE",
"955 72 LINE",
"559 72 LINE",
"559 0 LINE"
);
},
{
closed = 1;
nodes = (
"928 323 LINE",
"928 395 LINE",
"559 395 LINE",
"559 323 LINE"
);
},
{
closed = 1;
nodes = (
"955 622 LINE",
"955 694 LINE",
"559 694 LINE",
"559 622 LINE"
);
}
);
width = 1018;
},
{
anchors = (
{
name = bottom;
position = "{617, 0}";
},
{
name = top;
position = "{617, 694}";
}
);
layerId = "51C2DFEF-3776-4D13-9284-96485B799B57";
paths = (
{
closed = 1;
nodes = (
"494 -10 OFFCURVE",
"567 7 OFFCURVE",
"622 38 CURVE",
"531 167 LINE",
"503 150 OFFCURVE",
"467 140 OFFCURVE",
"425 140 CURVE SMOOTH",
"301 140 OFFCURVE",
"218 224 OFFCURVE",
"218 351 CURVE SMOOTH",
"218 473 OFFCURVE",
"295 554 OFFCURVE",
"415 554 CURVE SMOOTH",
"455 554 OFFCURVE",
"492 545 OFFCURVE",
"522 528 CURVE",
"622 660 LINE",
"569 688 OFFCURVE",
"500 704 OFFCURVE",
"425 704 CURVE SMOOTH",
"192 704 OFFCURVE",
"38 559 OFFCURVE",
"38 341 CURVE SMOOTH",
"38 130 OFFCURVE",
"188 -10 OFFCURVE",
"416 -10 CURVE SMOOTH"
);
},
{
closed = 1;
nodes = (
"685 0 LINE",
"685 694 LINE",
"512 694 LINE",
"512 0 LINE"
);
},
{
closed = 1;
nodes = (
"1010 0 LINE",
"1010 152 LINE",
"592 152 LINE",
"592 0 LINE"
);
},
{
closed = 1;
nodes = (
"982 278 LINE",
"982 430 LINE",
"592 430 LINE",
"592 278 LINE"
);
},
{
closed = 1;
nodes = (
"1010 542 LINE",
"1010 694 LINE",
"592 694 LINE",
"592 542 LINE"
);
}
);
width = 1065;
},
{
anchors = (
{
name = bottom;
position = "{552, 0}";
},
{
name = top;
position = "{552, 694}";
}
);
layerId = "0B2E441B-685E-400D-9B9B-E078DEED62EF";
paths = (
{
closed = 1;
nodes = (
"477 -10 OFFCURVE",
"526 -6 OFFCURVE",
"557 0 CURVE",
"552 18 LINE",
"525 12 OFFCURVE",
"477 9 OFFCURVE",
"447 9 CURVE SMOOTH",
"246 9 OFFCURVE",
"112 145 OFFCURVE",
"112 346 CURVE SMOOTH",
"112 547 OFFCURVE",
"246 680 OFFCURVE",
"445 680 CURVE SMOOTH",
"473 680 OFFCURVE",
"520 677 OFFCURVE",
"547 672 CURVE",
"551 691 LINE",
"523 696 OFFCURVE",
"477 699 OFFCURVE",
"449 699 CURVE SMOOTH",
"234 699 OFFCURVE",
"90 555 OFFCURVE",
"90 343 CURVE SMOOTH",
"90 131 OFFCURVE",
"233 -10 OFFCURVE",
"445 -10 CURVE SMOOTH"
);
},
{
closed = 1;
nodes = (
"549 0 LINE",
"549 694 LINE",
"528 694 LINE",
"528 0 LINE"
);
},
{
closed = 1;
nodes = (
"922 0 LINE",
"922 18 LINE",
"537 18 LINE",
"537 0 LINE"
);
},
{
closed = 1;
nodes = (
"897 351 LINE",
"897 369 LINE",
"537 369 LINE",
"537 351 LINE"
);
},
{
closed = 1;
nodes = (
"922 676 LINE",
"922 694 LINE",
"537 694 LINE",
"537 676 LINE"
);
}
);
width = 991;
}
);
leftMetricsKey = O;
rightMetricsKey = E;
unicode = 0152;
},
{
glyphname = P;
layers = (
{
anchors = (
{
name = bottom;
position = "{307, 0}";
},
{
name = top;
position = "{307, 694}";
}
);
layerId = "F333AEC5-BB61-4D5E-9EDD-6124322D28F2";
paths = (
{
closed = 1;
nodes = (
"189 0 LINE",
"189 694 LINE",
"106 694 LINE",
"106 0 LINE"
);
},
{
closed = 1;
nodes = (
"312 242 LINE SMOOTH",
"465 242 OFFCURVE",
"566 332 OFFCURVE",
"566 468 CURVE SMOOTH",
"566 604 OFFCURVE",
"468 694 OFFCURVE",
"322 694 CURVE SMOOTH",
"159 694 LINE",
"159 622 LINE",
"312 622 LINE SMOOTH",
"416 622 OFFCURVE",
"481 559 OFFCURVE",
"481 458 CURVE SMOOTH",
"481 364 OFFCURVE",
"425 314 OFFCURVE",
"322 314 CURVE SMOOTH",
"159 314 LINE",
"159 242 LINE"
);
}
);
width = 624;
},
{
anchors = (
{
name = bottom;
position = "{335, 0}";
},
{
name = top;
position = "{335, 694}";
}
);
layerId = "51C2DFEF-3776-4D13-9284-96485B799B57";
paths = (
{
closed = 1;
nodes = (
"250 0 LINE",
"250 694 LINE",
"77 694 LINE",
"77 0 LINE"
);
},
{
closed = 1;
nodes = (
"322 204 LINE SMOOTH",
"500 204 OFFCURVE",
"619 304 OFFCURVE",
"619 453 CURVE SMOOTH",
"619 598 OFFCURVE",
"505 694 OFFCURVE",
"336 694 CURVE SMOOTH",
"186 694 LINE",
"186 542 LINE",
"327 542 LINE SMOOTH",
"395 542 OFFCURVE",
"439 503 OFFCURVE",
"439 443 CURVE SMOOTH",
"439 387 OFFCURVE",
"403 356 OFFCURVE",
"338 356 CURVE SMOOTH",
"186 356 LINE",
"186 204 LINE"
);
}
);
width = 648;
},
{
anchors = (
{
name = bottom;
position = "{335, 0}";
},
{
name = top;
position = "{335, 694}";
}
);
layerId = "0B2E441B-685E-400D-9B9B-E078DEED62EF";
paths = (
{
closed = 1;
nodes = (
"148 0 LINE",
"148 694 LINE",
"127 694 LINE",
"127 0 LINE"
);
},
{
closed = 1;
nodes = (
"303 268 LINE SMOOTH",
"445 268 OFFCURVE",
"529 348 OFFCURVE",
"529 477 CURVE SMOOTH",
"529 609 OFFCURVE",
"441 694 OFFCURVE",
"309 694 CURVE SMOOTH",
"142 694 LINE",
"142 676 LINE",
"303 676 LINE SMOOTH",
"425 676 OFFCURVE",
"507 597 OFFCURVE",
"507 475 CURVE SMOOTH",
"507 358 OFFCURVE",
"433 286 OFFCURVE",
"309 286 CURVE SMOOTH",
"142 286 LINE",
"142 268 LINE"
);
}
);
width = 609;
}
);
note = P;
unicode = 0050;
},
{
glyphname = Thorn;
layers = (
{
layerId = "F333AEC5-BB61-4D5E-9EDD-6124322D28F2";
paths = (
{
closed = 1;
nodes = (
"189 0 LINE",
"189 694 LINE",
"106 694 LINE",
"106 0 LINE"
);
},
{
closed = 1;
nodes = (
"312 139 LINE SMOOTH",
"465 139 OFFCURVE",
"566 229 OFFCURVE",
"566 365 CURVE SMOOTH",
"566 499 OFFCURVE",
"467 591 OFFCURVE",
"322 591 CURVE SMOOTH",
"159 591 LINE",
"159 519 LINE",
"312 519 LINE SMOOTH",
"416 519 OFFCURVE",
"481 456 OFFCURVE",
"481 355 CURVE SMOOTH",
"481 261 OFFCURVE",
"425 211 OFFCURVE",
"322 211 CURVE SMOOTH",
"159 211 LINE",
"159 139 LINE"
);
}
);
width = 624;
},
{
layerId = "51C2DFEF-3776-4D13-9284-96485B799B57";
paths = (
{
closed = 1;
nodes = (
"250 0 LINE",
"250 694 LINE",
"77 694 LINE",
"77 0 LINE"
);
},
{
closed = 1;
nodes = (
"322 116 LINE SMOOTH",
"500 116 OFFCURVE",
"619 216 OFFCURVE",
"619 365 CURVE SMOOTH",
"619 510 OFFCURVE",
"505 606 OFFCURVE",
"336 606 CURVE SMOOTH",
"186 606 LINE",
"186 454 LINE",
"327 454 LINE SMOOTH",
"395 454 OFFCURVE",
"439 415 OFFCURVE",
"439 355 CURVE SMOOTH",
"439 299 OFFCURVE",
"403 268 OFFCURVE",
"338 268 CURVE SMOOTH",
"186 268 LINE",
"186 116 LINE"
);
}
);
width = 648;
},
{
layerId = "0B2E441B-685E-400D-9B9B-E078DEED62EF";
paths = (
{
closed = 1;
nodes = (
"148 0 LINE",
"148 694 LINE",
"127 694 LINE",
"127 0 LINE"
);
},
{
closed = 1;
nodes = (
"303 148 LINE SMOOTH",
"445 148 OFFCURVE",
"529 228 OFFCURVE",
"529 357 CURVE SMOOTH",
"529 489 OFFCURVE",
"441 574 OFFCURVE",
"309 574 CURVE SMOOTH",
"142 574 LINE",
"142 556 LINE",
"303 556 LINE SMOOTH",
"425 556 OFFCURVE",
"507 477 OFFCURVE",
"507 355 CURVE SMOOTH",
"507 238 OFFCURVE",
"433 166 OFFCURVE",
"309 166 CURVE SMOOTH",
"142 166 LINE",
"142 148 LINE"
);
}
);
width = 609;
}
);
leftMetricsKey = P;
rightMetricsKey = P;
unicode = 00DE;
},
{
glyphname = Q;
layers = (
{
anchors = (
{
name = bottom;
position = "{394, 0}";
},
{
name = top;
position = "{394, 694}";
}
);
components = (
{
name = O;
},
{
name = _Qtail;
transform = "{1, 0, 0, 1, 423, -9}";
}
);
layerId = "F333AEC5-BB61-4D5E-9EDD-6124322D28F2";
width = 788;
},
{
anchors = (
{
name = bottom;
position = "{397, 0}";
},
{
name = top;
position = "{397, 694}";
}
);
components = (
{
name = O;
},
{
name = _Qtail;
transform = "{1, 0, 0, 1, 362, 7}";
}
);
layerId = "51C2DFEF-3776-4D13-9284-96485B799B57";
width = 794;
},
{
anchors = (
{
name = bottom;
position = "{393, 0}";
},
{
name = top;
position = "{393, 694}";
}
);
components = (
{
name = O;
},
{
name = _Qtail;
transform = "{1, 0, 0, 1, 469, -11}";
}
);
layerId = "0B2E441B-685E-400D-9B9B-E078DEED62EF";
width = 786;
},
{
anchors = (
{
name = bottom;
position = "{397, 0}";
},
{
name = top;
position = "{397, 694}";
}
);
associatedMasterId = "51C2DFEF-3776-4D13-9284-96485B799B57";
layerId = "F61AEC76-3907-4C64-9E5F-B00B047D0AAC";
name = "Dec 5 17, 20:29";
paths = (
{
closed = 1;
nodes = (
"610 -10 OFFCURVE",
"756 134 OFFCURVE",
"756 351 CURVE SMOOTH",
"756 563 OFFCURVE",
"614 704 OFFCURVE",
"401 704 CURVE SMOOTH",
"183 704 OFFCURVE",
"38 559 OFFCURVE",
"38 341 CURVE SMOOTH",
"38 130 OFFCURVE",
"179 -10 OFFCURVE",
"390 -10 CURVE SMOOTH"
);
},
{
closed = 1;
nodes = (
"291 140 OFFCURVE",
"218 225 OFFCURVE",
"218 351 CURVE SMOOTH",
"218 473 OFFCURVE",
"286 554 OFFCURVE",
"390 554 CURVE SMOOTH",
"502 554 OFFCURVE",
"576 468 OFFCURVE",
"576 341 CURVE SMOOTH",
"576 221 OFFCURVE",
"507 140 OFFCURVE",
"401 140 CURVE SMOOTH"
);
},
{
closed = 1;
nodes = (
"735 28 LINE",
"495 315 LINE",
"384 218 LINE",
"624 -69 LINE"
);
}
);
width = 794;
}
);
note = Q;
unicode = 0051;
},
{
glyphname = R;
layers = (
{
anchors = (
{
name = bottom;
position = "{323, 0}";
},
{
name = top;
position = "{323, 694}";
}
);
layerId = "F333AEC5-BB61-4D5E-9EDD-6124322D28F2";
paths = (
{
closed = 1;
nodes = (
"189 0 LINE",
"189 694 LINE",
"106 694 LINE",
"106 0 LINE"
);
},
{
closed = 1;
nodes = (
"326 281 LINE SMOOTH",
"471 281 OFFCURVE",
"568 367 OFFCURVE",
"568 497 CURVE SMOOTH",
"568 617 OFFCURVE",
"477 694 OFFCURVE",
"336 694 CURVE SMOOTH",
"159 694 LINE",
"159 622 LINE",
"326 622 LINE SMOOTH",
"425 622 OFFCURVE",
"483 572 OFFCURVE",
"483 483 CURVE SMOOTH",
"483 398 OFFCURVE",
"431 351 OFFCURVE",
"336 351 CURVE SMOOTH",
"159 351 LINE",
"159 281 LINE"
);
},
{
closed = 1;
nodes = (
"608 0 LINE",
"416 328 LINE",
"321 328 LINE",
"509 0 LINE"
);
}
);
width = 655;
},
{
anchors = (
{
name = bottom;
position = "{334, 0}";
},
{
name = top;
position = "{334, 694}";
}
);
layerId = "51C2DFEF-3776-4D13-9284-96485B799B57";
paths = (
{
closed = 1;
nodes = (
"250 0 LINE",
"250 694 LINE",
"77 694 LINE",
"77 0 LINE"
);
},
{
closed = 1;
nodes = (
"349 237 LINE SMOOTH",
"511 237 OFFCURVE",
"622 337 OFFCURVE",
"622 482 CURVE SMOOTH",
"622 616 OFFCURVE",
"527 694 OFFCURVE",
"363 694 CURVE SMOOTH",
"198 694 LINE",
"198 543 LINE",
"349 543 LINE SMOOTH",
"410 543 OFFCURVE",
"442 515 OFFCURVE",
"442 461 CURVE SMOOTH",
"442 411 OFFCURVE",
"415 384 OFFCURVE",
"363 384 CURVE SMOOTH",
"198 384 LINE",
"198 237 LINE"
);
},
{
closed = 1;
nodes = (
"670 0 LINE",
"486 299 LINE",
"289 299 LINE",
"462 0 LINE"
);
}
);
width = 686;
},
{
anchors = (
{
name = bottom;
position = "{321, 0}";
},
{
name = top;
position = "{293, 694}";
}
);
layerId = "0B2E441B-685E-400D-9B9B-E078DEED62EF";
paths = (
{
closed = 1;
nodes = (
"148 0 LINE",
"148 694 LINE",
"127 694 LINE",
"127 0 LINE"
);
},
{
closed = 1;
nodes = (
"300 311 LINE SMOOTH",
"448 311 OFFCURVE",
"532 375 OFFCURVE",
"532 502 CURVE SMOOTH",
"532 625 OFFCURVE",
"450 694 OFFCURVE",
"305 694 CURVE SMOOTH",
"138 694 LINE",
"138 676 LINE",
"300 676 LINE SMOOTH",
"437 676 OFFCURVE",
"510 614 OFFCURVE",
"510 499 CURVE SMOOTH",
"510 385 OFFCURVE",
"437 329 OFFCURVE",
"307 329 CURVE SMOOTH",
"138 329 LINE",
"138 311 LINE"
);
},
{
closed = 1;
nodes = (
"574 0 LINE",
"389 325 LINE",
"366 325 LINE",
"548 0 LINE"
);
}
);
width = 642;
}
);
note = R;
unicode = 0052;
},
{
glyphname = S;
layers = (
{
anchors = (
{
name = bottom;
position = "{300, 0}";
},
{
name = top;
position = "{300, 694}";
}
);
layerId = "F333AEC5-BB61-4D5E-9EDD-6124322D28F2";
paths = (
{
closed = 1;
nodes = (
"445 -10 OFFCURVE",
"546 69 OFFCURVE",
"546 191 CURVE SMOOTH",
"546 437 OFFCURVE",
"157 339 OFFCURVE",
"157 518 CURVE SMOOTH",
"157 591 OFFCURVE",
"216 631 OFFCURVE",
"322 631 CURVE SMOOTH",
"383 631 OFFCURVE",
"447 618 OFFCURVE",
"495 597 CURVE",
"519 663 LINE",
"460 689 OFFCURVE",
"394 703 OFFCURVE",
"328 703 CURVE SMOOTH",
"173 703 OFFCURVE",
"72 626 OFFCURVE",
"72 505 CURVE SMOOTH",
"72 267 OFFCURVE",
"460 356 OFFCURVE",
"460 179 CURVE SMOOTH",
"460 109 OFFCURVE",
"400 64 OFFCURVE",
"295 64 CURVE SMOOTH",
"233 64 OFFCURVE",
"159 80 OFFCURVE",
"86 112 CURVE",
"61 41 LINE",
"148 6 OFFCURVE",
"220 -10 OFFCURVE",
"290 -10 CURVE SMOOTH"
);
}
);
width = 606;
},
{
anchors = (
{
name = bottom;
position = "{303, 0}";
},
{
name = top;
position = "{296, 694}";
}
);
layerId = "51C2DFEF-3776-4D13-9284-96485B799B57";
paths = (
{
closed = 1;
nodes = (
"470 -10 OFFCURVE",
"572 78 OFFCURVE",
"572 217 CURVE SMOOTH",
"572 472 OFFCURVE",
"229 395 OFFCURVE",
"229 498 CURVE SMOOTH",
"229 533 OFFCURVE",
"268 552 OFFCURVE",
"336 552 CURVE SMOOTH",
"389 552 OFFCURVE",
"451 541 OFFCURVE",
"502 522 CURVE",
"552 666 LINE",
"483 691 OFFCURVE",
"412 704 OFFCURVE",
"345 704 CURVE SMOOTH",
"169 704 OFFCURVE",
"49 612 OFFCURVE",
"49 472 CURVE SMOOTH",
"49 236 OFFCURVE",
"390 303 OFFCURVE",
"390 196 CURVE SMOOTH",
"390 164 OFFCURVE",
"360 146 OFFCURVE",
"293 146 CURVE SMOOTH",
"230 146 OFFCURVE",
"155 162 OFFCURVE",
"86 191 CURVE",
"36 41 LINE",
"107 9 OFFCURVE",
"200 -10 OFFCURVE",
"286 -10 CURVE SMOOTH"
);
}
);
width = 607;
},
{
anchors = (
{
name = bottom;
position = "{297, 0}";
},
{
name = top;
position = "{302, 694}";
}
);
layerId = "0B2E441B-685E-400D-9B9B-E078DEED62EF";
paths = (
{
closed = 1;
nodes = (
"440 -10 OFFCURVE",
"530 66 OFFCURVE",
"530 177 CURVE SMOOTH",
"530 416 OFFCURVE",
"111 307 OFFCURVE",
"111 531 CURVE SMOOTH",
"111 627 OFFCURVE",
"187 683 OFFCURVE",
"317 683 CURVE SMOOTH",
"377 683 OFFCURVE",
"438 671 OFFCURVE",
"491 645 CURVE",
"498 663 LINE",
"445 691 OFFCURVE",
"382 702 OFFCURVE",
"323 702 CURVE SMOOTH",
"177 702 OFFCURVE",
"89 636 OFFCURVE",
"89 527 CURVE SMOOTH",
"89 290 OFFCURVE",
"508 394 OFFCURVE",
"508 172 CURVE SMOOTH",
"508 75 OFFCURVE",
"429 9 OFFCURVE",
"302 9 CURVE SMOOTH",
"235 9 OFFCURVE",
"160 27 OFFCURVE",
"88 60 CURVE",
"81 41 LINE",
"150 8 OFFCURVE",
"228 -10 OFFCURVE",
"297 -10 CURVE SMOOTH"
);
}
);
width = 608;
}
);
note = S;
unicode = 0053;
},
{
glyphname = Germandbls;
layers = (
{
layerId = "F333AEC5-BB61-4D5E-9EDD-6124322D28F2";
paths = (
{
closed = 1;
nodes = (
"578 -10 OFFCURVE",
"664 66 OFFCURVE",
"664 181 CURVE SMOOTH",
"664 283 OFFCURVE",
"596 364 OFFCURVE",
"468 388 CURVE",
"478 352 LINE",
"614 583 LINE",
"581 657 OFFCURVE",
"485 704 OFFCURVE",
"368 704 CURVE SMOOTH",
"203 704 OFFCURVE",
"95 610 OFFCURVE",
"95 468 CURVE SMOOTH",
"95 0 LINE",
"178 0 LINE",
"178 468 LINE SMOOTH",
"178 566 OFFCURVE",
"248 631 OFFCURVE",
"363 631 CURVE SMOOTH",
"436 631 OFFCURVE",
"497 605 OFFCURVE",
"520 565 CURVE",
"385 332 LINE",
"510 312 OFFCURVE",
"579 255 OFFCURVE",
"579 171 CURVE SMOOTH",
"579 102 OFFCURVE",
"533 63 OFFCURVE",
"454 63 CURVE SMOOTH",
"411 63 OFFCURVE",
"362 74 OFFCURVE",
"320 94 CURVE",
"293 23 LINE",
"342 2 OFFCURVE",
"398 -10 OFFCURVE",
"449 -10 CURVE SMOOTH"
);
}
);
width = 721;
},
{
layerId = "51C2DFEF-3776-4D13-9284-96485B799B57";
paths = (
{
closed = 1;
nodes = (
"600 -10 OFFCURVE",
"707 77 OFFCURVE",
"707 208 CURVE SMOOTH",
"707 318 OFFCURVE",
"632 393 OFFCURVE",
"506 410 CURVE",
"567 384 LINE",
"666 559 LINE",
"619 649 OFFCURVE",
"505 704 OFFCURVE",
"367 704 CURVE SMOOTH",
"184 704 OFFCURVE",
"63 596 OFFCURVE",
"63 434 CURVE SMOOTH",
"63 0 LINE",
"239 0 LINE",
"239 434 LINE SMOOTH",
"239 507 OFFCURVE",
"289 554 OFFCURVE",
"365 554 CURVE SMOOTH",
"405 554 OFFCURVE",
"437 541 OFFCURVE",
"466 513 CURVE",
"353 304 LINE",
"455 289 OFFCURVE",
"527 252 OFFCURVE",
"527 200 CURVE SMOOTH",
"527 163 OFFCURVE",
"493 140 OFFCURVE",
"438 140 CURVE SMOOTH",
"401 140 OFFCURVE",
"363 150 OFFCURVE",
"332 167 CURVE",
"278 25 LINE",
"334 0 OFFCURVE",
"382 -10 OFFCURVE",
"439 -10 CURVE SMOOTH"
);
}
);
width = 737;
},
{
layerId = "0B2E441B-685E-400D-9B9B-E078DEED62EF";
paths = (
{
closed = 1;
nodes = (
"554 -10 OFFCURVE",
"632 59 OFFCURVE",
"632 164 CURVE SMOOTH",
"632 273 OFFCURVE",
"566 341 OFFCURVE",
"433 370 CURVE",
"434 360 LINE",
"581 599 LINE",
"557 659 OFFCURVE",
"467 702 OFFCURVE",
"364 702 CURVE SMOOTH",
"217 702 OFFCURVE",
"117 614 OFFCURVE",
"117 482 CURVE SMOOTH",
"117 0 LINE",
"138 0 LINE",
"138 482 LINE SMOOTH",
"138 603 OFFCURVE",
"228 683 OFFCURVE",
"362 683 CURVE SMOOTH",
"452 683 OFFCURVE",
"533 648 OFFCURVE",
"557 599 CURVE",
"409 355 LINE",
"546 328 OFFCURVE",
"611 266 OFFCURVE",
"611 163 CURVE SMOOTH",
"611 70 OFFCURVE",
"542 8 OFFCURVE",
"439 8 CURVE SMOOTH",
"395 8 OFFCURVE",
"347 19 OFFCURVE",
"303 39 CURVE",
"296 21 LINE",
"337 1 OFFCURVE",
"386 -10 OFFCURVE",
"434 -10 CURVE SMOOTH"
);
}
);
width = 711;
}
);
unicode = 1E9E;
},
{
glyphname = Schwa;
layers = (
{
anchors = (
{
name = bottom;
position = "{371, 0}";
},
{
name = top;
position = "{371, 694}";
}
);
layerId = "F333AEC5-BB61-4D5E-9EDD-6124322D28F2";
paths = (
{
closed = 1;
nodes = (
"237 700 OFFCURVE",
"159 680 OFFCURVE",
"89 640 CURVE",
"108 579 LINE",
"172 610 OFFCURVE",
"242 627 OFFCURVE",
"310 627 CURVE SMOOTH",
"488 627 OFFCURVE",
"596 521 OFFCURVE",
"596 329 CURVE SMOOTH",
"596 158 OFFCURVE",
"511 63 OFFCURVE",
"364 63 CURVE SMOOTH",
"224 63 OFFCURVE",
"142 148 OFFCURVE",
"142 300 CURVE",
"617 300 LINE",
"617 368 LINE",
"69 368 LINE",
"67 345 OFFCURVE",
"65 312 OFFCURVE",
"65 291 CURVE SMOOTH",
"65 111 OFFCURVE",
"181 -10 OFFCURVE",
"357 -10 CURVE SMOOTH",
"548 -10 OFFCURVE",
"681 132 OFFCURVE",
"681 347 CURVE SMOOTH",
"681 566 OFFCURVE",
"543 700 OFFCURVE",
"324 700 CURVE SMOOTH"
);
}
);
userData = {
RMXScaler = {
height = 143;
width = 150;
};
};
width = 748;
},
{
anchors = (
{
name = bottom;
position = "{376, 0}";
},
{
name = top;
position = "{376, 694}";
}
);
layerId = "51C2DFEF-3776-4D13-9284-96485B799B57";
paths = (
{
closed = 1;
nodes = (
"227 704 OFFCURVE",
"140 685 OFFCURVE",
"60 648 CURVE",
"99 517 LINE",
"159 541 OFFCURVE",
"225 554 OFFCURVE",
"288 554 CURVE SMOOTH",
"444 554 OFFCURVE",
"523 483 OFFCURVE",
"523 315 CURVE SMOOTH",
"523 192 OFFCURVE",
"469 140 OFFCURVE",
"363 140 CURVE SMOOTH",
"267 140 OFFCURVE",
"211 180 OFFCURVE",
"211 272 CURVE",
"552 272 LINE",
"552 414 LINE",
"53 414 LINE",
"48 370 OFFCURVE",
"45 324 OFFCURVE",
"45 280 CURVE SMOOTH",
"45 105 OFFCURVE",
"163 -10 OFFCURVE",
"350 -10 CURVE SMOOTH",
"560 -10 OFFCURVE",
"703 133 OFFCURVE",
"703 350 CURVE SMOOTH",
"703 571 OFFCURVE",
"556 704 OFFCURVE",
"317 704 CURVE SMOOTH"
);
}
);
userData = {
RMXScaler = {
height = 142;
width = 148;
};
};
width = 741;
},
{
anchors = (
{
name = bottom;
position = "{369, 0}";
},
{
name = top;
position = "{369, 694}";
}
);
layerId = "0B2E441B-685E-400D-9B9B-E078DEED62EF";
paths = (
{
closed = 1;
nodes = (
"245 704 OFFCURVE",
"174 681 OFFCURVE",
"106 633 CURVE",
"111 617 LINE",
"180 663 OFFCURVE",
"249 685 OFFCURVE",
"326 685 CURVE SMOOTH",
"521 685 OFFCURVE",
"642 558 OFFCURVE",
"642 342 CURVE SMOOTH",
"642 140 OFFCURVE",
"537 9 OFFCURVE",
"366 9 CURVE SMOOTH",
"202 9 OFFCURVE",
"105 130 OFFCURVE",
"105 321 CURVE",
"660 321 LINE",
"660 340 LINE",
"83 340 LINE",
"82 332 OFFCURVE",
"82 328 OFFCURVE",
"82 318 CURVE SMOOTH",
"82 123 OFFCURVE",
"191 -10 OFFCURVE",
"364 -10 CURVE SMOOTH",
"540 -10 OFFCURVE",
"665 130 OFFCURVE",
"665 342 CURVE SMOOTH",
"665 562 OFFCURVE",
"532 704 OFFCURVE",
"328 704 CURVE SMOOTH"
);
}
);
userData = {
RMXScaler = {
height = 145;
width = 150;
};
};
width = 755;
}
);
unicode = 018F;
userData = {
RMXScaler = {
source = e;
};
};
},
{
glyphname = T;
layers = (
{
anchors = (
{
name = bottom;
position = "{317, 0}";
},
{
name = center;
position = "{317, 347}";
},
{
name = top;
position = "{317, 694}";
}
);
layerId = "F333AEC5-BB61-4D5E-9EDD-6124322D28F2";
paths = (
{
closed = 1;
nodes = (
"358 0 LINE",
"358 660 LINE",
"275 660 LINE",
"275 0 LINE"
);
},
{
closed = 1;
nodes = (
"590 622 LINE",
"590 694 LINE",
"44 694 LINE",
"44 622 LINE"
);
}
);
width = 634;
},
{
anchors = (
{
name = bottom;
position = "{324, 0}";
},
{
name = center;
position = "{322, 327}";
},
{
name = top;
position = "{322, 694}";
}
);
layerId = "51C2DFEF-3776-4D13-9284-96485B799B57";
paths = (
{
closed = 1;
nodes = (
"407 0 LINE",
"407 660 LINE",
"237 660 LINE",
"237 0 LINE"
);
},
{
closed = 1;
nodes = (
"623 542 LINE",
"623 694 LINE",
"23 694 LINE",
"23 542 LINE"
);
}
);
width = 646;
},
{
anchors = (
{
name = bottom;
position = "{313, 0}";
},
{
name = center;
position = "{316, 357}";
},
{
name = top;
position = "{316, 694}";
}
);
layerId = "0B2E441B-685E-400D-9B9B-E078DEED62EF";
paths = (
{
closed = 1;
nodes = (
"326 0 LINE",
"326 694 LINE",
"305 694 LINE",
"305 0 LINE"
);
},
{
closed = 1;
nodes = (
"571 676 LINE",
"571 694 LINE",
"60 694 LINE",
"60 676 LINE"
);
}
);
width = 631;
}
);
note = T;
unicode = 0054;
},
{
glyphname = U;
layers = (
{
anchors = (
{
name = bottom;
position = "{357, 0}";
},
{
name = ogonek;
position = "{441, 10}";
},
{
name = top;
position = "{357, 694}";
},
{
name = topright;
position = "{656, 694}";
}
);
layerId = "F333AEC5-BB61-4D5E-9EDD-6124322D28F2";
paths = (
{
closed = 1;
nodes = (
"513 -10 OFFCURVE",
"621 92 OFFCURVE",
"621 246 CURVE SMOOTH",
"621 694 LINE",
"540 694 LINE",
"540 236 LINE SMOOTH",
"540 127 OFFCURVE",
"475 63 OFFCURVE",
"363 63 CURVE SMOOTH",
"245 63 OFFCURVE",
"177 133 OFFCURVE",
"177 253 CURVE SMOOTH",
"177 694 LINE",
"94 694 LINE",
"94 243 LINE SMOOTH",
"94 90 OFFCURVE",
"195 -10 OFFCURVE",
"352 -10 CURVE SMOOTH"
);
}
);
width = 714;
},
{
anchors = (
{
name = bottom;
position = "{366, 0}";
},
{
name = ogonek;
position = "{447, 10}";
},
{
name = top;
position = "{366, 694}";
},
{
name = topright;
position = "{724, 694}";
}
);
layerId = "51C2DFEF-3776-4D13-9284-96485B799B57";
paths = (
{
closed = 1;
nodes = (
"547 -10 OFFCURVE",
"669 107 OFFCURVE",
"669 287 CURVE SMOOTH",
"669 694 LINE",
"498 694 LINE",
"498 267 LINE SMOOTH",
"498 186 OFFCURVE",
"455 140 OFFCURVE",
"377 140 CURVE SMOOTH",
"290 140 OFFCURVE",
"236 196 OFFCURVE",
"236 287 CURVE SMOOTH",
"236 694 LINE",
"63 694 LINE",
"63 277 LINE SMOOTH",
"63 98 OFFCURVE",
"174 -10 OFFCURVE",
"358 -10 CURVE SMOOTH"
);
}
);
width = 731;
},
{
anchors = (
{
name = bottom;
position = "{355, 0}";
},
{
name = ogonek;
position = "{437, 10}";
},
{
name = top;
position = "{355, 694}";
},
{
name = topright;
position = "{671, 694}";
}
);
layerId = "0B2E441B-685E-400D-9B9B-E078DEED62EF";
paths = (
{
closed = 1;
nodes = (
"503 -10 OFFCURVE",
"591 85 OFFCURVE",
"591 246 CURVE SMOOTH",
"591 694 LINE",
"570 694 LINE",
"570 246 LINE SMOOTH",
"570 97 OFFCURVE",
"491 9 OFFCURVE",
"357 9 CURVE SMOOTH",
"219 9 OFFCURVE",
"138 97 OFFCURVE",
"138 246 CURVE SMOOTH",
"138 694 LINE",
"116 694 LINE",
"116 246 LINE SMOOTH",
"116 85 OFFCURVE",
"204 -10 OFFCURVE",
"354 -10 CURVE SMOOTH"
);
}
);
width = 707;
}
);
note = U;
unicode = 0055;
},
{
glyphname = V;
layers = (
{
anchors = (
{
name = bottom;
position = "{338, 0}";
},
{
name = top;
position = "{338, 694}";
}
);
layerId = "F333AEC5-BB61-4D5E-9EDD-6124322D28F2";
paths = (
{
closed = 1;
nodes = (
"378 0 LINE",
"631 694 LINE",
"547 694 LINE",
"316 29 LINE",
"366 29 LINE",
"139 694 LINE",
"44 694 LINE",
"297 0 LINE"
);
}
);
width = 675;
},
{
anchors = (
{
name = bottom;
position = "{354, 0}";
},
{
name = top;
position = "{354, 694}";
}
);
layerId = "51C2DFEF-3776-4D13-9284-96485B799B57";
paths = (
{
closed = 1;
nodes = (
"445 0 LINE",
"692 694 LINE",
"513 694 LINE",
"324 92 LINE",
"393 92 LINE",
"217 694 LINE",
"15 694 LINE",
"260 0 LINE"
);
}
);
width = 707;
},
{
anchors = (
{
name = bottom;
position = "{329, 0}";
},
{
name = top;
position = "{329, 694}";
}
);
layerId = "0B2E441B-685E-400D-9B9B-E078DEED62EF";
paths = (
{
closed = 1;
nodes = (
"335 0 LINE",
"592 694 LINE",
"571 694 LINE",
"326 30 LINE",
"335 30 LINE",
"88 694 LINE",
"65 694 LINE",
"324 0 LINE"
);
}
);
width = 658;
}
);
note = V;
unicode = 0056;
},
{
glyphname = W;
layers = (
{
anchors = (
{
name = bottom;
position = "{523, 0}";
},
{
name = top;
position = "{523, 694}";
}
);
layerId = "F333AEC5-BB61-4D5E-9EDD-6124322D28F2";
paths = (
{
closed = 1;
nodes = (
"347 0 LINE",
"539 653 LINE",
"502 653 LINE",
"708 0 LINE",
"788 0 LINE",
"1004 694 LINE",
"921 694 LINE",
"729 39 LINE",
"774 39 LINE",
"575 689 LINE",
"477 689 LINE",
"288 39 LINE",
"331 39 LINE",
"141 694 LINE",
"45 694 LINE",
"267 0 LINE"
);
}
);
width = 1050;
},
{
anchors = (
{
name = bottom;
position = "{532, 0}";
},
{
name = top;
position = "{532, 694}";
}
);
layerId = "51C2DFEF-3776-4D13-9284-96485B799B57";
paths = (
{
closed = 1;
nodes = (
"415 0 LINE",
"549 602 LINE",
"499 602 LINE",
"657 0 LINE",
"835 0 LINE",
"1049 694 LINE",
"874 694 LINE",
"709 85 LINE",
"790 85 LINE",
"646 690 LINE",
"424 690 LINE",
"294 105 LINE",
"363 105 LINE",
"216 694 LINE",
"16 694 LINE",
"237 0 LINE"
);
}
);
width = 1066;
},
{
anchors = (
{
name = bottom;
position = "{520, 0}";
},
{
name = top;
position = "{520, 694}";
}
);
layerId = "0B2E441B-685E-400D-9B9B-E078DEED62EF";
paths = (
{
closed = 1;
nodes = (
"304 0 LINE",
"528 666 LINE",
"514 666 LINE",
"745 0 LINE",
"758 0 LINE",
"972 694 LINE",
"951 694 LINE",
"748 32 LINE",
"756 32 LINE",
"528 688 LINE",
"515 688 LINE",
"295 32 LINE",
"303 32 LINE",
"90 694 LINE",
"67 694 LINE",
"292 0 LINE"
);
}
);
width = 1039;
}
);
note = W;
unicode = 0057;
},
{
glyphname = X;
layers = (
{
anchors = (
{
name = bottom;
position = "{327, 0}";
},
{
name = top;
position = "{327, 694}";
}
);
layerId = "0B2E441B-685E-400D-9B9B-E078DEED62EF";
paths = (
{
closed = 1;
nodes = (
"586 0 LINE",
"319 385 LINE",
"119 694 LINE",
"92 694 LINE",
"306 369 LINE",
"559 0 LINE"
);
},
{
closed = 1;
nodes = (
"87 0 LINE",
"324 351 LINE",
"313 367 LINE",
"63 0 LINE"
);
},
{
closed = 1;
nodes = (
"566 694 LINE",
"542 694 LINE",
"321 375 LINE",
"332 358 LINE"
);
}
);
width = 649;
},
{
anchors = (
{
name = bottom;
position = "{335, 0}";
},
{
name = top;
position = "{335, 694}";
}
);
layerId = "F333AEC5-BB61-4D5E-9EDD-6124322D28F2";
paths = (
{
closed = 1;
nodes = (
"628 0 LINE",
"363 383 LINE",
"161 694 LINE",
"62 694 LINE",
"307 331 LINE",
"529 0 LINE"
);
},
{
closed = 1;
nodes = (
"136 0 LINE",
"339 309 LINE",
"296 373 LINE",
"42 0 LINE"
);
},
{
closed = 1;
nodes = (
"602 694 LINE",
"508 694 LINE",
"324 415 LINE",
"367 351 LINE"
);
}
);
width = 669;
},
{
anchors = (
{
name = bottom;
position = "{373, 0}";
},
{
name = top;
position = "{361, 694}";
}
);
layerId = "51C2DFEF-3776-4D13-9284-96485B799B57";
paths = (
{
closed = 1;
nodes = (
"697 0 LINE",
"405 416 LINE",
"234 694 LINE",
"29 694 LINE",
"314 279 LINE",
"488 0 LINE"
);
},
{
closed = 1;
nodes = (
"214 0 LINE",
"349 233 LINE",
"264 372 LINE",
"13 0 LINE"
);
},
{
closed = 1;
nodes = (
"669 694 LINE",
"466 694 LINE",
"337 484 LINE",
"427 349 LINE"
);
}
);
width = 708;
}
);
note = X;
unicode = 0058;
},
{
glyphname = Y;
layers = (
{
anchors = (
{
name = bottom;
position = "{330, 0}";
},
{
name = top;
position = "{330, 694}";
},
{
name = topleft;
position = "{52, 694}";
}
);
layerId = "F333AEC5-BB61-4D5E-9EDD-6124322D28F2";
paths = (
{
closed = 1;
nodes = (
"368 0 LINE",
"368 299 LINE",
"608 694 LINE",
"517 694 LINE",
"324 362 LINE",
"335 362 LINE",
"137 694 LINE",
"40 694 LINE",
"285 299 LINE",
"285 0 LINE"
);
}
);
width = 648;
},
{
anchors = (
{
name = bottom;
position = "{354, 0}";
},
{
name = top;
position = "{354, 694}";
},
{
name = topleft;
position = "{34, 694}";
}
);
layerId = "51C2DFEF-3776-4D13-9284-96485B799B57";
paths = (
{
closed = 1;
nodes = (
"448 0 LINE",
"448 247 LINE",
"702 694 LINE",
"508 694 LINE",
"356 380 LINE",
"378 380 LINE",
"214 694 LINE",
"10 694 LINE",
"275 251 LINE",
"275 0 LINE"
);
}
);
width = 713;
},
{
anchors = (
{
name = bottom;
position = "{309, 0}";
},
{
name = top;
position = "{309, 694}";
},
{
name = topleft;
position = "{43, 694}";
}
);
layerId = "0B2E441B-685E-400D-9B9B-E078DEED62EF";
paths = (
{
closed = 1;
nodes = (
"315 0 LINE",
"315 333 LINE",
"547 694 LINE",
"524 694 LINE",
"302 344 LINE",
"310 344 LINE",
"87 694 LINE",
"61 694 LINE",
"294 333 LINE",
"294 0 LINE"
);
}
);
width = 608;
}
);
note = Y;
unicode = 0059;
},
{
glyphname = Z;
layers = (
{
anchors = (
{
name = bottom;
position = "{331, 0}";
},
{
name = top;
position = "{331, 694}";
}
);
layerId = "F333AEC5-BB61-4D5E-9EDD-6124322D28F2";
paths = (
{
closed = 1;
nodes = (
"610 0 LINE",
"610 72 LINE",
"130 72 LINE",
"142 47 LINE",
"597 642 LINE",
"597 694 LINE",
"66 694 LINE",
"66 622 LINE",
"518 622 LINE",
"506 647 LINE",
"52 53 LINE",
"52 0 LINE"
);
}
);
width = 662;
},
{
anchors = (
{
name = bottom;
position = "{346, 0}";
},
{
name = top;
position = "{346, 694}";
}
);
layerId = "51C2DFEF-3776-4D13-9284-96485B799B57";
paths = (
{
closed = 1;
nodes = (
"640 0 LINE",
"640 152 LINE",
"183 152 LINE",
"224 94 LINE",
"635 591 LINE",
"635 694 LINE",
"45 694 LINE",
"45 542 LINE",
"499 542 LINE",
"447 608 LINE",
"37 111 LINE",
"37 0 LINE"
);
}
);
width = 678;
},
{
anchors = (
{
name = bottom;
position = "{319, 0}";
},
{
name = top;
position = "{319, 694}";
}
);
layerId = "0B2E441B-685E-400D-9B9B-E078DEED62EF";
paths = (
{
closed = 1;
nodes = (
"593 0 LINE",
"593 18 LINE",
"87 18 LINE",
"87 12 LINE",
"576 677 LINE",
"576 694 LINE",
"83 694 LINE",
"83 676 LINE",
"554 676 LINE",
"554 682 LINE",
"65 16 LINE",
"65 0 LINE"
);
}
);
width = 658;
}
);
note = Z;
unicode = 005A;
},
{
glyphname = a;
layers = (
{
anchors = (
{
name = bottom;
position = "{263, 0}";
},
{
name = ogonek;
position = "{417, 10}";
},
{
name = top;
position = "{248, 482}";
}
);
layerId = "F333AEC5-BB61-4D5E-9EDD-6124322D28F2";
paths = (
{
closed = 1;
nodes = (
"439 0 LINE",
"439 313 LINE SMOOTH",
"439 428 OFFCURVE",
"371 492 OFFCURVE",
"250 492 CURVE SMOOTH",
"185 492 OFFCURVE",
"125 475 OFFCURVE",
"62 436 CURVE",
"80 378 LINE",
"134 407 OFFCURVE",
"182 420 OFFCURVE",
"232 420 CURVE SMOOTH",
"316 420 OFFCURVE",
"359 384 OFFCURVE",
"359 313 CURVE SMOOTH",
"359 56 LINE",
"383 0 LINE"
);
},
{
closed = 1;
nodes = (
"324 -10 OFFCURVE",
"412 62 OFFCURVE",
"428 169 CURVE",
"399 183 LINE",
"383 108 OFFCURVE",
"318 60 OFFCURVE",
"234 60 CURVE SMOOTH",
"170 60 OFFCURVE",
"129 89 OFFCURVE",
"129 134 CURVE SMOOTH",
"129 196 OFFCURVE",
"204 224 OFFCURVE",
"371 224 CURVE",
"371 284 LINE",
"164 284 OFFCURVE",
"49 225 OFFCURVE",
"49 120 CURVE SMOOTH",
"49 42 OFFCURVE",
"113 -10 OFFCURVE",
"210 -10 CURVE SMOOTH"
);
}
);
width = 515;
},
{
anchors = (
{
name = bottom;
position = "{275, 0}";
},
{
name = ogonek;
position = "{449, 10}";
},
{
name = top;
position = "{265, 490}";
}
);
layerId = "51C2DFEF-3776-4D13-9284-96485B799B57";
paths = (
{
closed = 1;
nodes = (
"496 0 LINE",
"496 282 LINE SMOOTH",
"496 422 OFFCURVE",
"414 500 OFFCURVE",
"266 500 CURVE SMOOTH",
"185 500 OFFCURVE",
"101 477 OFFCURVE",
"37 438 CURVE",
"75 321 LINE",
"127 345 OFFCURVE",
"183 359 OFFCURVE",
"227 359 CURVE SMOOTH",
"288 359 OFFCURVE",
"323 331 OFFCURVE",
"323 282 CURVE SMOOTH",
"323 129 LINE",
"371 0 LINE"
);
},
{
closed = 1;
nodes = (
"290 -10 OFFCURVE",
"362 43 OFFCURVE",
"423 155 CURVE",
"370 178 LINE",
"337 140 OFFCURVE",
"296 119 OFFCURVE",
"257 119 CURVE SMOOTH",
"223 119 OFFCURVE",
"204 133 OFFCURVE",
"204 157 CURVE SMOOTH",
"204 192 OFFCURVE",
"249 206 OFFCURVE",
"358 205 CURVE",
"358 299 LINE",
"152 300 OFFCURVE",
"30 236 OFFCURVE",
"30 126 CURVE SMOOTH",
"30 44 OFFCURVE",
"96 -10 OFFCURVE",
"194 -10 CURVE SMOOTH"
);
}
);
width = 545;
},
{
anchors = (
{
name = bottom;
position = "{246, 0}";
},
{
name = ogonek;
position = "{393, 10}";
},
{
name = top;
position = "{227, 480}";
}
);
background = {
paths = (
{
closed = 1;
nodes = (
"408 0 LINE",
"408 327 LINE SMOOTH",
"408 436 OFFCURVE",
"343 486 OFFCURVE",
"234 486 CURVE SMOOTH",
"171 486 OFFCURVE",
"102 460 OFFCURVE",
"60 425 CURVE",
"69 412 LINE",
"113 446 OFFCURVE",
"175 466 OFFCURVE",
"231 466 CURVE SMOOTH",
"329 466 OFFCURVE",
"388 425 OFFCURVE",
"388 323 CURVE SMOOTH",
"388 71 LINE",
"392 0 LINE"
);
},
{
closed = 1;
nodes = (
"283 -10 OFFCURVE",
"351 20 OFFCURVE",
"396 65 CURVE",
"396 86 LINE",
"340 34 OFFCURVE",
"280 10 OFFCURVE",
"216 10 CURVE SMOOTH",
"129 10 OFFCURVE",
"76 48 OFFCURVE",
"76 112 CURVE SMOOTH",
"76 202 OFFCURVE",
"179 245 OFFCURVE",
"396 245 CURVE",
"396 266 LINE",
"176 266 OFFCURVE",
"55 211 OFFCURVE",
"55 108 CURVE SMOOTH",
"55 35 OFFCURVE",
"114 -10 OFFCURVE",
"212 -10 CURVE SMOOTH"
);
}
);
};
layerId = "0B2E441B-685E-400D-9B9B-E078DEED62EF";
paths = (
{
closed = 1;
nodes = (
"399 0 LINE",
"399 327 LINE SMOOTH",
"399 428 OFFCURVE",
"341 486 OFFCURVE",
"242 486 CURVE SMOOTH",
"186 486 OFFCURVE",
"125 467 OFFCURVE",
"78 434 CURVE",
"83 420 LINE",
"124 450 OFFCURVE",
"181 468 OFFCURVE",
"236 468 CURVE SMOOTH",
"330 468 OFFCURVE",
"378 417 OFFCURVE",
"378 323 CURVE SMOOTH",
"378 71 LINE",
"382 0 LINE"
);
},
{
closed = 1;
nodes = (
"276 -10 OFFCURVE",
"340 19 OFFCURVE",
"386 68 CURVE",
"386 86 LINE",
"333 35 OFFCURVE",
"281 8 OFFCURVE",
"212 8 CURVE SMOOTH",
"129 8 OFFCURVE",
"81 48 OFFCURVE",
"81 111 CURVE SMOOTH",
"81 202 OFFCURVE",
"181 247 OFFCURVE",
"386 247 CURVE",
"386 265 LINE",
"177 265 OFFCURVE",
"60 209 OFFCURVE",
"60 108 CURVE SMOOTH",
"60 37 OFFCURVE",
"117 -10 OFFCURVE",
"206 -10 CURVE SMOOTH"
);
}
);
width = 493;
},
{
anchors = (
{
name = bottom;
position = "{273, 0}";
},
{
name = ogonek;
position = "{444, 10}";
},
{
name = top;
position = "{263, 490}";
}
);
associatedMasterId = "51C2DFEF-3776-4D13-9284-96485B799B57";
layerId = "0BD7D1DF-9AF0-4E24-903B-F3445FDD045E";
name = "Dec 5 17, 23:16";
paths = (
{
closed = 1;
nodes = (
"494 0 LINE",
"494 282 LINE SMOOTH",
"494 422 OFFCURVE",
"412 500 OFFCURVE",
"264 500 CURVE SMOOTH",
"183 500 OFFCURVE",
"99 477 OFFCURVE",
"35 438 CURVE",
"73 321 LINE",
"125 345 OFFCURVE",
"181 359 OFFCURVE",
"225 359 CURVE SMOOTH",
"286 359 OFFCURVE",
"321 331 OFFCURVE",
"321 282 CURVE SMOOTH",
"321 129 LINE",
"369 0 LINE"
);
},
{
closed = 1;
nodes = (
"288 -10 OFFCURVE",
"360 43 OFFCURVE",
"421 155 CURVE",
"368 178 LINE",
"335 140 OFFCURVE",
"294 119 OFFCURVE",
"255 119 CURVE SMOOTH",
"221 119 OFFCURVE",
"202 133 OFFCURVE",
"202 157 CURVE SMOOTH",
"202 192 OFFCURVE",
"247 206 OFFCURVE",
"356 205 CURVE",
"356 299 LINE",
"154 300 OFFCURVE",
"28 232 OFFCURVE",
"28 123 CURVE SMOOTH",
"28 44 OFFCURVE",
"94 -10 OFFCURVE",
"192 -10 CURVE SMOOTH"
);
}
);
width = 543;
}
);
note = a;
unicode = 0061;
},
{
glyphname = ae;
layers = (
{
anchors = (
{
name = bottom;
position = "{420, 0}";
},
{
name = top;
position = "{420, 482}";
}
);
layerId = "F333AEC5-BB61-4D5E-9EDD-6124322D28F2";
paths = (
{
closed = 1;
nodes = (
"426 224 LINE",
"426 326 LINE SMOOTH",
"426 434 OFFCURVE",
"364 492 OFFCURVE",
"249 492 CURVE SMOOTH",
"185 492 OFFCURVE",
"125 474 OFFCURVE",
"61 436 CURVE",
"79 378 LINE",
"136 407 OFFCURVE",
"182 420 OFFCURVE",
"232 420 CURVE SMOOTH",
"316 420 OFFCURVE",
"364 384 OFFCURVE",
"364 313 CURVE SMOOTH",
"364 224 LINE"
);
},
{
closed = 1;
nodes = (
"324 -10 OFFCURVE",
"412 62 OFFCURVE",
"428 169 CURVE",
"399 183 LINE",
"383 108 OFFCURVE",
"318 60 OFFCURVE",
"234 60 CURVE SMOOTH",
"170 60 OFFCURVE",
"129 89 OFFCURVE",
"129 134 CURVE SMOOTH",
"129 196 OFFCURVE",
"203 219 OFFCURVE",
"371 219 CURVE",
"371 279 LINE",
"164 279 OFFCURVE",
"49 225 OFFCURVE",
"49 120 CURVE SMOOTH",
"49 42 OFFCURVE",
"113 -10 OFFCURVE",
"210 -10 CURVE SMOOTH"
);
},
{
closed = 1;
nodes = (
"663 -10 OFFCURVE",
"711 1 OFFCURVE",
"767 26 CURVE",
"749 84 LINE",
"703 65 OFFCURVE",
"662 55 OFFCURVE",
"621 55 CURVE SMOOTH",
"510 55 OFFCURVE",
"434 130 OFFCURVE",
"434 255 CURVE SMOOTH",
"434 364 OFFCURVE",
"491 424 OFFCURVE",
"579 424 CURVE SMOOTH",
"661 424 OFFCURVE",
"709 371 OFFCURVE",
"709 279 CURVE",
"428 279 LINE",
"428 219 LINE",
"780 219 LINE",
"782 234 OFFCURVE",
"784 269 OFFCURVE",
"784 288 CURVE SMOOTH",
"784 409 OFFCURVE",
"704 492 OFFCURVE",
"585 492 CURVE SMOOTH",
"451 492 OFFCURVE",
"360 388 OFFCURVE",
"360 236 CURVE SMOOTH",
"360 82 OFFCURVE",
"453 -10 OFFCURVE",
"609 -10 CURVE SMOOTH"
);
}
);
width = 837;
},
{
anchors = (
{
name = bottom;
position = "{405, 0}";
},
{
name = top;
position = "{405, 490}";
}
);
layerId = "51C2DFEF-3776-4D13-9284-96485B799B57";
paths = (
{
closed = 1;
nodes = (
"454 255 LINE",
"454 282 LINE SMOOTH",
"454 429 OFFCURVE",
"391 500 OFFCURVE",
"261 500 CURVE SMOOTH",
"183 500 OFFCURVE",
"99 477 OFFCURVE",
"35 438 CURVE",
"73 321 LINE",
"125 345 OFFCURVE",
"181 359 OFFCURVE",
"225 359 CURVE SMOOTH",
"286 359 OFFCURVE",
"321 331 OFFCURVE",
"321 282 CURVE SMOOTH",
"321 255 LINE"
);
},
{
closed = 1;
nodes = (
"290 -10 OFFCURVE",
"362 43 OFFCURVE",
"423 155 CURVE",
"370 178 LINE",
"337 140 OFFCURVE",
"296 119 OFFCURVE",
"257 119 CURVE SMOOTH",
"223 119 OFFCURVE",
"204 133 OFFCURVE",
"204 157 CURVE SMOOTH",
"204 192 OFFCURVE",
"249 206 OFFCURVE",
"358 205 CURVE",
"358 299 LINE",
"152 300 OFFCURVE",
"30 236 OFFCURVE",
"30 126 CURVE SMOOTH",
"30 44 OFFCURVE",
"96 -10 OFFCURVE",
"194 -10 CURVE SMOOTH"
);
},
{
closed = 1;
nodes = (
"642 -10 OFFCURVE",
"705 1 OFFCURVE",
"767 22 CURVE",
"728 141 LINE",
"688 127 OFFCURVE",
"648 120 OFFCURVE",
"611 120 CURVE SMOOTH",
"515 120 OFFCURVE",
"472 165 OFFCURVE",
"472 263 CURVE SMOOTH",
"472 334 OFFCURVE",
"495 369 OFFCURVE",
"541 369 CURVE SMOOTH",
"582 369 OFFCURVE",
"606 343 OFFCURVE",
"606 299 CURVE",
"446 299 LINE",
"446 199 LINE",
"769 199 LINE",
"773 215 OFFCURVE",
"776 244 OFFCURVE",
"776 271 CURVE SMOOTH",
"776 415 OFFCURVE",
"693 500 OFFCURVE",
"553 500 CURVE SMOOTH",
"408 500 OFFCURVE",
"326 408 OFFCURVE",
"326 245 CURVE SMOOTH",
"326 77 OFFCURVE",
"413 -10 OFFCURVE",
"582 -10 CURVE SMOOTH"
);
}
);
width = 812;
},
{
anchors = (
{
name = bottom;
position = "{420, 0}";
},
{
name = top;
position = "{420, 480}";
}
);
layerId = "0B2E441B-685E-400D-9B9B-E078DEED62EF";
paths = (
{
closed = 1;
nodes = (
"403 239 LINE",
"403 327 LINE SMOOTH",
"403 429 OFFCURVE",
"346 486 OFFCURVE",
"244 486 CURVE SMOOTH",
"178 486 OFFCURVE",
"109 463 OFFCURVE",
"63 426 CURVE",
"68 412 LINE",
"113 447 OFFCURVE",
"176 468 OFFCURVE",
"238 468 CURVE SMOOTH",
"335 468 OFFCURVE",
"388 416 OFFCURVE",
"388 322 CURVE SMOOTH",
"388 239 LINE"
);
},
{
closed = 1;
nodes = (
"310 -10 OFFCURVE",
"394 55 OFFCURVE",
"411 154 CURVE",
"400 162 LINE",
"386 73 OFFCURVE",
"311 8 OFFCURVE",
"211 8 CURVE SMOOTH",
"133 8 OFFCURVE",
"81 48 OFFCURVE",
"81 112 CURVE SMOOTH",
"81 202 OFFCURVE",
"184 244 OFFCURVE",
"396 244 CURVE",
"396 262 LINE",
"180 262 OFFCURVE",
"60 210 OFFCURVE",
"60 109 CURVE SMOOTH",
"60 37 OFFCURVE",
"120 -10 OFFCURVE",
"207 -10 CURVE SMOOTH"
);
},
{
closed = 1;
nodes = (
"670 -10 OFFCURVE",
"717 5 OFFCURVE",
"758 37 CURVE",
"753 51 LINE",
"711 21 OFFCURVE",
"667 6 OFFCURVE",
"615 6 CURVE SMOOTH",
"490 6 OFFCURVE",
"408 93 OFFCURVE",
"408 241 CURVE SMOOTH",
"408 376 OFFCURVE",
"477 468 OFFCURVE",
"587 468 CURVE SMOOTH",
"695 468 OFFCURVE",
"758 380 OFFCURVE",
"758 261 CURVE",
"397 261 LINE",
"397 244 LINE",
"778 244 LINE",
"779 251 OFFCURVE",
"779 256 OFFCURVE",
"779 264 CURVE SMOOTH",
"779 388 OFFCURVE",
"706 486 OFFCURVE",
"589 486 CURVE SMOOTH",
"471 486 OFFCURVE",
"388 386 OFFCURVE",
"388 239 CURVE SMOOTH",
"388 87 OFFCURVE",
"476 -10 OFFCURVE",
"615 -10 CURVE SMOOTH"
);
}
);
width = 841;
}
);
leftMetricsKey = a;
rightMetricsKey = e;
unicode = 00E6;
},
{
glyphname = b;
layers = (
{
anchors = (
{
name = bottom;
position = "{301, 0}";
},
{
name = top;
position = "{301, 490}";
}
);
layerId = "51C2DFEF-3776-4D13-9284-96485B799B57";
paths = (
{
closed = 1;
nodes = (
"172 0 LINE",
"232 120 LINE",
"232 739 LINE",
"62 739 LINE",
"62 0 LINE"
);
},
{
closed = 1;
nodes = (
"476 -10 OFFCURVE",
"567 94 OFFCURVE",
"567 249 CURVE SMOOTH",
"567 400 OFFCURVE",
"482 500 OFFCURVE",
"358 500 CURVE SMOOTH",
"272 500 OFFCURVE",
"208 452 OFFCURVE",
"176 371 CURVE",
"223 318 LINE",
"239 348 OFFCURVE",
"266 356 OFFCURVE",
"301 356 CURVE SMOOTH",
"357 356 OFFCURVE",
"391 313 OFFCURVE",
"391 242 CURVE SMOOTH",
"391 174 OFFCURVE",
"360 134 OFFCURVE",
"308 134 CURVE SMOOTH",
"271 134 OFFCURVE",
"240 151 OFFCURVE",
"223 183 CURVE",
"174 98 LINE",
"203 27 OFFCURVE",
"259 -10 OFFCURVE",
"340 -10 CURVE SMOOTH"
);
}
);
width = 597;
},
{
anchors = (
{
name = bottom;
position = "{308, 0}";
},
{
name = top;
position = "{308, 490}";
}
);
associatedMasterId = "51C2DFEF-3776-4D13-9284-96485B799B57";
layerId = "1A034D49-B1B2-466F-8B74-8C3808735FA2";
name = "Dec 4 17, 16:22";
paths = (
{
closed = 1;
nodes = (
"172 0 LINE",
"232 120 LINE",
"232 739 LINE",
"62 739 LINE",
"62 0 LINE"
);
},
{
closed = 1;
nodes = (
"488 -10 OFFCURVE",
"582 94 OFFCURVE",
"582 249 CURVE SMOOTH",
"582 400 OFFCURVE",
"494 500 OFFCURVE",
"364 500 CURVE SMOOTH",
"230 500 OFFCURVE",
"151 394 OFFCURVE",
"151 232 CURVE SMOOTH",
"151 73 OFFCURVE",
"218 -10 OFFCURVE",
"346 -10 CURVE SMOOTH"
);
},
{
closed = 1;
nodes = (
"250 134 OFFCURVE",
"207 178 OFFCURVE",
"207 246 CURVE SMOOTH",
"207 312 OFFCURVE",
"247 356 OFFCURVE",
"308 356 CURVE SMOOTH",
"369 356 OFFCURVE",
"406 313 OFFCURVE",
"406 242 CURVE SMOOTH",
"406 174 OFFCURVE",
"372 134 OFFCURVE",
"315 134 CURVE SMOOTH"
);
}
);
width = 612;
},
{
anchors = (
{
name = bottom;
position = "{274, 0}";
},
{
name = top;
position = "{274, 480}";
}
);
background = {
components = (
{
name = o;
transform = "{1, 0, 0, 1, -1, 0}";
}
);
};
layerId = "0B2E441B-685E-400D-9B9B-E078DEED62EF";
paths = (
{
closed = 1;
nodes = (
"118 0 LINE",
"121 64 LINE",
"121 739 LINE",
"102 739 LINE",
"102 0 LINE"
);
},
{
closed = 1;
nodes = (
"406 -10 OFFCURVE",
"491 90 OFFCURVE",
"491 240 CURVE SMOOTH",
"491 389 OFFCURVE",
"407 486 OFFCURVE",
"283 486 CURVE SMOOTH",
"200 486 OFFCURVE",
"140 444 OFFCURVE",
"107 375 CURVE",
"111 355 LINE",
"141 425 OFFCURVE",
"199 468 OFFCURVE",
"278 468 CURVE SMOOTH",
"394 468 OFFCURVE",
"470 378 OFFCURVE",
"470 237 CURVE SMOOTH",
"470 97 OFFCURVE",
"395 8 OFFCURVE",
"283 8 CURVE SMOOTH",
"203 8 OFFCURVE",
"142 53 OFFCURVE",
"112 126 CURVE",
"109 96 LINE",
"142 29 OFFCURVE",
"201 -10 OFFCURVE",
"281 -10 CURVE SMOOTH"
);
}
);
width = 562;
},
{
anchors = (
{
name = bottom;
position = "{285, 0}";
},
{
name = top;
position = "{285, 482}";
}
);
associatedMasterId = "F333AEC5-BB61-4D5E-9EDD-6124322D28F2";
background = {
components = (
{
name = o;
transform = "{1, 0, 0, 1, 4, 0}";
}
);
};
layerId = "F7EC75FB-1694-422C-A91F-B500BDDB4773";
name = "Dec 5 17, 11:38";
paths = (
{
closed = 1;
nodes = (
"141 0 LINE",
"165 56 LINE",
"165 739 LINE",
"85 739 LINE",
"85 0 LINE"
);
},
{
closed = 1;
nodes = (
"430 -10 OFFCURVE",
"520 94 OFFCURVE",
"520 250 CURVE SMOOTH",
"520 395 OFFCURVE",
"437 492 OFFCURVE",
"313 492 CURVE SMOOTH",
"244 492 OFFCURVE",
"179 462 OFFCURVE",
"138 410 CURVE",
"156 360 LINE",
"191 399 OFFCURVE",
"241 422 OFFCURVE",
"292 422 CURVE SMOOTH",
"382 422 OFFCURVE",
"440 350 OFFCURVE",
"440 240 CURVE SMOOTH",
"440 132 OFFCURVE",
"387 60 OFFCURVE",
"300 60 CURVE SMOOTH",
"228 60 OFFCURVE",
"168 107 OFFCURVE",
"151 178 CURVE",
"118 123 LINE",
"140 39 OFFCURVE",
"209 -10 OFFCURVE",
"296 -10 CURVE SMOOTH"
);
}
);
width = 574;
},
{
anchors = (
{
name = bottom;
position = "{285, 0}";
},
{
name = top;
position = "{285, 482}";
}
);
background = {
components = (
{
name = o;
transform = "{1, 0, 0, 1, 4, 0}";
}
);
};
layerId = "F333AEC5-BB61-4D5E-9EDD-6124322D28F2";
paths = (
{
closed = 1;
nodes = (
"141 0 LINE",
"165 56 LINE",
"165 739 LINE",
"85 739 LINE",
"85 0 LINE"
);
},
{
closed = 1;
nodes = (
"428 -10 OFFCURVE",
"520 93 OFFCURVE",
"520 247 CURVE SMOOTH",
"520 394 OFFCURVE",
"432 492 OFFCURVE",
"300 492 CURVE SMOOTH",
"208 492 OFFCURVE",
"141 445 OFFCURVE",
"109 364 CURVE",
"139 320 LINE",
"161 384 OFFCURVE",
"213 422 OFFCURVE",
"281 422 CURVE SMOOTH",
"377 422 OFFCURVE",
"440 346 OFFCURVE",
"440 235 CURVE SMOOTH",
"440 130 OFFCURVE",
"383 60 OFFCURVE",
"290 60 CURVE SMOOTH",
"223 60 OFFCURVE",
"171 96 OFFCURVE",
"145 155 CURVE",
"108 111 LINE",
"139 33 OFFCURVE",
"202 -10 OFFCURVE",
"290 -10 CURVE SMOOTH"
);
}
);
width = 573;
}
);
note = b;
unicode = 0062;
},
{
glyphname = c;
layers = (
{
anchors = (
{
name = bottom;
position = "{255, 0}";
},
{
name = top;
position = "{275, 482}";
}
);
layerId = "F333AEC5-BB61-4D5E-9EDD-6124322D28F2";
paths = (
{
closed = 1;
nodes = (
"339 -10 OFFCURVE",
"400 4 OFFCURVE",
"441 28 CURVE",
"423 86 LINE",
"382 67 OFFCURVE",
"335 56 OFFCURVE",
"297 56 CURVE SMOOTH",
"194 56 OFFCURVE",
"135 125 OFFCURVE",
"135 243 CURVE SMOOTH",
"135 359 OFFCURVE",
"193 422 OFFCURVE",
"297 422 CURVE SMOOTH",
"337 422 OFFCURVE",
"380 413 OFFCURVE",
"422 395 CURVE",
"441 460 LINE",
"396 481 OFFCURVE",
"347 492 OFFCURVE",
"298 492 CURVE SMOOTH",
"151 492 OFFCURVE",
"53 386 OFFCURVE",
"53 227 CURVE SMOOTH",
"53 78 OFFCURVE",
"137 -10 OFFCURVE",
"278 -10 CURVE SMOOTH"
);
}
);
width = 481;
},
{
anchors = (
{
name = bottom;
position = "{240, 0}";
},
{
name = top;
position = "{257, 490}";
}
);
layerId = "51C2DFEF-3776-4D13-9284-96485B799B57";
paths = (
{
closed = 1;
nodes = (
"362 -10 OFFCURVE",
"414 2 OFFCURVE",
"466 28 CURVE",
"428 145 LINE",
"400 134 OFFCURVE",
"369 128 OFFCURVE",
"337 128 CURVE SMOOTH",
"252 128 OFFCURVE",
"204 171 OFFCURVE",
"204 248 CURVE SMOOTH",
"204 317 OFFCURVE",
"244 356 OFFCURVE",
"317 356 CURVE SMOOTH",
"350 356 OFFCURVE",
"392 348 OFFCURVE",
"427 335 CURVE",
"464 472 LINE",
"413 491 OFFCURVE",
"366 500 OFFCURVE",
"314 500 CURVE SMOOTH",
"138 500 OFFCURVE",
"28 398 OFFCURVE",
"28 236 CURVE SMOOTH",
"28 81 OFFCURVE",
"129 -10 OFFCURVE",
"300 -10 CURVE SMOOTH"
);
}
);
width = 490;
},
{
anchors = (
{
name = bottom;
position = "{237, 0}";
},
{
name = top;
position = "{253, 480}";
}
);
layerId = "0B2E441B-685E-400D-9B9B-E078DEED62EF";
paths = (
{
closed = 1;
nodes = (
"331 -10 OFFCURVE",
"383 4 OFFCURVE",
"425 28 CURVE",
"420 42 LINE",
"375 18 OFFCURVE",
"328 6 OFFCURVE",
"286 6 CURVE SMOOTH",
"169 6 OFFCURVE",
"93 98 OFFCURVE",
"93 241 CURVE SMOOTH",
"93 384 OFFCURVE",
"168 468 OFFCURVE",
"294 468 CURVE SMOOTH",
"340 468 OFFCURVE",
"381 457 OFFCURVE",
"420 436 CURVE",
"427 452 LINE",
"385 475 OFFCURVE",
"343 486 OFFCURVE",
"296 486 CURVE SMOOTH",
"157 486 OFFCURVE",
"72 391 OFFCURVE",
"72 236 CURVE SMOOTH",
"72 85 OFFCURVE",
"153 -10 OFFCURVE",
"282 -10 CURVE SMOOTH"
);
}
);
width = 476;
}
);
note = c;
unicode = 0063;
},
{
glyphname = d;
layers = (
{
anchors = (
{
name = bottom;
position = "{289, 0}";
},
{
name = center;
position = "{405, 592}";
},
{
name = top;
position = "{289, 480}";
},
{
name = topright;
position = "{544, 480}";
}
);
layerId = "0B2E441B-685E-400D-9B9B-E078DEED62EF";
paths = (
{
closed = 1;
nodes = (
"460 0 LINE",
"460 739 LINE",
"441 739 LINE",
"441 64 LINE",
"444 0 LINE"
);
},
{
closed = 1;
nodes = (
"353 -10 OFFCURVE",
"410 23 OFFCURVE",
"446 85 CURVE",
"443 106 LINE",
"411 44 OFFCURVE",
"355 8 OFFCURVE",
"284 8 CURVE SMOOTH",
"167 8 OFFCURVE",
"92 101 OFFCURVE",
"92 239 CURVE SMOOTH",
"92 374 OFFCURVE",
"164 468 OFFCURVE",
"279 468 CURVE SMOOTH",
"353 468 OFFCURVE",
"411 431 OFFCURVE",
"443 367 CURVE",
"447 396 LINE",
"413 454 OFFCURVE",
"357 486 OFFCURVE",
"284 486 CURVE SMOOTH",
"156 486 OFFCURVE",
"71 386 OFFCURVE",
"71 237 CURVE SMOOTH",
"71 89 OFFCURVE",
"155 -10 OFFCURVE",
"282 -10 CURVE SMOOTH"
);
}
);
width = 562;
},
{
anchors = (
{
name = bottom;
position = "{294, 0}";
},
{
name = center;
position = "{423, 600}";
},
{
name = top;
position = "{298, 490}";
},
{
name = topright;
position = "{636, 490}";
}
);
layerId = "51C2DFEF-3776-4D13-9284-96485B799B57";
paths = (
{
closed = 1;
nodes = (
"536 0 LINE",
"536 739 LINE",
"366 739 LINE",
"366 120 LINE",
"426 0 LINE"
);
},
{
closed = 1;
nodes = (
"309 -10 OFFCURVE",
"367 25 OFFCURVE",
"403 85 CURVE",
"374 179 LINE",
"357 151 OFFCURVE",
"328 134 OFFCURVE",
"293 134 CURVE SMOOTH",
"240 134 OFFCURVE",
"207 179 OFFCURVE",
"207 248 CURVE SMOOTH",
"207 316 OFFCURVE",
"239 356 OFFCURVE",
"291 356 CURVE SMOOTH",
"327 356 OFFCURVE",
"358 338 OFFCURVE",
"375 308 CURVE",
"411 416 LINE",
"380 472 OFFCURVE",
"328 500 OFFCURVE",
"260 500 CURVE SMOOTH",
"123 500 OFFCURVE",
"31 397 OFFCURVE",
"31 242 CURVE SMOOTH",
"31 91 OFFCURVE",
"115 -10 OFFCURVE",
"240 -10 CURVE SMOOTH"
);
}
);
width = 598;
},
{
anchors = (
{
name = bottom;
position = "{305, 0}";
},
{
name = center;
position = "{431, 600}";
},
{
name = top;
position = "{305, 490}";
},
{
name = topright;
position = "{613, 490}";
}
);
associatedMasterId = "51C2DFEF-3776-4D13-9284-96485B799B57";
layerId = "13E31E58-1E9F-497D-901E-0D85436F055C";
name = "Dec 4 17, 16:24";
paths = (
{
closed = 1;
nodes = (
"550 0 LINE",
"550 739 LINE",
"380 739 LINE",
"380 120 LINE",
"440 0 LINE"
);
},
{
closed = 1;
nodes = (
"125 500 OFFCURVE",
"30 397 OFFCURVE",
"30 242 CURVE SMOOTH",
"30 91 OFFCURVE",
"117 -10 OFFCURVE",
"247 -10 CURVE SMOOTH",
"375 -10 OFFCURVE",
"461 96 OFFCURVE",
"461 255 CURVE SMOOTH",
"461 414 OFFCURVE",
"395 500 OFFCURVE",
"267 500 CURVE SMOOTH"
);
},
{
closed = 1;
nodes = (
"362 356 OFFCURVE",
"405 311 OFFCURVE",
"405 244 CURVE SMOOTH",
"405 178 OFFCURVE",
"363 134 OFFCURVE",
"300 134 CURVE SMOOTH",
"242 134 OFFCURVE",
"206 178 OFFCURVE",
"206 248 CURVE SMOOTH",
"206 316 OFFCURVE",
"240 356 OFFCURVE",
"298 356 CURVE SMOOTH"
);
}
);
width = 612;
},
{
anchors = (
{
name = bottom;
position = "{288, 0}";
},
{
name = center;
position = "{413, 608}";
},
{
name = top;
position = "{288, 482}";
},
{
name = topright;
position = "{566, 482}";
}
);
associatedMasterId = "F333AEC5-BB61-4D5E-9EDD-6124322D28F2";
layerId = "4951A4C1-705E-4CAF-9EC5-1BC43231933B";
name = "Dec 5 17, 11:44";
paths = (
{
closed = 1;
nodes = (
"488 0 LINE",
"488 739 LINE",
"408 739 LINE",
"408 56 LINE",
"432 0 LINE"
);
},
{
closed = 1;
nodes = (
"337 -10 OFFCURVE",
"401 22 OFFCURVE",
"454 83 CURVE",
"435 133 LINE",
"390 84 OFFCURVE",
"341 60 OFFCURVE",
"288 60 CURVE SMOOTH",
"195 60 OFFCURVE",
"134 135 OFFCURVE",
"134 250 CURVE SMOOTH",
"134 356 OFFCURVE",
"188 422 OFFCURVE",
"275 422 CURVE SMOOTH",
"346 422 OFFCURVE",
"406 378 OFFCURVE",
"422 313 CURVE",
"454 376 LINE",
"428 451 OFFCURVE",
"368 492 OFFCURVE",
"284 492 CURVE SMOOTH",
"146 492 OFFCURVE",
"54 389 OFFCURVE",
"54 235 CURVE SMOOTH",
"54 88 OFFCURVE",
"139 -10 OFFCURVE",
"266 -10 CURVE SMOOTH"
);
}
);
width = 573;
},
{
anchors = (
{
name = bottom;
position = "{289, 0}";
},
{
name = center;
position = "{414, 598}";
},
{
name = top;
position = "{289, 482}";
},
{
name = topright;
position = "{570, 482}";
}
);
layerId = "F333AEC5-BB61-4D5E-9EDD-6124322D28F2";
paths = (
{
closed = 1;
nodes = (
"489 0 LINE",
"489 739 LINE",
"409 739 LINE",
"409 56 LINE",
"433 0 LINE"
);
},
{
closed = 1;
nodes = (
"350 -10 OFFCURVE",
"413 30 OFFCURVE",
"450 96 CURVE",
"421 132 LINE",
"394 87 OFFCURVE",
"349 60 OFFCURVE",
"292 60 CURVE SMOOTH",
"196 60 OFFCURVE",
"134 135 OFFCURVE",
"134 246 CURVE SMOOTH",
"134 352 OFFCURVE",
"190 422 OFFCURVE",
"283 422 CURVE SMOOTH",
"344 422 OFFCURVE",
"392 394 OFFCURVE",
"420 346 CURVE",
"457 390 LINE",
"422 455 OFFCURVE",
"360 492 OFFCURVE",
"280 492 CURVE SMOOTH",
"144 492 OFFCURVE",
"54 390 OFFCURVE",
"54 237 CURVE SMOOTH",
"54 89 OFFCURVE",
"140 -10 OFFCURVE",
"269 -10 CURVE SMOOTH"
);
}
);
width = 574;
}
);
note = d;
unicode = 0064;
},
{
glyphname = eth;
layers = (
{
layerId = "F333AEC5-BB61-4D5E-9EDD-6124322D28F2";
paths = (
{
closed = 1;
nodes = (
"413 -9 OFFCURVE",
"496 94 OFFCURVE",
"496 273 CURVE SMOOTH",
"496 499 OFFCURVE",
"378 662 OFFCURVE",
"152 748 CURVE",
"132 688 LINE",
"316 609 OFFCURVE",
"424 467 OFFCURVE",
"424 305 CURVE",
"446 327 LINE",
"414 404 OFFCURVE",
"347 449 OFFCURVE",
"262 449 CURVE SMOOTH",
"135 449 OFFCURVE",
"51 355 OFFCURVE",
"51 215 CURVE SMOOTH",
"51 81 OFFCURVE",
"138 -9 OFFCURVE",
"268 -9 CURVE SMOOTH"
);
},
{
closed = 1;
nodes = (
"187 61 OFFCURVE",
"131 126 OFFCURVE",
"131 230 CURVE SMOOTH",
"131 325 OFFCURVE",
"178 379 OFFCURVE",
"261 379 CURVE SMOOTH",
"355 379 OFFCURVE",
"418 313 OFFCURVE",
"418 213 CURVE SMOOTH",
"418 121 OFFCURVE",
"361 61 OFFCURVE",
"276 61 CURVE SMOOTH"
);
},
{
closed = 1;
nodes = (
"422 683 LINE",
"397 729 LINE",
"137 593 LINE",
"162 547 LINE"
);
}
);
width = 558;
},
{
layerId = "51C2DFEF-3776-4D13-9284-96485B799B57";
paths = (
{
closed = 1;
nodes = (
"435 -9 OFFCURVE",
"533 101 OFFCURVE",
"533 285 CURVE SMOOTH",
"533 494 OFFCURVE",
"401 654 OFFCURVE",
"149 750 CURVE",
"102 626 LINE",
"274 542 OFFCURVE",
"376 446 OFFCURVE",
"376 367 CURVE",
"463 282 LINE",
"463 372 OFFCURVE",
"371 447 OFFCURVE",
"252 447 CURVE SMOOTH",
"116 447 OFFCURVE",
"25 354 OFFCURVE",
"25 215 CURVE SMOOTH",
"25 81 OFFCURVE",
"124 -9 OFFCURVE",
"272 -9 CURVE SMOOTH"
);
},
{
closed = 1;
nodes = (
"236 131 OFFCURVE",
"202 168 OFFCURVE",
"202 224 CURVE SMOOTH",
"202 276 OFFCURVE",
"231 307 OFFCURVE",
"280 307 CURVE SMOOTH",
"330 307 OFFCURVE",
"363 270 OFFCURVE",
"363 215 CURVE SMOOTH",
"363 164 OFFCURVE",
"332 131 OFFCURVE",
"286 131 CURVE SMOOTH"
);
},
{
closed = 1;
nodes = (
"470 653 LINE",
"419 739 LINE",
"115 555 LINE",
"166 469 LINE"
);
}
);
width = 571;
},
{
layerId = "0B2E441B-685E-400D-9B9B-E078DEED62EF";
paths = (
{
closed = 1;
nodes = (
"401 -9 OFFCURVE",
"476 86 OFFCURVE",
"476 249 CURVE SMOOTH",
"476 488 OFFCURVE",
"351 687 OFFCURVE",
"161 744 CURVE",
"155 728 LINE",
"342 667 OFFCURVE",
"463 471 OFFCURVE",
"457 237 CURVE",
"459 317 LINE",
"433 400 OFFCURVE",
"364 449 OFFCURVE",
"274 449 CURVE SMOOTH",
"151 449 OFFCURVE",
"69 357 OFFCURVE",
"69 221 CURVE SMOOTH",
"69 83 OFFCURVE",
"157 -9 OFFCURVE",
"278 -9 CURVE SMOOTH"
);
},
{
closed = 1;
nodes = (
"170 9 OFFCURVE",
"90 94 OFFCURVE",
"90 226 CURVE SMOOTH",
"90 351 OFFCURVE",
"160 431 OFFCURVE",
"272 431 CURVE SMOOTH",
"381 431 OFFCURVE",
"456 355 OFFCURVE",
"456 221 CURVE SMOOTH",
"456 94 OFFCURVE",
"385 9 OFFCURVE",
"279 9 CURVE SMOOTH"
);
},
{
closed = 1;
nodes = (
"394 706 LINE",
"387 720 LINE",
"156 616 LINE",
"163 602 LINE"
);
}
);
width = 556;
}
);
unicode = 00F0;
},
{
glyphname = e;
layers = (
{
anchors = (
{
name = bottom;
position = "{287, 0}";
},
{
name = ogonek;
position = "{430, 10}";
},
{
name = top;
position = "{272, 482}";
}
);
layerId = "F333AEC5-BB61-4D5E-9EDD-6124322D28F2";
paths = (
{
closed = 1;
nodes = (
"356 -10 OFFCURVE",
"416 3 OFFCURVE",
"459 26 CURVE",
"441 84 LINE",
"404 66 OFFCURVE",
"357 55 OFFCURVE",
"315 55 CURVE SMOOTH",
"202 55 OFFCURVE",
"135 130 OFFCURVE",
"135 255 CURVE SMOOTH",
"135 364 OFFCURVE",
"184 424 OFFCURVE",
"272 424 CURVE SMOOTH",
"354 424 OFFCURVE",
"402 371 OFFCURVE",
"402 279 CURVE",
"121 279 LINE",
"121 219 LINE",
"473 219 LINE",
"475 234 OFFCURVE",
"477 269 OFFCURVE",
"477 288 CURVE SMOOTH",
"477 409 OFFCURVE",
"397 492 OFFCURVE",
"278 492 CURVE SMOOTH",
"144 492 OFFCURVE",
"53 388 OFFCURVE",
"53 236 CURVE SMOOTH",
"53 82 OFFCURVE",
"146 -10 OFFCURVE",
"298 -10 CURVE SMOOTH"
);
}
);
width = 530;
},
{
anchors = (
{
name = bottom;
position = "{275, 0}";
},
{
name = ogonek;
position = "{442, 10}";
},
{
name = top;
position = "{277, 490}";
}
);
layerId = "51C2DFEF-3776-4D13-9284-96485B799B57";
paths = (
{
closed = 1;
nodes = (
"374 -10 OFFCURVE",
"437 1 OFFCURVE",
"499 22 CURVE",
"461 139 LINE",
"420 125 OFFCURVE",
"381 118 OFFCURVE",
"341 118 CURVE SMOOTH",
"244 118 OFFCURVE",
"199 160 OFFCURVE",
"199 261 CURVE SMOOTH",
"199 337 OFFCURVE",
"227 373 OFFCURVE",
"274 373 CURVE SMOOTH",
"315 373 OFFCURVE",
"345 347 OFFCURVE",
"345 297 CURVE",
"178 297 LINE",
"178 197 LINE",
"501 197 LINE",
"505 222 OFFCURVE",
"508 247 OFFCURVE",
"508 273 CURVE SMOOTH",
"508 416 OFFCURVE",
"426 500 OFFCURVE",
"286 500 CURVE SMOOTH",
"131 500 OFFCURVE",
"28 398 OFFCURVE",
"28 244 CURVE SMOOTH",
"28 86 OFFCURVE",
"136 -10 OFFCURVE",
"314 -10 CURVE SMOOTH"
);
}
);
width = 544;
},
{
anchors = (
{
name = bottom;
position = "{263, 0}";
},
{
name = ogonek;
position = "{409, 10}";
},
{
name = top;
position = "{267, 480}";
}
);
layerId = "0B2E441B-685E-400D-9B9B-E078DEED62EF";
paths = (
{
closed = 1;
nodes = (
"348 -10 OFFCURVE",
"397 3 OFFCURVE",
"437 30 CURVE",
"432 44 LINE",
"389 19 OFFCURVE",
"344 6 OFFCURVE",
"298 6 CURVE SMOOTH",
"171 6 OFFCURVE",
"93 95 OFFCURVE",
"93 241 CURVE SMOOTH",
"93 382 OFFCURVE",
"160 468 OFFCURVE",
"270 468 CURVE SMOOTH",
"374 468 OFFCURVE",
"439 388 OFFCURVE",
"439 261 CURVE",
"81 261 LINE",
"81 244 LINE",
"459 244 LINE",
"460 251 OFFCURVE",
"460 256 OFFCURVE",
"460 264 CURVE SMOOTH",
"460 396 OFFCURVE",
"384 486 OFFCURVE",
"272 486 CURVE SMOOTH",
"151 486 OFFCURVE",
"71 387 OFFCURVE",
"71 239 CURVE SMOOTH",
"71 87 OFFCURVE",
"159 -10 OFFCURVE",
"296 -10 CURVE SMOOTH"
);
}
);
width = 522;
}
);
note = e;
unicode = 0065;
},
{
glyphname = f;
layers = (
{
anchors = (
{
name = bottom;
position = "{140, 0}";
},
{
name = top;
position = "{267, 739}";
}
);
layerId = "F333AEC5-BB61-4D5E-9EDD-6124322D28F2";
paths = (
{
closed = 1;
nodes = (
"180 0 LINE",
"180 587 LINE SMOOTH",
"180 649 OFFCURVE",
"209 681 OFFCURVE",
"264 681 CURVE SMOOTH",
"290 681 OFFCURVE",
"323 674 OFFCURVE",
"348 662 CURVE",
"367 726 LINE",
"336 741 OFFCURVE",
"304 749 OFFCURVE",
"270 749 CURVE SMOOTH",
"168 749 OFFCURVE",
"100 680 OFFCURVE",
"100 577 CURVE SMOOTH",
"100 0 LINE"
);
},
{
closed = 1;
nodes = (
"330 415 LINE",
"330 482 LINE",
"28 482 LINE",
"28 415 LINE"
);
}
);
width = 358;
},
{
anchors = (
{
name = bottom;
position = "{176, 0}";
},
{
name = top;
position = "{324, 739}";
}
);
layerId = "51C2DFEF-3776-4D13-9284-96485B799B57";
paths = (
{
closed = 1;
nodes = (
"259 0 LINE",
"259 524 LINE SMOOTH",
"259 579 OFFCURVE",
"288 607 OFFCURVE",
"343 607 CURVE SMOOTH",
"367 607 OFFCURVE",
"393 602 OFFCURVE",
"420 589 CURVE",
"456 723 LINE",
"425 739 OFFCURVE",
"379 749 OFFCURVE",
"331 749 CURVE SMOOTH",
"184 749 OFFCURVE",
"86 653 OFFCURVE",
"86 508 CURVE SMOOTH",
"86 0 LINE"
);
},
{
closed = 1;
nodes = (
"394 355 LINE",
"394 490 LINE",
"15 490 LINE",
"15 355 LINE"
);
}
);
width = 402;
},
{
anchors = (
{
name = bottom;
position = "{117, 0}";
},
{
name = top;
position = "{221, 739}";
}
);
layerId = "0B2E441B-685E-400D-9B9B-E078DEED62EF";
paths = (
{
closed = 1;
nodes = (
"127 0 LINE",
"127 636 LINE SMOOTH",
"127 695 OFFCURVE",
"166 731 OFFCURVE",
"223 731 CURVE SMOOTH",
"250 731 OFFCURVE",
"279 723 OFFCURVE",
"298 711 CURVE",
"304 727 LINE",
"283 741 OFFCURVE",
"255 749 OFFCURVE",
"226 749 CURVE SMOOTH",
"159 749 OFFCURVE",
"107 702 OFFCURVE",
"107 631 CURVE SMOOTH",
"107 0 LINE"
);
},
{
closed = 1;
nodes = (
"286 463 LINE",
"286 480 LINE",
"35 480 LINE",
"35 463 LINE"
);
}
);
width = 301;
}
);
note = f;
unicode = 0066;
},
{
glyphname = g;
layers = (
{
anchors = (
{
name = bottom;
position = "{282, 0}";
},
{
name = top;
position = "{272, 480}";
}
);
layerId = "0B2E441B-685E-400D-9B9B-E078DEED62EF";
paths = (
{
closed = 1;
nodes = (
"387 -227 OFFCURVE",
"463 -160 OFFCURVE",
"463 -32 CURVE SMOOTH",
"463 482 LINE",
"447 482 LINE",
"442 408 LINE",
"442 -32 LINE SMOOTH",
"442 -150 OFFCURVE",
"378 -209 OFFCURVE",
"278 -209 CURVE SMOOTH",
"234 -209 OFFCURVE",
"187 -197 OFFCURVE",
"133 -167 CURVE",
"127 -184 LINE",
"180 -215 OFFCURVE",
"228 -227 OFFCURVE",
"276 -227 CURVE SMOOTH"
);
},
{
closed = 1;
nodes = (
"353 -10 OFFCURVE",
"410 23 OFFCURVE",
"446 85 CURVE",
"443 106 LINE",
"411 44 OFFCURVE",
"355 8 OFFCURVE",
"284 8 CURVE SMOOTH",
"167 8 OFFCURVE",
"92 101 OFFCURVE",
"92 239 CURVE SMOOTH",
"92 374 OFFCURVE",
"164 468 OFFCURVE",
"279 468 CURVE SMOOTH",
"353 468 OFFCURVE",
"411 431 OFFCURVE",
"443 367 CURVE",
"447 396 LINE",
"413 454 OFFCURVE",
"357 486 OFFCURVE",
"284 486 CURVE SMOOTH",
"156 486 OFFCURVE",
"71 386 OFFCURVE",
"71 237 CURVE SMOOTH",
"71 89 OFFCURVE",
"155 -10 OFFCURVE",
"282 -10 CURVE SMOOTH"
);
}
);
width = 565;
},
{
anchors = (
{
name = bottom;
position = "{304, 0}";
},
{
name = top;
position = "{274, 490}";
}
);
layerId = "51C2DFEF-3776-4D13-9284-96485B799B57";
paths = (
{
closed = 1;
nodes = (
"413 -227 OFFCURVE",
"535 -131 OFFCURVE",
"535 7 CURVE SMOOTH",
"535 490 LINE",
"410 490 LINE",
"365 370 LINE",
"365 7 LINE SMOOTH",
"365 -54 OFFCURVE",
"320 -89 OFFCURVE",
"243 -89 CURVE SMOOTH",
"199 -89 OFFCURVE",
"140 -77 OFFCURVE",
"100 -58 CURVE",
"65 -194 LINE",
"118 -215 OFFCURVE",
"179 -227 OFFCURVE",
"237 -227 CURVE SMOOTH"
);
},
{
closed = 1;
nodes = (
"324 -10 OFFCURVE",
"391 43 OFFCURVE",
"423 131 CURVE",
"378 184 LINE",
"363 153 OFFCURVE",
"332 134 OFFCURVE",
"292 134 CURVE SMOOTH",
"240 134 OFFCURVE",
"207 178 OFFCURVE",
"207 248 CURVE SMOOTH",
"207 316 OFFCURVE",
"238 356 OFFCURVE",
"290 356 CURVE SMOOTH",
"333 356 OFFCURVE",
"368 330 OFFCURVE",
"382 283 CURVE",
"427 383 LINE",
"402 460 OFFCURVE",
"344 500 OFFCURVE",
"259 500 CURVE SMOOTH",
"124 500 OFFCURVE",
"31 397 OFFCURVE",
"31 242 CURVE SMOOTH",
"31 91 OFFCURVE",
"115 -10 OFFCURVE",
"239 -10 CURVE SMOOTH"
);
}
);
width = 597;
},
{
anchors = (
{
name = bottom;
position = "{312, 0}";
},
{
name = top;
position = "{282, 490}";
}
);
associatedMasterId = "51C2DFEF-3776-4D13-9284-96485B799B57";
layerId = "DBC5549D-F033-4BEB-B6D8-73972BE49390";
name = "Dec 4 17, 16:29";
paths = (
{
closed = 1;
nodes = (
"425 -227 OFFCURVE",
"550 -131 OFFCURVE",
"550 7 CURVE SMOOTH",
"550 490 LINE",
"425 490 LINE",
"380 370 LINE",
"380 7 LINE SMOOTH",
"380 -54 OFFCURVE",
"333 -89 OFFCURVE",
"251 -89 CURVE SMOOTH",
"203 -89 OFFCURVE",
"142 -76 OFFCURVE",
"102 -58 CURVE",
"67 -194 LINE",
"122 -215 OFFCURVE",
"184 -227 OFFCURVE",
"245 -227 CURVE SMOOTH"
);
},
{
closed = 1;
nodes = (
"126 500 OFFCURVE",
"30 397 OFFCURVE",
"30 242 CURVE SMOOTH",
"30 91 OFFCURVE",
"117 -10 OFFCURVE",
"247 -10 CURVE SMOOTH",
"375 -10 OFFCURVE",
"461 100 OFFCURVE",
"461 265 CURVE SMOOTH",
"461 419 OFFCURVE",
"394 500 OFFCURVE",
"267 500 CURVE SMOOTH"
);
},
{
closed = 1;
nodes = (
"362 356 OFFCURVE",
"405 307 OFFCURVE",
"405 234 CURVE SMOOTH",
"405 174 OFFCURVE",
"363 134 OFFCURVE",
"300 134 CURVE SMOOTH",
"242 134 OFFCURVE",
"206 178 OFFCURVE",
"206 248 CURVE SMOOTH",
"206 316 OFFCURVE",
"240 356 OFFCURVE",
"298 356 CURVE SMOOTH"
);
}
);
width = 612;
},
{
anchors = (
{
name = bottom;
position = "{289, 0}";
},
{
name = top;
position = "{279, 482}";
}
);
associatedMasterId = "F333AEC5-BB61-4D5E-9EDD-6124322D28F2";
layerId = "ED4547CF-1F4C-46F3-BE44-9CBC0888F407";
name = "Dec 5 17, 11:45";
paths = (
{
closed = 1;
nodes = (
"393 -227 OFFCURVE",
"489 -136 OFFCURVE",
"489 14 CURVE SMOOTH",
"489 482 LINE",
"433 482 LINE",
"409 417 LINE",
"409 2 LINE SMOOTH",
"409 -109 OFFCURVE",
"357 -158 OFFCURVE",
"264 -158 CURVE SMOOTH",
"220 -158 OFFCURVE",
"179 -147 OFFCURVE",
"126 -126 CURVE",
"107 -191 LINE",
"157 -214 OFFCURVE",
"204 -227 OFFCURVE",
"256 -227 CURVE SMOOTH"
);
},
{
closed = 1;
nodes = (
"337 -10 OFFCURVE",
"401 22 OFFCURVE",
"454 83 CURVE",
"435 133 LINE",
"390 84 OFFCURVE",
"341 60 OFFCURVE",
"288 60 CURVE SMOOTH",
"195 60 OFFCURVE",
"134 135 OFFCURVE",
"134 250 CURVE SMOOTH",
"134 356 OFFCURVE",
"188 422 OFFCURVE",
"275 422 CURVE SMOOTH",
"346 422 OFFCURVE",
"406 378 OFFCURVE",
"422 313 CURVE",
"454 376 LINE",
"428 451 OFFCURVE",
"368 492 OFFCURVE",
"284 492 CURVE SMOOTH",
"146 492 OFFCURVE",
"54 389 OFFCURVE",
"54 235 CURVE SMOOTH",
"54 88 OFFCURVE",
"139 -10 OFFCURVE",
"266 -10 CURVE SMOOTH"
);
}
);
width = 573;
},
{
anchors = (
{
name = bottom;
position = "{289, 0}";
},
{
name = top;
position = "{279, 482}";
}
);
layerId = "F333AEC5-BB61-4D5E-9EDD-6124322D28F2";
paths = (
{
closed = 1;
nodes = (
"393 -227 OFFCURVE",
"489 -136 OFFCURVE",
"489 14 CURVE SMOOTH",
"489 482 LINE",
"433 482 LINE",
"409 417 LINE",
"409 2 LINE SMOOTH",
"409 -109 OFFCURVE",
"357 -158 OFFCURVE",
"264 -158 CURVE SMOOTH",
"220 -158 OFFCURVE",
"179 -147 OFFCURVE",
"126 -126 CURVE",
"107 -191 LINE",
"157 -214 OFFCURVE",
"204 -227 OFFCURVE",
"256 -227 CURVE SMOOTH"
);
},
{
closed = 1;
nodes = (
"350 -10 OFFCURVE",
"413 30 OFFCURVE",
"450 96 CURVE",
"421 132 LINE",
"394 87 OFFCURVE",
"349 60 OFFCURVE",
"292 60 CURVE SMOOTH",
"196 60 OFFCURVE",
"134 135 OFFCURVE",
"134 246 CURVE SMOOTH",
"134 352 OFFCURVE",
"190 422 OFFCURVE",
"283 422 CURVE SMOOTH",
"344 422 OFFCURVE",
"392 394 OFFCURVE",
"420 346 CURVE",
"457 390 LINE",
"422 455 OFFCURVE",
"360 492 OFFCURVE",
"280 492 CURVE SMOOTH",
"144 492 OFFCURVE",
"54 390 OFFCURVE",
"54 237 CURVE SMOOTH",
"54 89 OFFCURVE",
"140 -10 OFFCURVE",
"269 -10 CURVE SMOOTH"
);
}
);
width = 573;
},
{
anchors = (
{
name = bottom;
position = "{312, 0}";
},
{
name = top;
position = "{282, 490}";
}
);
associatedMasterId = "51C2DFEF-3776-4D13-9284-96485B799B57";
layerId = "6C5FD576-6ACF-4677-8B79-717B3653633C";
name = "Dec 5 17, 23:39";
paths = (
{
closed = 1;
nodes = (
"425 -227 OFFCURVE",
"550 -131 OFFCURVE",
"550 7 CURVE SMOOTH",
"550 490 LINE",
"425 490 LINE",
"380 370 LINE",
"380 7 LINE SMOOTH",
"380 -54 OFFCURVE",
"333 -89 OFFCURVE",
"251 -89 CURVE SMOOTH",
"203 -89 OFFCURVE",
"142 -76 OFFCURVE",
"102 -58 CURVE",
"67 -194 LINE",
"122 -215 OFFCURVE",
"184 -227 OFFCURVE",
"245 -227 CURVE SMOOTH"
);
},
{
closed = 1;
nodes = (
"336 -10 OFFCURVE",
"405 43 OFFCURVE",
"438 131 CURVE",
"393 184 LINE",
"377 153 OFFCURVE",
"343 134 OFFCURVE",
"300 134 CURVE SMOOTH",
"242 134 OFFCURVE",
"206 178 OFFCURVE",
"206 248 CURVE SMOOTH",
"206 316 OFFCURVE",
"240 356 OFFCURVE",
"298 356 CURVE SMOOTH",
"346 356 OFFCURVE",
"382 328 OFFCURVE",
"397 283 CURVE",
"443 383 LINE",
"416 460 OFFCURVE",
"356 500 OFFCURVE",
"267 500 CURVE SMOOTH",
"126 500 OFFCURVE",
"30 397 OFFCURVE",
"30 242 CURVE SMOOTH",
"30 91 OFFCURVE",
"117 -10 OFFCURVE",
"247 -10 CURVE SMOOTH"
);
}
);
width = 612;
}
);
note = g;
unicode = 0067;
},
{
glyphname = h;
layers = (
{
anchors = (
{
name = bottom;
position = "{285, 0}";
},
{
name = center;
position = "{163, 593}";
},
{
name = top;
position = "{291, 739}";
}
);
layerId = "F333AEC5-BB61-4D5E-9EDD-6124322D28F2";
paths = (
{
closed = 1;
nodes = (
"165 0 LINE",
"165 739 LINE",
"85 739 LINE",
"85 0 LINE"
);
},
{
closed = 1;
nodes = (
"494 0 LINE",
"494 316 LINE SMOOTH",
"494 423 OFFCURVE",
"423 492 OFFCURVE",
"315 492 CURVE SMOOTH",
"245 492 OFFCURVE",
"176 462 OFFCURVE",
"125 403 CURVE",
"144 352 LINE",
"184 399 OFFCURVE",
"237 422 OFFCURVE",
"293 422 CURVE SMOOTH",
"371 422 OFFCURVE",
"414 378 OFFCURVE",
"414 300 CURVE SMOOTH",
"414 0 LINE"
);
}
);
width = 570;
},
{
anchors = (
{
name = bottom;
position = "{304, 0}";
},
{
name = center;
position = "{176, 595}";
},
{
name = top;
position = "{324, 739}";
}
);
layerId = "51C2DFEF-3776-4D13-9284-96485B799B57";
paths = (
{
closed = 1;
nodes = (
"235 0 LINE",
"235 739 LINE",
"62 739 LINE",
"62 0 LINE"
);
},
{
closed = 1;
nodes = (
"547 0 LINE",
"547 304 LINE SMOOTH",
"547 422 OFFCURVE",
"479 496 OFFCURVE",
"368 496 CURVE SMOOTH",
"298 496 OFFCURVE",
"238 465 OFFCURVE",
"198 398 CURVE",
"217 295 LINE",
"242 332 OFFCURVE",
"269 346 OFFCURVE",
"303 346 CURVE SMOOTH",
"353 346 OFFCURVE",
"374 320 OFFCURVE",
"374 265 CURVE SMOOTH",
"374 0 LINE"
);
}
);
width = 598;
},
{
anchors = (
{
name = bottom;
position = "{280, 0}";
},
{
name = center;
position = "{157, 592}";
},
{
name = top;
position = "{300, 739}";
}
);
layerId = "0B2E441B-685E-400D-9B9B-E078DEED62EF";
paths = (
{
closed = 1;
nodes = (
"122 0 LINE",
"122 739 LINE",
"102 739 LINE",
"102 0 LINE"
);
},
{
closed = 1;
nodes = (
"460 0 LINE",
"460 314 LINE SMOOTH",
"460 421 OFFCURVE",
"399 486 OFFCURVE",
"297 486 CURVE SMOOTH",
"224 486 OFFCURVE",
"154 452 OFFCURVE",
"107 394 CURVE",
"116 383 LINE",
"159 436 OFFCURVE",
"225 468 OFFCURVE",
"293 468 CURVE SMOOTH",
"385 468 OFFCURVE",
"439 411 OFFCURVE",
"439 314 CURVE SMOOTH",
"439 0 LINE"
);
}
);
width = 553;
}
);
note = h;
unicode = 0068;
},
{
glyphname = idotless;
layers = (
{
anchors = (
{
name = bottom;
position = "{125, 0}";
},
{
name = ogonek;
position = "{153, 10}";
},
{
name = top;
position = "{125, 482}";
}
);
layerId = "F333AEC5-BB61-4D5E-9EDD-6124322D28F2";
paths = (
{
closed = 1;
nodes = (
"165 0 LINE",
"165 482 LINE",
"85 482 LINE",
"85 0 LINE"
);
}
);
width = 250;
},
{
anchors = (
{
name = bottom;
position = "{149, 0}";
},
{
name = ogonek;
position = "{197, 10}";
},
{
name = top;
position = "{149, 490}";
}
);
layerId = "51C2DFEF-3776-4D13-9284-96485B799B57";
paths = (
{
closed = 1;
nodes = (
"235 0 LINE",
"235 490 LINE",
"62 490 LINE",
"62 0 LINE"
);
}
);
width = 297;
},
{
anchors = (
{
name = bottom;
position = "{112, 0}";
},
{
name = ogonek;
position = "{121, 10}";
},
{
name = top;
position = "{112, 480}";
}
);
layerId = "0B2E441B-685E-400D-9B9B-E078DEED62EF";
paths = (
{
closed = 1;
nodes = (
"123 0 LINE",
"123 480 LINE",
"102 480 LINE",
"102 0 LINE"
);
}
);
width = 225;
}
);
note = dotlessi;
unicode = 0131;
},
{
glyphname = jdotless;
layers = (
{
anchors = (
{
name = bottom;
position = "{126, 0}";
},
{
name = top;
position = "{126, 482}";
}
);
layerId = "F333AEC5-BB61-4D5E-9EDD-6124322D28F2";
paths = (
{
closed = 1;
nodes = (
"113 -187 OFFCURVE",
"166 -111 OFFCURVE",
"166 -23 CURVE SMOOTH",
"166 482 LINE",
"86 482 LINE",
"86 -35 LINE SMOOTH",
"86 -91 OFFCURVE",
"50 -148 OFFCURVE",
"-4 -179 CURVE",
"22 -227 LINE"
);
}
);
width = 251;
},
{
anchors = (
{
name = bottom;
position = "{139, 0}";
},
{
name = top;
position = "{149, 490}";
}
);
layerId = "51C2DFEF-3776-4D13-9284-96485B799B57";
paths = (
{
closed = 1;
nodes = (
"153 -186 OFFCURVE",
"235 -83 OFFCURVE",
"235 31 CURVE SMOOTH",
"235 490 LINE",
"62 490 LINE",
"62 31 LINE SMOOTH",
"62 -34 OFFCURVE",
"31 -95 OFFCURVE",
"-21 -133 CURVE",
"29 -227 LINE"
);
}
);
width = 297;
},
{
anchors = (
{
name = bottom;
position = "{113, 0}";
},
{
name = top;
position = "{113, 480}";
}
);
layerId = "0B2E441B-685E-400D-9B9B-E078DEED62EF";
paths = (
{
closed = 1;
nodes = (
"81 -194 OFFCURVE",
"124 -132 OFFCURVE",
"124 -67 CURVE SMOOTH",
"124 480 LINE",
"103 480 LINE",
"103 -67 LINE SMOOTH",
"103 -125 OFFCURVE",
"66 -181 OFFCURVE",
"10 -209 CURVE",
"17 -222 LINE"
);
}
);
width = 226;
}
);
note = uni0237;
unicode = 0237;
},
{
glyphname = k;
layers = (
{
anchors = (
{
name = bottom;
position = "{253, 0}";
},
{
name = top;
position = "{253, 482}";
}
);
layerId = "F333AEC5-BB61-4D5E-9EDD-6124322D28F2";
paths = (
{
closed = 1;
nodes = (
"165 0 LINE",
"165 739 LINE",
"85 739 LINE",
"85 0 LINE"
);
},
{
closed = 1;
nodes = (
"494 0 LINE",
"227 287 LINE",
"227 238 LINE",
"483 482 LINE",
"381 482 LINE",
"152 258 LINE",
"392 0 LINE"
);
}
);
width = 516;
},
{
anchors = (
{
name = bottom;
position = "{313, 0}";
},
{
name = top;
position = "{313, 490}";
}
);
layerId = "51C2DFEF-3776-4D13-9284-96485B799B57";
paths = (
{
closed = 1;
nodes = (
"235 0 LINE",
"235 739 LINE",
"62 739 LINE",
"62 0 LINE"
);
},
{
closed = 1;
nodes = (
"599 0 LINE",
"392 295 LINE",
"392 238 LINE",
"598 490 LINE",
"384 490 LINE",
"211 259 LINE",
"392 0 LINE"
);
}
);
width = 602;
},
{
anchors = (
{
name = bottom;
position = "{219, 0}";
},
{
name = top;
position = "{219, 480}";
}
);
layerId = "0B2E441B-685E-400D-9B9B-E078DEED62EF";
paths = (
{
closed = 1;
nodes = (
"122 0 LINE",
"122 739 LINE",
"102 739 LINE",
"102 0 LINE"
);
},
{
closed = 1;
nodes = (
"424 0 LINE",
"130 267 LINE",
"129 249 LINE",
"412 480 LINE",
"385 480 LINE",
"112 257 LINE",
"395 0 LINE"
);
}
);
width = 463;
}
);
note = k;
unicode = 006B;
},
{
glyphname = kgreenlandic;
layers = (
{
layerId = "F333AEC5-BB61-4D5E-9EDD-6124322D28F2";
paths = (
{
closed = 1;
nodes = (
"165 0 LINE",
"165 482 LINE",
"85 482 LINE",
"85 0 LINE"
);
},
{
closed = 1;
nodes = (
"494 0 LINE",
"227 287 LINE",
"227 233 LINE",
"483 482 LINE",
"381 482 LINE",
"152 258 LINE",
"392 0 LINE"
);
}
);
width = 516;
},
{
layerId = "51C2DFEF-3776-4D13-9284-96485B799B57";
paths = (
{
closed = 1;
nodes = (
"235 0 LINE",
"235 490 LINE",
"62 490 LINE",
"62 0 LINE"
);
},
{
closed = 1;
nodes = (
"599 0 LINE",
"392 295 LINE",
"392 238 LINE",
"598 490 LINE",
"384 490 LINE",
"211 259 LINE",
"392 0 LINE"
);
}
);
width = 602;
},
{
layerId = "0B2E441B-685E-400D-9B9B-E078DEED62EF";
paths = (
{
closed = 1;
nodes = (
"122 0 LINE",
"122 480 LINE",
"102 480 LINE",
"102 0 LINE"
);
},
{
closed = 1;
nodes = (
"424 0 LINE",
"130 267 LINE",
"129 249 LINE",
"412 480 LINE",
"385 480 LINE",
"112 257 LINE",
"395 0 LINE"
);
}
);
width = 463;
}
);
unicode = 0138;
},
{
glyphname = l;
layers = (
{
anchors = (
{
name = bottom;
position = "{165, 0}";
},
{
name = center;
position = "{144, 381}";
},
{
name = periodcentered;
position = "{295, 353}";
},
{
name = top;
position = "{122, 739}";
},
{
name = topright;
position = "{252, 482}";
}
);
layerId = "F333AEC5-BB61-4D5E-9EDD-6124322D28F2";
paths = (
{
closed = 1;
nodes = (
"228 -6 OFFCURVE",
"253 1 OFFCURVE",
"276 14 CURVE",
"258 69 LINE",
"247 62 OFFCURVE",
"230 57 OFFCURVE",
"214 57 CURVE SMOOTH",
"182 57 OFFCURVE",
"161 81 OFFCURVE",
"161 118 CURVE SMOOTH",
"161 739 LINE",
"81 739 LINE",
"81 108 LINE SMOOTH",
"81 41 OFFCURVE",
"131 -6 OFFCURVE",
"201 -6 CURVE SMOOTH"
);
}
);
width = 283;
},
{
anchors = (
{
name = bottom;
position = "{182, 0}";
},
{
name = center;
position = "{134, 377}";
},
{
name = periodcentered;
position = "{319, 363}";
},
{
name = top;
position = "{133, 739}";
},
{
name = topright;
position = "{323, 490}";
}
);
layerId = "51C2DFEF-3776-4D13-9284-96485B799B57";
paths = (
{
closed = 1;
nodes = (
"285 -8 OFFCURVE",
"326 2 OFFCURVE",
"352 21 CURVE",
"313 137 LINE",
"305 132 OFFCURVE",
"295 129 OFFCURVE",
"282 129 CURVE SMOOTH",
"241 129 OFFCURVE",
"221 153 OFFCURVE",
"221 201 CURVE SMOOTH",
"221 739 LINE",
"51 739 LINE",
"51 182 LINE SMOOTH",
"51 63 OFFCURVE",
"122 -8 OFFCURVE",
"241 -8 CURVE SMOOTH"
);
}
);
width = 342;
},
{
anchors = (
{
name = bottom;
position = "{148, 0}";
},
{
name = center;
position = "{131, 393}";
},
{
name = periodcentered;
position = "{278, 353}";
},
{
name = top;
position = "{109, 739}";
},
{
name = topright;
position = "{206, 480}";
}
);
layerId = "0B2E441B-685E-400D-9B9B-E078DEED62EF";
paths = (
{
closed = 1;
nodes = (
"192 -2 OFFCURVE",
"211 3 OFFCURVE",
"224 11 CURVE",
"219 25 LINE",
"208 18 OFFCURVE",
"193 14 OFFCURVE",
"179 14 CURVE SMOOTH",
"141 14 OFFCURVE",
"118 43 OFFCURVE",
"118 87 CURVE SMOOTH",
"118 739 LINE",
"98 739 LINE",
"98 83 LINE SMOOTH",
"98 32 OFFCURVE",
"128 -2 OFFCURVE",
"174 -2 CURVE SMOOTH"
);
}
);
width = 240;
}
);
note = l;
unicode = 006C;
},
{
glyphname = m;
layers = (
{
anchors = (
{
name = bottom;
position = "{445, 0}";
},
{
name = top;
position = "{445, 482}";
}
);
layerId = "F333AEC5-BB61-4D5E-9EDD-6124322D28F2";
paths = (
{
closed = 1;
nodes = (
"165 0 LINE",
"165 426 LINE",
"141 482 LINE",
"85 482 LINE",
"85 0 LINE"
);
},
{
closed = 1;
nodes = (
"489 0 LINE",
"489 316 LINE SMOOTH",
"489 423 OFFCURVE",
"419 492 OFFCURVE",
"313 492 CURVE SMOOTH",
"243 492 OFFCURVE",
"175 462 OFFCURVE",
"125 409 CURVE",
"144 358 LINE",
"183 399 OFFCURVE",
"235 422 OFFCURVE",
"290 422 CURVE SMOOTH",
"367 422 OFFCURVE",
"409 378 OFFCURVE",
"409 300 CURVE SMOOTH",
"409 0 LINE"
);
},
{
closed = 1;
nodes = (
"813 0 LINE",
"813 316 LINE SMOOTH",
"813 423 OFFCURVE",
"743 492 OFFCURVE",
"636 492 CURVE SMOOTH",
"567 492 OFFCURVE",
"499 462 OFFCURVE",
"449 409 CURVE",
"468 358 LINE",
"507 399 OFFCURVE",
"559 422 OFFCURVE",
"614 422 CURVE SMOOTH",
"691 422 OFFCURVE",
"733 378 OFFCURVE",
"733 300 CURVE SMOOTH",
"733 0 LINE"
);
}
);
width = 889;
},
{
anchors = (
{
name = bottom;
position = "{475, 0}";
},
{
name = top;
position = "{475, 490}";
}
);
layerId = "51C2DFEF-3776-4D13-9284-96485B799B57";
paths = (
{
closed = 1;
nodes = (
"235 0 LINE",
"235 376 LINE",
"187 490 LINE",
"62 490 LINE",
"62 0 LINE"
);
},
{
closed = 1;
nodes = (
"551 0 LINE",
"551 304 LINE SMOOTH",
"551 421 OFFCURVE",
"481 496 OFFCURVE",
"370 496 CURVE SMOOTH",
"299 496 OFFCURVE",
"234 465 OFFCURVE",
"193 408 CURVE",
"212 305 LINE",
"239 332 OFFCURVE",
"270 346 OFFCURVE",
"305 346 CURVE SMOOTH",
"369 346 OFFCURVE",
"379 302 OFFCURVE",
"379 265 CURVE SMOOTH",
"379 0 LINE"
);
},
{
closed = 1;
nodes = (
"868 0 LINE",
"868 304 LINE SMOOTH",
"868 422 OFFCURVE",
"797 496 OFFCURVE",
"687 496 CURVE SMOOTH",
"611 496 OFFCURVE",
"549 462 OFFCURVE",
"509 408 CURVE",
"529 305 LINE",
"556 332 OFFCURVE",
"586 346 OFFCURVE",
"622 346 CURVE SMOOTH",
"682 346 OFFCURVE",
"695 307 OFFCURVE",
"695 265 CURVE SMOOTH",
"695 0 LINE"
);
}
);
width = 919;
},
{
anchors = (
{
name = bottom;
position = "{447, 0}";
},
{
name = top;
position = "{447, 480}";
}
);
layerId = "0B2E441B-685E-400D-9B9B-E078DEED62EF";
paths = (
{
closed = 1;
nodes = (
"123 0 LINE",
"123 404 LINE",
"119 480 LINE",
"102 480 LINE",
"102 0 LINE"
);
},
{
closed = 1;
nodes = (
"450 0 LINE",
"450 314 LINE SMOOTH",
"450 424 OFFCURVE",
"389 486 OFFCURVE",
"291 486 CURVE SMOOTH",
"221 486 OFFCURVE",
"153 456 OFFCURVE",
"106 404 CURVE",
"114 393 LINE",
"159 440 OFFCURVE",
"223 468 OFFCURVE",
"287 468 CURVE SMOOTH",
"375 468 OFFCURVE",
"429 411 OFFCURVE",
"429 314 CURVE SMOOTH",
"429 0 LINE"
);
},
{
closed = 1;
nodes = (
"777 0 LINE",
"777 314 LINE SMOOTH",
"777 424 OFFCURVE",
"716 486 OFFCURVE",
"617 486 CURVE SMOOTH",
"547 486 OFFCURVE",
"479 454 OFFCURVE",
"431 399 CURVE",
"437 386 LINE",
"483 437 OFFCURVE",
"548 468 OFFCURVE",
"613 468 CURVE SMOOTH",
"702 468 OFFCURVE",
"756 411 OFFCURVE",
"756 314 CURVE SMOOTH",
"756 0 LINE"
);
}
);
width = 870;
}
);
note = m;
unicode = 006D;
},
{
glyphname = n;
layers = (
{
anchors = (
{
name = bottom;
position = "{288, 0}";
},
{
name = top;
position = "{288, 482}";
}
);
layerId = "F333AEC5-BB61-4D5E-9EDD-6124322D28F2";
paths = (
{
closed = 1;
nodes = (
"165 0 LINE",
"165 426 LINE",
"141 482 LINE",
"85 482 LINE",
"85 0 LINE"
);
},
{
closed = 1;
nodes = (
"494 0 LINE",
"494 316 LINE SMOOTH",
"494 423 OFFCURVE",
"423 492 OFFCURVE",
"315 492 CURVE SMOOTH",
"245 492 OFFCURVE",
"176 462 OFFCURVE",
"125 409 CURVE",
"144 358 LINE",
"184 399 OFFCURVE",
"237 422 OFFCURVE",
"293 422 CURVE SMOOTH",
"371 422 OFFCURVE",
"414 378 OFFCURVE",
"414 300 CURVE SMOOTH",
"414 0 LINE"
);
}
);
width = 570;
},
{
anchors = (
{
name = bottom;
position = "{304, 0}";
},
{
name = top;
position = "{304, 490}";
}
);
layerId = "51C2DFEF-3776-4D13-9284-96485B799B57";
paths = (
{
closed = 1;
nodes = (
"235 0 LINE",
"235 376 LINE",
"187 490 LINE",
"62 490 LINE",
"62 0 LINE"
);
},
{
closed = 1;
nodes = (
"547 0 LINE",
"547 304 LINE SMOOTH",
"547 422 OFFCURVE",
"479 496 OFFCURVE",
"371 496 CURVE SMOOTH",
"301 496 OFFCURVE",
"240 465 OFFCURVE",
"200 408 CURVE",
"219 305 LINE",
"244 332 OFFCURVE",
"272 346 OFFCURVE",
"306 346 CURVE SMOOTH",
"353 346 OFFCURVE",
"374 320 OFFCURVE",
"374 265 CURVE SMOOTH",
"374 0 LINE"
);
}
);
width = 599;
},
{
anchors = (
{
name = bottom;
position = "{280, 0}";
},
{
name = top;
position = "{276, 480}";
}
);
layerId = "0B2E441B-685E-400D-9B9B-E078DEED62EF";
paths = (
{
closed = 1;
nodes = (
"123 0 LINE",
"123 399 LINE",
"119 480 LINE",
"102 480 LINE",
"102 0 LINE"
);
},
{
closed = 1;
nodes = (
"460 0 LINE",
"460 314 LINE SMOOTH",
"460 421 OFFCURVE",
"400 486 OFFCURVE",
"294 486 CURVE SMOOTH",
"218 486 OFFCURVE",
"148 454 OFFCURVE",
"107 399 CURVE",
"116 388 LINE",
"150 436 OFFCURVE",
"220 468 OFFCURVE",
"291 468 CURVE SMOOTH",
"386 468 OFFCURVE",
"439 411 OFFCURVE",
"439 314 CURVE SMOOTH",
"439 0 LINE"
);
}
);
width = 553;
}
);
note = n;
unicode = 006E;
},
{
glyphname = eng;
layers = (
{
layerId = "F333AEC5-BB61-4D5E-9EDD-6124322D28F2";
paths = (
{
closed = 1;
nodes = (
"165 0 LINE",
"165 426 LINE",
"141 482 LINE",
"85 482 LINE",
"85 0 LINE"
);
},
{
closed = 1;
nodes = (
"494 0 LINE",
"494 316 LINE SMOOTH",
"494 423 OFFCURVE",
"423 492 OFFCURVE",
"315 492 CURVE SMOOTH",
"245 492 OFFCURVE",
"176 462 OFFCURVE",
"125 409 CURVE",
"144 358 LINE",
"184 399 OFFCURVE",
"237 422 OFFCURVE",
"293 422 CURVE SMOOTH",
"371 422 OFFCURVE",
"414 378 OFFCURVE",
"414 300 CURVE SMOOTH",
"414 0 LINE"
);
},
{
closed = 1;
nodes = (
"445 -194 OFFCURVE",
"494 -113 OFFCURVE",
"494 -23 CURVE SMOOTH",
"494 0 LINE",
"414 0 LINE",
"414 -35 LINE SMOOTH",
"414 -98 OFFCURVE",
"386 -155 OFFCURVE",
"344 -179 CURVE",
"371 -227 LINE"
);
}
);
width = 570;
},
{
layerId = "51C2DFEF-3776-4D13-9284-96485B799B57";
paths = (
{
closed = 1;
nodes = (
"235 0 LINE",
"235 376 LINE",
"187 490 LINE",
"62 490 LINE",
"62 0 LINE"
);
},
{
closed = 1;
nodes = (
"547 0 LINE",
"547 304 LINE SMOOTH",
"547 422 OFFCURVE",
"479 496 OFFCURVE",
"371 496 CURVE SMOOTH",
"301 496 OFFCURVE",
"240 465 OFFCURVE",
"200 408 CURVE",
"219 305 LINE",
"244 332 OFFCURVE",
"272 346 OFFCURVE",
"306 346 CURVE SMOOTH",
"353 346 OFFCURVE",
"374 320 OFFCURVE",
"374 265 CURVE SMOOTH",
"374 0 LINE"
);
},
{
closed = 1;
nodes = (
"478 -197 OFFCURVE",
"547 -111 OFFCURVE",
"547 -13 CURVE SMOOTH",
"547 0 LINE",
"374 0 LINE",
"374 -25 LINE SMOOTH",
"374 -70 OFFCURVE",
"352 -112 OFFCURVE",
"319 -131 CURVE",
"374 -227 LINE"
);
}
);
width = 599;
},
{
layerId = "0B2E441B-685E-400D-9B9B-E078DEED62EF";
paths = (
{
closed = 1;
nodes = (
"123 0 LINE",
"123 399 LINE",
"119 480 LINE",
"102 480 LINE",
"102 0 LINE"
);
},
{
closed = 1;
nodes = (
"460 0 LINE",
"460 314 LINE SMOOTH",
"460 421 OFFCURVE",
"400 486 OFFCURVE",
"294 486 CURVE SMOOTH",
"218 486 OFFCURVE",
"148 454 OFFCURVE",
"107 399 CURVE",
"116 388 LINE",
"150 436 OFFCURVE",
"220 468 OFFCURVE",
"291 468 CURVE SMOOTH",
"386 468 OFFCURVE",
"439 411 OFFCURVE",
"439 314 CURVE SMOOTH",
"439 0 LINE"
);
},
{
closed = 1;
nodes = (
"418 -187 OFFCURVE",
"460 -110 OFFCURVE",
"460 -23 CURVE SMOOTH",
"460 0 LINE",
"439 0 LINE",
"439 -35 LINE SMOOTH",
"439 -104 OFFCURVE",
"403 -173 OFFCURVE",
"349 -207 CURVE",
"354 -217 LINE"
);
}
);
width = 553;
},
{
associatedMasterId = "0B2E441B-685E-400D-9B9B-E078DEED62EF";
components = (
{
name = n;
},
{
name = _bottomhook;
transform = "{1, 0, 0, 1, -12, 0}";
}
);
layerId = "781452B6-8BE3-48C9-AE4A-AB153E3E73F5";
name = Template;
width = 553;
},
{
associatedMasterId = "F333AEC5-BB61-4D5E-9EDD-6124322D28F2";
components = (
{
name = n;
},
{
name = _bottomhook;
transform = "{1, 0, 0, 1, -8, 0}";
}
);
layerId = "81D6413E-A4D1-4C5D-AA33-D527FF059481";
name = Template;
width = 570;
},
{
associatedMasterId = "51C2DFEF-3776-4D13-9284-96485B799B57";
components = (
{
name = n;
},
{
name = _bottomhook;
transform = "{1, 0, 0, 1, -25, 0}";
}
);
layerId = "13888B32-033D-462A-BEC4-39055DAB85B5";
name = Template;
width = 599;
}
);
leftMetricsKey = n;
rightMetricsKey = n;
unicode = 014B;
},
{
glyphname = o;
layers = (
{
anchors = (
{
name = bottom;
position = "{285, 0}";
},
{
name = center;
position = "{285, 241}";
},
{
name = ogonek;
position = "{380, 10}";
},
{
name = top;
position = "{285, 482}";
},
{
name = topright;
position = "{469, 482}";
}
);
layerId = "F333AEC5-BB61-4D5E-9EDD-6124322D28F2";
paths = (
{
closed = 1;
nodes = (
"420 -10 OFFCURVE",
"516 93 OFFCURVE",
"516 247 CURVE SMOOTH",
"516 396 OFFCURVE",
"427 492 OFFCURVE",
"290 492 CURVE SMOOTH",
"148 492 OFFCURVE",
"53 390 OFFCURVE",
"53 236 CURVE SMOOTH",
"53 87 OFFCURVE",
"141 -10 OFFCURVE",
"278 -10 CURVE SMOOTH"
);
},
{
closed = 1;
nodes = (
"196 60 OFFCURVE",
"133 135 OFFCURVE",
"133 246 CURVE SMOOTH",
"133 353 OFFCURVE",
"190 422 OFFCURVE",
"279 422 CURVE SMOOTH",
"372 422 OFFCURVE",
"436 346 OFFCURVE",
"436 236 CURVE SMOOTH",
"436 130 OFFCURVE",
"378 60 OFFCURVE",
"289 60 CURVE SMOOTH"
);
}
);
width = 569;
},
{
anchors = (
{
name = bottom;
position = "{291, 0}";
},
{
name = center;
position = "{291, 245}";
},
{
name = ogonek;
position = "{378, 10}";
},
{
name = top;
position = "{291, 490}";
},
{
name = topright;
position = "{502, 490}";
}
);
layerId = "51C2DFEF-3776-4D13-9284-96485B799B57";
paths = (
{
closed = 1;
nodes = (
"448 -10 OFFCURVE",
"558 96 OFFCURVE",
"558 254 CURVE SMOOTH",
"558 403 OFFCURVE",
"458 500 OFFCURVE",
"302 500 CURVE SMOOTH",
"137 500 OFFCURVE",
"27 394 OFFCURVE",
"27 235 CURVE SMOOTH",
"27 87 OFFCURVE",
"127 -10 OFFCURVE",
"284 -10 CURVE SMOOTH"
);
},
{
closed = 1;
nodes = (
"240 134 OFFCURVE",
"203 179 OFFCURVE",
"203 246 CURVE SMOOTH",
"203 312 OFFCURVE",
"237 356 OFFCURVE",
"290 356 CURVE SMOOTH",
"345 356 OFFCURVE",
"382 310 OFFCURVE",
"382 240 CURVE SMOOTH",
"382 176 OFFCURVE",
"348 134 OFFCURVE",
"295 134 CURVE SMOOTH"
);
}
);
width = 585;
},
{
anchors = (
{
name = bottom;
position = "{283, 0}";
},
{
name = center;
position = "{283, 240}";
},
{
name = ogonek;
position = "{367, 10}";
},
{
name = top;
position = "{273, 480}";
},
{
name = topright;
position = "{446, 480}";
}
);
layerId = "0B2E441B-685E-400D-9B9B-E078DEED62EF";
paths = (
{
closed = 1;
nodes = (
"407 -10 OFFCURVE",
"492 90 OFFCURVE",
"492 240 CURVE SMOOTH",
"492 389 OFFCURVE",
"408 486 OFFCURVE",
"284 486 CURVE SMOOTH",
"156 486 OFFCURVE",
"71 386 OFFCURVE",
"71 237 CURVE SMOOTH",
"71 89 OFFCURVE",
"155 -10 OFFCURVE",
"282 -10 CURVE SMOOTH"
);
},
{
closed = 1;
nodes = (
"167 8 OFFCURVE",
"92 101 OFFCURVE",
"92 239 CURVE SMOOTH",
"92 374 OFFCURVE",
"164 468 OFFCURVE",
"279 468 CURVE SMOOTH",
"395 468 OFFCURVE",
"471 378 OFFCURVE",
"471 237 CURVE SMOOTH",
"471 97 OFFCURVE",
"396 8 OFFCURVE",
"284 8 CURVE SMOOTH"
);
}
);
width = 563;
}
);
note = o;
unicode = 006F;
},
{
glyphname = oe;
layers = (
{
anchors = (
{
name = bottom;
position = "{457, 0}";
},
{
name = top;
position = "{457, 482}";
}
);
layerId = "F333AEC5-BB61-4D5E-9EDD-6124322D28F2";
paths = (
{
closed = 1;
nodes = (
"420 -10 OFFCURVE",
"506 93 OFFCURVE",
"506 247 CURVE SMOOTH",
"506 396 OFFCURVE",
"427 492 OFFCURVE",
"290 492 CURVE SMOOTH",
"148 492 OFFCURVE",
"53 390 OFFCURVE",
"53 236 CURVE SMOOTH",
"53 87 OFFCURVE",
"141 -10 OFFCURVE",
"278 -10 CURVE SMOOTH"
);
},
{
closed = 1;
nodes = (
"196 60 OFFCURVE",
"133 135 OFFCURVE",
"133 246 CURVE SMOOTH",
"133 353 OFFCURVE",
"190 422 OFFCURVE",
"279 422 CURVE SMOOTH",
"372 422 OFFCURVE",
"436 346 OFFCURVE",
"436 236 CURVE SMOOTH",
"436 130 OFFCURVE",
"378 60 OFFCURVE",
"289 60 CURVE SMOOTH"
);
},
{
closed = 1;
nodes = (
"737 -10 OFFCURVE",
"784 1 OFFCURVE",
"842 27 CURVE",
"825 83 LINE",
"780 64 OFFCURVE",
"738 55 OFFCURVE",
"699 55 CURVE SMOOTH",
"585 55 OFFCURVE",
"518 130 OFFCURVE",
"518 255 CURVE SMOOTH",
"518 364 OFFCURVE",
"567 424 OFFCURVE",
"655 424 CURVE SMOOTH",
"737 424 OFFCURVE",
"785 371 OFFCURVE",
"785 279 CURVE",
"504 279 LINE",
"504 219 LINE",
"856 219 LINE",
"858 234 OFFCURVE",
"860 269 OFFCURVE",
"860 288 CURVE SMOOTH",
"860 409 OFFCURVE",
"780 492 OFFCURVE",
"661 492 CURVE SMOOTH",
"527 492 OFFCURVE",
"436 388 OFFCURVE",
"436 236 CURVE SMOOTH",
"436 82 OFFCURVE",
"529 -10 OFFCURVE",
"684 -10 CURVE SMOOTH"
);
}
);
width = 913;
},
{
anchors = (
{
name = bottom;
position = "{490, 0}";
},
{
name = top;
position = "{490, 490}";
}
);
layerId = "51C2DFEF-3776-4D13-9284-96485B799B57";
paths = (
{
closed = 1;
nodes = (
"413 -10 OFFCURVE",
"508 94 OFFCURVE",
"508 253 CURVE SMOOTH",
"508 405 OFFCURVE",
"421 500 OFFCURVE",
"283 500 CURVE SMOOTH",
"133 500 OFFCURVE",
"27 391 OFFCURVE",
"27 237 CURVE SMOOTH",
"27 90 OFFCURVE",
"124 -10 OFFCURVE",
"268 -10 CURVE SMOOTH"
);
},
{
closed = 1;
nodes = (
"240 134 OFFCURVE",
"203 179 OFFCURVE",
"203 246 CURVE SMOOTH",
"203 313 OFFCURVE",
"237 356 OFFCURVE",
"290 356 CURVE SMOOTH",
"345 356 OFFCURVE",
"382 310 OFFCURVE",
"382 240 CURVE SMOOTH",
"382 176 OFFCURVE",
"348 134 OFFCURVE",
"295 134 CURVE SMOOTH"
);
},
{
closed = 1;
nodes = (
"727 -10 OFFCURVE",
"791 1 OFFCURVE",
"853 22 CURVE",
"815 139 LINE",
"774 125 OFFCURVE",
"735 118 OFFCURVE",
"695 118 CURVE SMOOTH",
"598 118 OFFCURVE",
"553 160 OFFCURVE",
"553 261 CURVE SMOOTH",
"553 337 OFFCURVE",
"581 373 OFFCURVE",
"628 373 CURVE SMOOTH",
"669 373 OFFCURVE",
"699 347 OFFCURVE",
"699 297 CURVE",
"532 297 LINE",
"532 197 LINE",
"855 197 LINE",
"859 222 OFFCURVE",
"862 247 OFFCURVE",
"862 273 CURVE SMOOTH",
"862 416 OFFCURVE",
"778 500 OFFCURVE",
"644 500 CURVE SMOOTH",
"498 500 OFFCURVE",
"402 400 OFFCURVE",
"402 248 CURVE SMOOTH",
"402 90 OFFCURVE",
"507 -10 OFFCURVE",
"672 -10 CURVE SMOOTH"
);
}
);
width = 898;
},
{
anchors = (
{
name = bottom;
position = "{463, 0}";
},
{
name = top;
position = "{463, 480}";
}
);
layerId = "0B2E441B-685E-400D-9B9B-E078DEED62EF";
paths = (
{
closed = 1;
nodes = (
"407 -10 OFFCURVE",
"486 90 OFFCURVE",
"486 240 CURVE SMOOTH",
"486 389 OFFCURVE",
"408 486 OFFCURVE",
"284 486 CURVE SMOOTH",
"156 486 OFFCURVE",
"71 386 OFFCURVE",
"71 237 CURVE SMOOTH",
"71 89 OFFCURVE",
"155 -10 OFFCURVE",
"282 -10 CURVE SMOOTH"
);
},
{
closed = 1;
nodes = (
"167 8 OFFCURVE",
"92 101 OFFCURVE",
"92 239 CURVE SMOOTH",
"92 374 OFFCURVE",
"164 468 OFFCURVE",
"279 468 CURVE SMOOTH",
"395 468 OFFCURVE",
"471 378 OFFCURVE",
"471 237 CURVE SMOOTH",
"471 97 OFFCURVE",
"396 8 OFFCURVE",
"284 8 CURVE SMOOTH"
);
},
{
closed = 1;
nodes = (
"749 -10 OFFCURVE",
"798 3 OFFCURVE",
"838 30 CURVE",
"833 44 LINE",
"790 19 OFFCURVE",
"745 6 OFFCURVE",
"699 6 CURVE SMOOTH",
"572 6 OFFCURVE",
"494 95 OFFCURVE",
"494 241 CURVE SMOOTH",
"494 382 OFFCURVE",
"561 468 OFFCURVE",
"671 468 CURVE SMOOTH",
"775 468 OFFCURVE",
"840 388 OFFCURVE",
"840 261 CURVE",
"482 261 LINE",
"482 244 LINE",
"860 244 LINE",
"861 251 OFFCURVE",
"861 256 OFFCURVE",
"861 264 CURVE SMOOTH",
"861 396 OFFCURVE",
"785 486 OFFCURVE",
"673 486 CURVE SMOOTH",
"552 486 OFFCURVE",
"475 387 OFFCURVE",
"475 239 CURVE SMOOTH",
"475 87 OFFCURVE",
"560 -10 OFFCURVE",
"697 -10 CURVE SMOOTH"
);
}
);
width = 923;
},
{
anchors = (
{
name = bottom;
position = "{462, 0}";
},
{
name = top;
position = "{462, 480}";
}
);
associatedMasterId = "0B2E441B-685E-400D-9B9B-E078DEED62EF";
layerId = "952FB2D9-0C37-4191-BC29-A19B9A601220";
name = "Dec 6 17, 10:00";
paths = (
{
closed = 1;
nodes = (
"404 -10 OFFCURVE",
"486 90 OFFCURVE",
"486 240 CURVE SMOOTH",
"486 389 OFFCURVE",
"405 486 OFFCURVE",
"281 486 CURVE SMOOTH",
"155 486 OFFCURVE",
"71 386 OFFCURVE",
"71 237 CURVE SMOOTH",
"71 89 OFFCURVE",
"154 -10 OFFCURVE",
"279 -10 CURVE SMOOTH"
);
},
{
closed = 1;
nodes = (
"166 8 OFFCURVE",
"92 101 OFFCURVE",
"92 239 CURVE SMOOTH",
"92 374 OFFCURVE",
"163 468 OFFCURVE",
"279 468 CURVE SMOOTH",
"392 468 OFFCURVE",
"467 378 OFFCURVE",
"467 237 CURVE SMOOTH",
"467 97 OFFCURVE",
"393 8 OFFCURVE",
"281 8 CURVE SMOOTH"
);
},
{
closed = 1;
nodes = (
"747 -9 OFFCURVE",
"796 6 OFFCURVE",
"843 39 CURVE",
"835 51 LINE",
"787 20 OFFCURVE",
"743 7 OFFCURVE",
"696 7 CURVE SMOOTH",
"572 7 OFFCURVE",
"486 97 OFFCURVE",
"486 244 CURVE SMOOTH",
"486 377 OFFCURVE",
"556 469 OFFCURVE",
"668 469 CURVE SMOOTH",
"774 469 OFFCURVE",
"837 385 OFFCURVE",
"837 257 CURVE",
"476 257 LINE",
"476 240 LINE",
"857 240 LINE",
"858 247 OFFCURVE",
"858 252 OFFCURVE",
"858 260 CURVE SMOOTH",
"858 393 OFFCURVE",
"785 487 OFFCURVE",
"669 487 CURVE SMOOTH",
"550 487 OFFCURVE",
"467 387 OFFCURVE",
"467 240 CURVE SMOOTH",
"467 88 OFFCURVE",
"555 -9 OFFCURVE",
"693 -9 CURVE SMOOTH"
);
}
);
width = 921;
}
);
leftMetricsKey = o;
rightMetricsKey = e;
unicode = 0153;
},
{
glyphname = p;
layers = (
{
anchors = (
{
name = bottom;
position = "{286, 0}";
},
{
name = top;
position = "{286, 482}";
}
);
layerId = "F333AEC5-BB61-4D5E-9EDD-6124322D28F2";
paths = (
{
closed = 1;
nodes = (
"165 -217 LINE",
"165 426 LINE",
"141 482 LINE",
"85 482 LINE",
"85 -217 LINE"
);
},
{
closed = 1;
nodes = (
"431 -10 OFFCURVE",
"521 94 OFFCURVE",
"521 250 CURVE SMOOTH",
"521 395 OFFCURVE",
"438 492 OFFCURVE",
"314 492 CURVE SMOOTH",
"245 492 OFFCURVE",
"180 462 OFFCURVE",
"139 410 CURVE",
"157 360 LINE",
"192 399 OFFCURVE",
"242 422 OFFCURVE",
"293 422 CURVE SMOOTH",
"383 422 OFFCURVE",
"441 350 OFFCURVE",
"441 240 CURVE SMOOTH",
"441 132 OFFCURVE",
"388 60 OFFCURVE",
"301 60 CURVE SMOOTH",
"229 60 OFFCURVE",
"169 107 OFFCURVE",
"152 178 CURVE",
"119 123 LINE",
"141 39 OFFCURVE",
"210 -10 OFFCURVE",
"297 -10 CURVE SMOOTH"
);
}
);
width = 575;
},
{
anchors = (
{
name = bottom;
position = "{273, 0}";
},
{
name = top;
position = "{273, 480}";
}
);
layerId = "0B2E441B-685E-400D-9B9B-E078DEED62EF";
paths = (
{
closed = 1;
nodes = (
"122 -217 LINE",
"122 406 LINE",
"117 480 LINE",
"102 480 LINE",
"102 -217 LINE"
);
},
{
closed = 1;
nodes = (
"407 -10 OFFCURVE",
"492 90 OFFCURVE",
"492 240 CURVE SMOOTH",
"492 389 OFFCURVE",
"408 486 OFFCURVE",
"284 486 CURVE SMOOTH",
"201 486 OFFCURVE",
"141 444 OFFCURVE",
"108 375 CURVE",
"112 355 LINE",
"142 425 OFFCURVE",
"200 468 OFFCURVE",
"279 468 CURVE SMOOTH",
"395 468 OFFCURVE",
"471 378 OFFCURVE",
"471 237 CURVE SMOOTH",
"471 97 OFFCURVE",
"396 8 OFFCURVE",
"284 8 CURVE SMOOTH",
"204 8 OFFCURVE",
"143 53 OFFCURVE",
"113 126 CURVE",
"110 96 LINE",
"143 29 OFFCURVE",
"202 -10 OFFCURVE",
"282 -10 CURVE SMOOTH"
);
}
);
width = 564;
},
{
anchors = (
{
name = bottom;
position = "{296, 0}";
},
{
name = top;
position = "{296, 490}";
}
);
layerId = "51C2DFEF-3776-4D13-9284-96485B799B57";
paths = (
{
closed = 1;
nodes = (
"227 -217 LINE",
"227 370 LINE",
"177 490 LINE",
"62 490 LINE",
"62 -217 LINE"
);
},
{
closed = 1;
nodes = (
"465 -10 OFFCURVE",
"562 101 OFFCURVE",
"562 251 CURVE SMOOTH",
"562 396 OFFCURVE",
"471 500 OFFCURVE",
"345 500 CURVE SMOOTH",
"261 500 OFFCURVE",
"197 452 OFFCURVE",
"165 372 CURVE",
"211 305 LINE",
"227 337 OFFCURVE",
"258 356 OFFCURVE",
"294 356 CURVE SMOOTH",
"352 356 OFFCURVE",
"386 310 OFFCURVE",
"386 241 CURVE SMOOTH",
"386 176 OFFCURVE",
"355 134 OFFCURVE",
"299 134 CURVE SMOOTH",
"263 134 OFFCURVE",
"232 152 OFFCURVE",
"214 182 CURVE",
"175 88 LINE",
"208 26 OFFCURVE",
"264 -10 OFFCURVE",
"336 -10 CURVE SMOOTH"
);
}
);
width = 591;
},
{
anchors = (
{
name = bottom;
position = "{300, 0}";
},
{
name = top;
position = "{300, 490}";
}
);
associatedMasterId = "51C2DFEF-3776-4D13-9284-96485B799B57";
layerId = "76E16CE6-B0A6-4DE4-BF53-8A33C9B34D08";
name = "Dec 4 17, 16:23";
paths = (
{
closed = 1;
nodes = (
"227 -217 LINE",
"227 370 LINE",
"177 490 LINE",
"62 490 LINE",
"62 -217 LINE"
);
},
{
closed = 1;
nodes = (
"478 -10 OFFCURVE",
"577 101 OFFCURVE",
"577 251 CURVE SMOOTH",
"577 396 OFFCURVE",
"484 500 OFFCURVE",
"355 500 CURVE SMOOTH",
"228 500 OFFCURVE",
"146 397 OFFCURVE",
"146 239 CURVE SMOOTH",
"146 86 OFFCURVE",
"223 -10 OFFCURVE",
"345 -10 CURVE SMOOTH"
);
},
{
closed = 1;
nodes = (
"247 134 OFFCURVE",
"202 179 OFFCURVE",
"202 246 CURVE SMOOTH",
"202 312 OFFCURVE",
"245 356 OFFCURVE",
"304 356 CURVE SMOOTH",
"365 356 OFFCURVE",
"401 310 OFFCURVE",
"401 241 CURVE SMOOTH",
"401 175 OFFCURVE",
"368 134 OFFCURVE",
"309 134 CURVE SMOOTH"
);
}
);
width = 606;
}
);
note = p;
unicode = 0070;
},
{
glyphname = thorn;
layers = (
{
layerId = "F333AEC5-BB61-4D5E-9EDD-6124322D28F2";
paths = (
{
closed = 1;
nodes = (
"163 -217 LINE",
"163 739 LINE",
"85 739 LINE",
"85 -217 LINE"
);
},
{
closed = 1;
nodes = (
"426 -10 OFFCURVE",
"518 93 OFFCURVE",
"518 247 CURVE SMOOTH",
"518 394 OFFCURVE",
"430 492 OFFCURVE",
"298 492 CURVE SMOOTH",
"206 492 OFFCURVE",
"139 445 OFFCURVE",
"107 364 CURVE",
"137 320 LINE",
"159 384 OFFCURVE",
"211 422 OFFCURVE",
"279 422 CURVE SMOOTH",
"375 422 OFFCURVE",
"438 346 OFFCURVE",
"438 235 CURVE SMOOTH",
"438 130 OFFCURVE",
"381 60 OFFCURVE",
"288 60 CURVE SMOOTH",
"221 60 OFFCURVE",
"169 96 OFFCURVE",
"143 155 CURVE",
"106 111 LINE",
"137 33 OFFCURVE",
"200 -10 OFFCURVE",
"288 -10 CURVE SMOOTH"
);
}
);
width = 572;
},
{
layerId = "51C2DFEF-3776-4D13-9284-96485B799B57";
paths = (
{
closed = 1;
nodes = (
"227 -217 LINE",
"227 739 LINE",
"62 739 LINE",
"62 -217 LINE"
);
},
{
closed = 1;
nodes = (
"465 -10 OFFCURVE",
"562 101 OFFCURVE",
"562 251 CURVE SMOOTH",
"562 396 OFFCURVE",
"471 500 OFFCURVE",
"345 500 CURVE SMOOTH",
"261 500 OFFCURVE",
"197 452 OFFCURVE",
"165 372 CURVE",
"211 305 LINE",
"227 337 OFFCURVE",
"258 356 OFFCURVE",
"294 356 CURVE SMOOTH",
"352 356 OFFCURVE",
"386 310 OFFCURVE",
"386 241 CURVE SMOOTH",
"386 176 OFFCURVE",
"355 134 OFFCURVE",
"299 134 CURVE SMOOTH",
"263 134 OFFCURVE",
"232 152 OFFCURVE",
"214 182 CURVE",
"175 88 LINE",
"208 26 OFFCURVE",
"264 -10 OFFCURVE",
"336 -10 CURVE SMOOTH"
);
}
);
width = 591;
},
{
layerId = "0B2E441B-685E-400D-9B9B-E078DEED62EF";
paths = (
{
closed = 1;
nodes = (
"121 -217 LINE",
"121 739 LINE",
"102 739 LINE",
"102 -217 LINE"
);
},
{
closed = 1;
nodes = (
"407 -10 OFFCURVE",
"492 90 OFFCURVE",
"492 240 CURVE SMOOTH",
"492 389 OFFCURVE",
"408 486 OFFCURVE",
"284 486 CURVE SMOOTH",
"201 486 OFFCURVE",
"141 444 OFFCURVE",
"108 375 CURVE",
"112 355 LINE",
"142 425 OFFCURVE",
"200 468 OFFCURVE",
"279 468 CURVE SMOOTH",
"395 468 OFFCURVE",
"471 378 OFFCURVE",
"471 237 CURVE SMOOTH",
"471 97 OFFCURVE",
"396 8 OFFCURVE",
"284 8 CURVE SMOOTH",
"204 8 OFFCURVE",
"143 53 OFFCURVE",
"113 126 CURVE",
"110 96 LINE",
"143 29 OFFCURVE",
"202 -10 OFFCURVE",
"282 -10 CURVE SMOOTH"
);
}
);
width = 564;
}
);
leftMetricsKey = p;
rightMetricsKey = p;
unicode = 00FE;
},
{
glyphname = q;
layers = (
{
anchors = (
{
name = bottom;
position = "{292, 0}";
},
{
name = top;
position = "{292, 480}";
}
);
layerId = "0B2E441B-685E-400D-9B9B-E078DEED62EF";
paths = (
{
closed = 1;
nodes = (
"462 -217 LINE",
"462 480 LINE",
"447 480 LINE",
"442 406 LINE",
"442 -217 LINE"
);
},
{
closed = 1;
nodes = (
"353 -10 OFFCURVE",
"410 23 OFFCURVE",
"446 85 CURVE",
"443 106 LINE",
"411 44 OFFCURVE",
"355 8 OFFCURVE",
"284 8 CURVE SMOOTH",
"167 8 OFFCURVE",
"92 101 OFFCURVE",
"92 239 CURVE SMOOTH",
"92 374 OFFCURVE",
"164 468 OFFCURVE",
"279 468 CURVE SMOOTH",
"353 468 OFFCURVE",
"411 431 OFFCURVE",
"443 367 CURVE",
"447 396 LINE",
"413 454 OFFCURVE",
"357 486 OFFCURVE",
"284 486 CURVE SMOOTH",
"156 486 OFFCURVE",
"71 386 OFFCURVE",
"71 237 CURVE SMOOTH",
"71 89 OFFCURVE",
"155 -10 OFFCURVE",
"282 -10 CURVE SMOOTH"
);
}
);
width = 564;
},
{
anchors = (
{
name = bottom;
position = "{300, 0}";
},
{
name = top;
position = "{300, 490}";
}
);
layerId = "51C2DFEF-3776-4D13-9284-96485B799B57";
paths = (
{
closed = 1;
nodes = (
"532 -217 LINE",
"532 490 LINE",
"417 490 LINE",
"366 370 LINE",
"366 -217 LINE"
);
},
{
closed = 1;
nodes = (
"326 -10 OFFCURVE",
"391 43 OFFCURVE",
"424 130 CURVE",
"379 184 LINE",
"363 153 OFFCURVE",
"333 134 OFFCURVE",
"293 134 CURVE SMOOTH",
"240 134 OFFCURVE",
"207 178 OFFCURVE",
"207 248 CURVE SMOOTH",
"207 316 OFFCURVE",
"238 356 OFFCURVE",
"291 356 CURVE SMOOTH",
"332 356 OFFCURVE",
"363 333 OFFCURVE",
"379 294 CURVE",
"428 383 LINE",
"403 460 OFFCURVE",
"345 500 OFFCURVE",
"259 500 CURVE SMOOTH",
"123 500 OFFCURVE",
"31 397 OFFCURVE",
"31 242 CURVE SMOOTH",
"31 91 OFFCURVE",
"115 -10 OFFCURVE",
"239 -10 CURVE SMOOTH"
);
}
);
width = 594;
},
{
anchors = (
{
name = bottom;
position = "{307, 0}";
},
{
name = top;
position = "{307, 490}";
}
);
associatedMasterId = "51C2DFEF-3776-4D13-9284-96485B799B57";
layerId = "E187EFCE-C829-4342-9B58-47838B05EB8A";
name = "Dec 4 17, 16:27";
paths = (
{
closed = 1;
nodes = (
"546 -217 LINE",
"546 490 LINE",
"431 490 LINE",
"380 370 LINE",
"380 -217 LINE"
);
},
{
closed = 1;
nodes = (
"125 500 OFFCURVE",
"30 397 OFFCURVE",
"30 242 CURVE SMOOTH",
"30 91 OFFCURVE",
"117 -10 OFFCURVE",
"247 -10 CURVE SMOOTH",
"375 -10 OFFCURVE",
"461 100 OFFCURVE",
"461 265 CURVE SMOOTH",
"461 419 OFFCURVE",
"394 500 OFFCURVE",
"267 500 CURVE SMOOTH"
);
},
{
closed = 1;
nodes = (
"362 356 OFFCURVE",
"405 307 OFFCURVE",
"405 234 CURVE SMOOTH",
"405 174 OFFCURVE",
"363 134 OFFCURVE",
"300 134 CURVE SMOOTH",
"242 134 OFFCURVE",
"206 178 OFFCURVE",
"206 248 CURVE SMOOTH",
"206 316 OFFCURVE",
"240 356 OFFCURVE",
"298 356 CURVE SMOOTH"
);
}
);
width = 608;
},
{
anchors = (
{
name = bottom;
position = "{289, 0}";
},
{
name = top;
position = "{289, 482}";
}
);
associatedMasterId = "F333AEC5-BB61-4D5E-9EDD-6124322D28F2";
layerId = "5CB1316B-820C-421A-ADAB-9F104963C273";
name = "Dec 5 17, 11:45";
paths = (
{
closed = 1;
nodes = (
"489 -217 LINE",
"489 482 LINE",
"433 482 LINE",
"409 426 LINE",
"409 -217 LINE"
);
},
{
closed = 1;
nodes = (
"337 -10 OFFCURVE",
"401 22 OFFCURVE",
"454 83 CURVE",
"435 133 LINE",
"390 84 OFFCURVE",
"341 60 OFFCURVE",
"288 60 CURVE SMOOTH",
"195 60 OFFCURVE",
"134 135 OFFCURVE",
"134 250 CURVE SMOOTH",
"134 356 OFFCURVE",
"188 422 OFFCURVE",
"275 422 CURVE SMOOTH",
"346 422 OFFCURVE",
"406 378 OFFCURVE",
"422 313 CURVE",
"454 376 LINE",
"428 451 OFFCURVE",
"368 492 OFFCURVE",
"284 492 CURVE SMOOTH",
"146 492 OFFCURVE",
"54 389 OFFCURVE",
"54 235 CURVE SMOOTH",
"54 88 OFFCURVE",
"139 -10 OFFCURVE",
"266 -10 CURVE SMOOTH"
);
}
);
width = 574;
},
{
anchors = (
{
name = bottom;
position = "{289, 0}";
},
{
name = top;
position = "{289, 482}";
}
);
layerId = "F333AEC5-BB61-4D5E-9EDD-6124322D28F2";
paths = (
{
closed = 1;
nodes = (
"489 -217 LINE",
"489 482 LINE",
"433 482 LINE",
"409 426 LINE",
"409 -217 LINE"
);
},
{
closed = 1;
nodes = (
"350 -10 OFFCURVE",
"413 30 OFFCURVE",
"450 96 CURVE",
"421 132 LINE",
"394 87 OFFCURVE",
"349 60 OFFCURVE",
"292 60 CURVE SMOOTH",
"196 60 OFFCURVE",
"134 135 OFFCURVE",
"134 246 CURVE SMOOTH",
"134 352 OFFCURVE",
"190 422 OFFCURVE",
"283 422 CURVE SMOOTH",
"344 422 OFFCURVE",
"392 394 OFFCURVE",
"420 346 CURVE",
"457 390 LINE",
"422 455 OFFCURVE",
"360 492 OFFCURVE",
"280 492 CURVE SMOOTH",
"144 492 OFFCURVE",
"54 390 OFFCURVE",
"54 237 CURVE SMOOTH",
"54 89 OFFCURVE",
"140 -10 OFFCURVE",
"269 -10 CURVE SMOOTH"
);
}
);
width = 574;
}
);
note = q;
unicode = 0071;
},
{
glyphname = r;
layers = (
{
anchors = (
{
name = bottom;
position = "{124, 0}";
},
{
name = top;
position = "{229, 482}";
}
);
layerId = "F333AEC5-BB61-4D5E-9EDD-6124322D28F2";
paths = (
{
closed = 1;
nodes = (
"165 0 LINE",
"165 370 LINE",
"151 482 LINE",
"85 482 LINE",
"85 0 LINE"
);
},
{
closed = 1;
nodes = (
"176 356 OFFCURVE",
"241 409 OFFCURVE",
"301 409 CURVE SMOOTH",
"318 409 OFFCURVE",
"337 405 OFFCURVE",
"351 400 CURVE",
"372 477 LINE",
"353 483 OFFCURVE",
"330 487 OFFCURVE",
"310 487 CURVE SMOOTH",
"244 487 OFFCURVE",
"181 443 OFFCURVE",
"147 374 CURVE",
"147 283 LINE"
);
}
);
width = 395;
},
{
anchors = (
{
name = bottom;
position = "{149, 0}";
},
{
name = top;
position = "{221, 490}";
}
);
layerId = "51C2DFEF-3776-4D13-9284-96485B799B57";
paths = (
{
closed = 1;
nodes = (
"235 0 LINE",
"235 299 LINE",
"197 490 LINE",
"62 490 LINE",
"62 0 LINE"
);
},
{
closed = 1;
nodes = (
"233 284 OFFCURVE",
"288 332 OFFCURVE",
"342 332 CURVE SMOOTH",
"363 332 OFFCURVE",
"390 325 OFFCURVE",
"409 315 CURVE",
"448 474 LINE",
"419 487 OFFCURVE",
"389 494 OFFCURVE",
"362 494 CURVE SMOOTH",
"298 494 OFFCURVE",
"238 457 OFFCURVE",
"204 392 CURVE",
"204 212 LINE"
);
}
);
width = 444;
},
{
anchors = (
{
name = bottom;
position = "{109, 0}";
},
{
name = top;
position = "{201, 480}";
}
);
layerId = "0B2E441B-685E-400D-9B9B-E078DEED62EF";
paths = (
{
closed = 1;
nodes = (
"121 0 LINE",
"121 378 LINE",
"117 480 LINE",
"100 480 LINE",
"100 0 LINE"
);
},
{
closed = 1;
nodes = (
"151 422 OFFCURVE",
"206 462 OFFCURVE",
"264 462 CURVE SMOOTH",
"280 462 OFFCURVE",
"296 460 OFFCURVE",
"314 453 CURVE",
"320 469 LINE",
"306 475 OFFCURVE",
"284 480 OFFCURVE",
"266 480 CURVE SMOOTH",
"202 480 OFFCURVE",
"149 442 OFFCURVE",
"113 374 CURVE",
"113 351 LINE"
);
}
);
width = 336;
}
);
note = r;
unicode = 0072;
},
{
glyphname = s;
layers = (
{
anchors = (
{
name = bottom;
position = "{239, 0}";
},
{
name = top;
position = "{234, 482}";
}
);
layerId = "F333AEC5-BB61-4D5E-9EDD-6124322D28F2";
paths = (
{
closed = 1;
nodes = (
"351 -10 OFFCURVE",
"424 46 OFFCURVE",
"424 135 CURVE SMOOTH",
"424 312 OFFCURVE",
"136 246 OFFCURVE",
"136 355 CURVE SMOOTH",
"136 397 OFFCURVE",
"181 424 OFFCURVE",
"253 424 CURVE SMOOTH",
"294 424 OFFCURVE",
"342 415 OFFCURVE",
"383 401 CURVE",
"402 466 LINE",
"361 483 OFFCURVE",
"312 492 OFFCURVE",
"261 492 CURVE SMOOTH",
"136 492 OFFCURVE",
"56 437 OFFCURVE",
"56 346 CURVE SMOOTH",
"56 173 OFFCURVE",
"343 245 OFFCURVE",
"343 127 CURVE SMOOTH",
"343 83 OFFCURVE",
"304 58 OFFCURVE",
"238 58 CURVE SMOOTH",
"188 58 OFFCURVE",
"126 72 OFFCURVE",
"68 95 CURVE",
"49 28 LINE",
"105 4 OFFCURVE",
"172 -10 OFFCURVE",
"232 -10 CURVE SMOOTH"
);
}
);
width = 470;
},
{
anchors = (
{
name = bottom;
position = "{249, 0}";
},
{
name = top;
position = "{247, 490}";
}
);
layerId = "51C2DFEF-3776-4D13-9284-96485B799B57";
paths = (
{
closed = 1;
nodes = (
"382 -10 OFFCURVE",
"466 51 OFFCURVE",
"466 157 CURVE SMOOTH",
"466 344 OFFCURVE",
"204 287 OFFCURVE",
"204 343 CURVE SMOOTH",
"204 360 OFFCURVE",
"229 370 OFFCURVE",
"274 370 CURVE SMOOTH",
"316 370 OFFCURVE",
"368 361 OFFCURVE",
"412 345 CURVE",
"449 470 LINE",
"394 490 OFFCURVE",
"336 500 OFFCURVE",
"275 500 CURVE SMOOTH",
"121 500 OFFCURVE",
"39 442 OFFCURVE",
"39 335 CURVE SMOOTH",
"39 146 OFFCURVE",
"295 212 OFFCURVE",
"295 152 CURVE SMOOTH",
"295 133 OFFCURVE",
"268 120 OFFCURVE",
"228 120 CURVE SMOOTH",
"181 120 OFFCURVE",
"117 134 OFFCURVE",
"69 155 CURVE",
"32 30 LINE",
"87 5 OFFCURVE",
"161 -10 OFFCURVE",
"234 -10 CURVE SMOOTH"
);
}
);
width = 494;
},
{
anchors = (
{
name = bottom;
position = "{221, 0}";
},
{
name = top;
position = "{230, 480}";
}
);
layerId = "0B2E441B-685E-400D-9B9B-E078DEED62EF";
paths = (
{
closed = 1;
nodes = (
"339 -10 OFFCURVE",
"399 40 OFFCURVE",
"399 118 CURVE SMOOTH",
"399 294 OFFCURVE",
"91 208 OFFCURVE",
"91 362 CURVE SMOOTH",
"91 429 OFFCURVE",
"150 468 OFFCURVE",
"238 468 CURVE SMOOTH",
"285 468 OFFCURVE",
"335 457 OFFCURVE",
"367 440 CURVE",
"374 456 LINE",
"343 474 OFFCURVE",
"287 486 OFFCURVE",
"238 486 CURVE SMOOTH",
"138 486 OFFCURVE",
"70 437 OFFCURVE",
"70 358 CURVE SMOOTH",
"70 189 OFFCURVE",
"378 276 OFFCURVE",
"378 115 CURVE SMOOTH",
"378 49 OFFCURVE",
"327 8 OFFCURVE",
"238 8 CURVE SMOOTH",
"184 8 OFFCURVE",
"122 23 OFFCURVE",
"66 50 CURVE",
"59 33 LINE",
"116 5 OFFCURVE",
"180 -10 OFFCURVE",
"236 -10 CURVE SMOOTH"
);
}
);
width = 458;
}
);
note = s;
unicode = 0073;
},
{
glyphname = germandbls;
layers = (
{
layerId = "F333AEC5-BB61-4D5E-9EDD-6124322D28F2";
paths = (
{
closed = 1;
nodes = (
"480 -10 OFFCURVE",
"560 58 OFFCURVE",
"560 154 CURVE SMOOTH",
"560 302 OFFCURVE",
"371 304 OFFCURVE",
"371 387 CURVE SMOOTH",
"371 451 OFFCURVE",
"484 469 OFFCURVE",
"484 582 CURVE SMOOTH",
"484 679 OFFCURVE",
"401 749 OFFCURVE",
"287 749 CURVE SMOOTH",
"164 749 OFFCURVE",
"85 666 OFFCURVE",
"85 539 CURVE SMOOTH",
"85 0 LINE",
"165 0 LINE",
"165 548 LINE SMOOTH",
"165 633 OFFCURVE",
"205 679 OFFCURVE",
"277 679 CURVE SMOOTH",
"350 679 OFFCURVE",
"404 633 OFFCURVE",
"404 572 CURVE SMOOTH",
"404 483 OFFCURVE",
"291 468 OFFCURVE",
"291 374 CURVE SMOOTH",
"291 253 OFFCURVE",
"480 250 OFFCURVE",
"480 141 CURVE SMOOTH",
"480 94 OFFCURVE",
"436 60 OFFCURVE",
"374 60 CURVE SMOOTH",
"338 60 OFFCURVE",
"292 72 OFFCURVE",
"248 93 CURVE",
"229 26 LINE",
"270 3 OFFCURVE",
"320 -10 OFFCURVE",
"368 -10 CURVE SMOOTH"
);
}
);
width = 600;
},
{
layerId = "51C2DFEF-3776-4D13-9284-96485B799B57";
paths = (
{
closed = 1;
nodes = (
"553 -10 OFFCURVE",
"646 63 OFFCURVE",
"646 174 CURVE SMOOTH",
"646 324 OFFCURVE",
"476 321 OFFCURVE",
"476 395 CURVE SMOOTH",
"476 448 OFFCURVE",
"566 466 OFFCURVE",
"566 563 CURVE SMOOTH",
"566 670 OFFCURVE",
"459 749 OFFCURVE",
"316 749 CURVE SMOOTH",
"164 749 OFFCURVE",
"62 661 OFFCURVE",
"62 531 CURVE SMOOTH",
"62 0 LINE",
"235 0 LINE",
"235 530 LINE SMOOTH",
"235 577 OFFCURVE",
"263 605 OFFCURVE",
"311 605 CURVE SMOOTH",
"357 605 OFFCURVE",
"391 579 OFFCURVE",
"391 544 CURVE SMOOTH",
"391 486 OFFCURVE",
"300 468 OFFCURVE",
"300 366 CURVE SMOOTH",
"300 226 OFFCURVE",
"470 216 OFFCURVE",
"470 165 CURVE SMOOTH",
"470 144 OFFCURVE",
"442 130 OFFCURVE",
"401 130 CURVE SMOOTH",
"368 130 OFFCURVE",
"333 139 OFFCURVE",
"300 156 CURVE",
"261 22 LINE",
"310 0 OFFCURVE",
"357 -10 OFFCURVE",
"410 -10 CURVE SMOOTH"
);
}
);
width = 663;
},
{
layerId = "0B2E441B-685E-400D-9B9B-E078DEED62EF";
paths = (
{
closed = 1;
nodes = (
"448 -10 OFFCURVE",
"513 44 OFFCURVE",
"513 134 CURVE SMOOTH",
"513 290 OFFCURVE",
"315 292 OFFCURVE",
"315 384 CURVE SMOOTH",
"315 457 OFFCURVE",
"438 464 OFFCURVE",
"438 591 CURVE SMOOTH",
"438 685 OFFCURVE",
"371 749 OFFCURVE",
"277 749 CURVE SMOOTH",
"169 749 OFFCURVE",
"102 664 OFFCURVE",
"102 539 CURVE SMOOTH",
"102 0 LINE",
"123 0 LINE",
"123 548 LINE SMOOTH",
"123 659 OFFCURVE",
"181 731 OFFCURVE",
"274 731 CURVE SMOOTH",
"357 731 OFFCURVE",
"418 673 OFFCURVE",
"418 588 CURVE SMOOTH",
"418 468 OFFCURVE",
"294 465 OFFCURVE",
"294 381 CURVE SMOOTH",
"294 275 OFFCURVE",
"492 281 OFFCURVE",
"492 131 CURVE SMOOTH",
"492 54 OFFCURVE",
"438 8 OFFCURVE",
"359 8 CURVE SMOOTH",
"316 8 OFFCURVE",
"266 21 OFFCURVE",
"225 43 CURVE",
"219 26 LINE",
"257 4 OFFCURVE",
"311 -10 OFFCURVE",
"357 -10 CURVE SMOOTH"
);
}
);
width = 570;
}
);
unicode = 00DF;
},
{
glyphname = t;
layers = (
{
anchors = (
{
name = bottom;
position = "{205, 5}";
},
{
name = center;
position = "{176, 246}";
},
{
name = top;
position = "{133, 621}";
},
{
name = topright;
position = "{310, 482}";
}
);
layerId = "F333AEC5-BB61-4D5E-9EDD-6124322D28F2";
paths = (
{
closed = 1;
nodes = (
"270 -5 OFFCURVE",
"303 3 OFFCURVE",
"326 16 CURVE",
"308 74 LINE",
"291 65 OFFCURVE",
"270 60 OFFCURVE",
"251 60 CURVE SMOOTH",
"206 60 OFFCURVE",
"176 92 OFFCURVE",
"176 140 CURVE SMOOTH",
"176 621 LINE",
"96 621 LINE",
"96 129 LINE SMOOTH",
"96 49 OFFCURVE",
"152 -5 OFFCURVE",
"237 -5 CURVE SMOOTH"
);
},
{
closed = 1;
nodes = (
"323 415 LINE",
"323 482 LINE",
"31 482 LINE",
"31 415 LINE"
);
}
);
width = 366;
},
{
anchors = (
{
name = bottom;
position = "{237, 0}";
},
{
name = center;
position = "{207, 243}";
},
{
name = top;
position = "{173, 617}";
},
{
name = topright;
position = "{377, 490}";
}
);
layerId = "51C2DFEF-3776-4D13-9284-96485B799B57";
paths = (
{
closed = 1;
nodes = (
"324 -8 OFFCURVE",
"365 2 OFFCURVE",
"400 20 CURVE",
"360 141 LINE",
"349 134 OFFCURVE",
"332 130 OFFCURVE",
"321 130 CURVE SMOOTH",
"284 130 OFFCURVE",
"257 158 OFFCURVE",
"257 201 CURVE SMOOTH",
"257 617 LINE",
"87 617 LINE",
"87 176 LINE SMOOTH",
"87 66 OFFCURVE",
"167 -8 OFFCURVE",
"281 -8 CURVE SMOOTH"
);
},
{
closed = 1;
nodes = (
"401 355 LINE",
"401 490 LINE",
"14 490 LINE",
"14 355 LINE"
);
}
);
width = 431;
},
{
anchors = (
{
name = bottom;
position = "{183, 0}";
},
{
name = center;
position = "{153, 250}";
},
{
name = top;
position = "{117, 617}";
},
{
name = topright;
position = "{241, 480}";
}
);
layerId = "0B2E441B-685E-400D-9B9B-E078DEED62EF";
paths = (
{
closed = 1;
nodes = (
"237 -3 OFFCURVE",
"261 3 OFFCURVE",
"282 18 CURVE",
"277 32 LINE",
"259 19 OFFCURVE",
"238 14 OFFCURVE",
"217 14 CURVE SMOOTH",
"163 14 OFFCURVE",
"127 51 OFFCURVE",
"127 108 CURVE SMOOTH",
"127 617 LINE",
"106 617 LINE",
"106 103 LINE SMOOTH",
"106 38 OFFCURVE",
"148 -3 OFFCURVE",
"211 -3 CURVE SMOOTH"
);
},
{
closed = 1;
nodes = (
"269 463 LINE",
"269 480 LINE",
"43 480 LINE",
"43 463 LINE"
);
}
);
width = 327;
}
);
note = t;
unicode = 0074;
},
{
glyphname = u;
layers = (
{
anchors = (
{
name = bottom;
position = "{275, 0}";
},
{
name = ogonek;
position = "{455, 10}";
},
{
name = top;
position = "{275, 482}";
},
{
name = topright;
position = "{515, 482}";
}
);
layerId = "F333AEC5-BB61-4D5E-9EDD-6124322D28F2";
paths = (
{
closed = 1;
nodes = (
"397 482 LINE",
"397 56 LINE",
"421 0 LINE",
"477 0 LINE",
"477 482 LINE"
);
},
{
closed = 1;
nodes = (
"76 482 LINE",
"76 166 LINE SMOOTH",
"76 59 OFFCURVE",
"146 -10 OFFCURVE",
"251 -10 CURVE SMOOTH",
"320 -10 OFFCURVE",
"388 20 OFFCURVE",
"437 73 CURVE",
"418 124 LINE",
"380 83 OFFCURVE",
"328 60 OFFCURVE",
"274 60 CURVE SMOOTH",
"198 60 OFFCURVE",
"156 104 OFFCURVE",
"156 182 CURVE SMOOTH",
"156 482 LINE"
);
}
);
width = 562;
},
{
anchors = (
{
name = bottom;
position = "{292, 0}";
},
{
name = ogonek;
position = "{489, 10}";
},
{
name = top;
position = "{292, 490}";
},
{
name = topright;
position = "{584, 490}";
}
);
layerId = "51C2DFEF-3776-4D13-9284-96485B799B57";
paths = (
{
closed = 1;
nodes = (
"363 490 LINE",
"363 114 LINE",
"411 0 LINE",
"536 0 LINE",
"536 490 LINE"
);
},
{
closed = 1;
nodes = (
"52 490 LINE",
"52 186 LINE SMOOTH",
"52 68 OFFCURVE",
"119 -6 OFFCURVE",
"227 -6 CURVE SMOOTH",
"297 -6 OFFCURVE",
"358 25 OFFCURVE",
"398 82 CURVE",
"379 185 LINE",
"355 158 OFFCURVE",
"326 144 OFFCURVE",
"292 144 CURVE SMOOTH",
"246 144 OFFCURVE",
"225 170 OFFCURVE",
"225 225 CURVE SMOOTH",
"225 490 LINE"
);
}
);
width = 598;
},
{
anchors = (
{
name = bottom;
position = "{263, 0}";
},
{
name = ogonek;
position = "{438, 10}";
},
{
name = top;
position = "{263, 480}";
},
{
name = topright;
position = "{523, 480}";
}
);
layerId = "0B2E441B-685E-400D-9B9B-E078DEED62EF";
paths = (
{
closed = 1;
nodes = (
"423 480 LINE",
"423 76 LINE",
"427 0 LINE",
"444 0 LINE",
"444 480 LINE"
);
},
{
closed = 1;
nodes = (
"94 480 LINE",
"94 166 LINE SMOOTH",
"94 57 OFFCURVE",
"155 -6 OFFCURVE",
"255 -6 CURVE SMOOTH",
"322 -6 OFFCURVE",
"392 25 OFFCURVE",
"441 76 CURVE",
"432 87 LINE",
"386 40 OFFCURVE",
"321 12 OFFCURVE",
"259 12 CURVE SMOOTH",
"168 12 OFFCURVE",
"115 69 OFFCURVE",
"115 166 CURVE SMOOTH",
"115 480 LINE"
);
}
);
width = 546;
}
);
note = u;
unicode = 0075;
},
{
glyphname = v;
layers = (
{
anchors = (
{
name = bottom;
position = "{254, 0}";
},
{
name = top;
position = "{254, 482}";
}
);
layerId = "F333AEC5-BB61-4D5E-9EDD-6124322D28F2";
paths = (
{
closed = 1;
nodes = (
"294 0 LINE",
"482 482 LINE",
"402 482 LINE",
"235 16 LINE",
"279 16 LINE",
"115 482 LINE",
"26 482 LINE",
"216 0 LINE"
);
}
);
width = 508;
},
{
anchors = (
{
name = bottom;
position = "{276, 0}";
},
{
name = top;
position = "{276, 490}";
}
);
layerId = "51C2DFEF-3776-4D13-9284-96485B799B57";
paths = (
{
closed = 1;
nodes = (
"364 0 LINE",
"554 490 LINE",
"380 490 LINE",
"269 124 LINE",
"292 124 LINE",
"193 490 LINE",
"3 490 LINE",
"191 0 LINE"
);
}
);
width = 556;
},
{
anchors = (
{
name = bottom;
position = "{243, 0}";
},
{
name = top;
position = "{243, 480}";
}
);
layerId = "0B2E441B-685E-400D-9B9B-E078DEED62EF";
paths = (
{
closed = 1;
nodes = (
"253 0 LINE",
"442 480 LINE",
"421 480 LINE",
"240 14 LINE",
"249 14 LINE",
"66 480 LINE",
"43 480 LINE",
"235 0 LINE"
);
}
);
width = 485;
}
);
note = v;
unicode = 0076;
},
{
glyphname = w;
layers = (
{
anchors = (
{
name = bottom;
position = "{409, 0}";
},
{
name = top;
position = "{409, 482}";
}
);
layerId = "F333AEC5-BB61-4D5E-9EDD-6124322D28F2";
paths = (
{
closed = 1;
nodes = (
"274 0 LINE",
"415 440 LINE",
"382 440 LINE",
"529 0 LINE",
"610 0 LINE",
"786 482 LINE",
"706 482 LINE",
"557 35 LINE",
"590 35 LINE",
"450 480 LINE",
"360 480 LINE",
"223 35 LINE",
"255 35 LINE",
"113 482 LINE",
"22 482 LINE",
"198 0 LINE"
);
}
);
width = 818;
},
{
anchors = (
{
name = bottom;
position = "{435, 0}";
},
{
name = top;
position = "{435, 490}";
}
);
layerId = "51C2DFEF-3776-4D13-9284-96485B799B57";
paths = (
{
closed = 1;
nodes = (
"344 0 LINE",
"446 382 LINE",
"397 382 LINE",
"513 0 LINE",
"684 0 LINE",
"867 490 LINE",
"698 490 LINE",
"573 86 LINE",
"632 86 LINE",
"517 488 LINE",
"353 488 LINE",
"247 76 LINE",
"302 76 LINE",
"195 490 LINE",
"3 490 LINE",
"183 0 LINE"
);
}
);
width = 870;
},
{
anchors = (
{
name = bottom;
position = "{394, 0}";
},
{
name = top;
position = "{394, 480}";
}
);
background = {
paths = (
{
closed = 1;
nodes = (
"742 480 LINE",
"720 480 LINE",
"561 25 LINE",
"566 25 LINE",
"404 480 LINE",
"383 480 LINE",
"220 25 LINE",
"227 25 LINE",
"66 480 LINE",
"45 480 LINE",
"218 0 LINE",
"232 0 LINE",
"398 460 LINE",
"391 460 LINE",
"557 0 LINE",
"572 0 LINE"
);
}
);
};
layerId = "0B2E441B-685E-400D-9B9B-E078DEED62EF";
paths = (
{
closed = 1;
nodes = (
"235 0 LINE",
"396 459 LINE",
"389 459 LINE",
"554 0 LINE",
"568 0 LINE",
"742 480 LINE",
"721 480 LINE",
"559 25 LINE",
"565 25 LINE",
"403 479 LINE",
"383 479 LINE",
"226 25 LINE",
"231 25 LINE",
"67 480 LINE",
"45 480 LINE",
"220 0 LINE"
);
}
);
width = 786;
}
);
note = w;
unicode = 0077;
},
{
glyphname = x;
layers = (
{
anchors = (
{
name = bottom;
position = "{248, 0}";
},
{
name = top;
position = "{248, 482}";
}
);
layerId = "F333AEC5-BB61-4D5E-9EDD-6124322D28F2";
paths = (
{
closed = 1;
nodes = (
"119 0 LINE",
"269 214 LINE",
"472 482 LINE",
"381 482 LINE",
"228 264 LINE",
"28 0 LINE"
);
},
{
closed = 1;
nodes = (
"463 0 LINE",
"265 272 LINE",
"119 482 LINE",
"27 482 LINE",
"222 211 LINE",
"371 0 LINE"
);
}
);
width = 498;
},
{
anchors = (
{
name = bottom;
position = "{293, 0}";
},
{
name = top;
position = "{292, 490}";
}
);
layerId = "51C2DFEF-3776-4D13-9284-96485B799B57";
paths = (
{
closed = 1;
nodes = (
"188 0 LINE",
"309 187 LINE",
"546 490 LINE",
"354 490 LINE",
"245 322 LINE",
"6 0 LINE"
);
},
{
closed = 1;
nodes = (
"532 0 LINE",
"308 315 LINE",
"202 490 LINE",
"3 490 LINE",
"186 240 LINE",
"334 0 LINE"
);
}
);
width = 546;
},
{
anchors = (
{
name = bottom;
position = "{236, 0}";
},
{
name = top;
position = "{234, 480}";
}
);
layerId = "0B2E441B-685E-400D-9B9B-E078DEED62EF";
paths = (
{
closed = 1;
nodes = (
"69 0 LINE",
"239 238 LINE",
"429 480 LINE",
"407 480 LINE",
"229 251 LINE",
"47 0 LINE"
);
},
{
closed = 1;
nodes = (
"416 0 LINE",
"239 250 LINE",
"68 480 LINE",
"44 480 LINE",
"227 235 LINE",
"392 0 LINE"
);
}
);
width = 471;
}
);
note = x;
unicode = 0078;
},
{
glyphname = y;
layers = (
{
anchors = (
{
name = bottom;
position = "{395, 0}";
},
{
name = top;
position = "{245, 482}";
}
);
layerId = "F333AEC5-BB61-4D5E-9EDD-6124322D28F2";
paths = (
{
closed = 1;
nodes = (
"295 0 LINE",
"483 482 LINE",
"403 482 LINE",
"236 16 LINE",
"280 16 LINE",
"116 482 LINE",
"27 482 LINE",
"217 0 LINE"
);
},
{
closed = 1;
nodes = (
"215 -217 LINE",
"295 0 LINE",
"217 0 LINE",
"130 -217 LINE"
);
}
);
width = 510;
},
{
anchors = (
{
name = bottom;
position = "{455, 0}";
},
{
name = top;
position = "{273, 490}";
}
);
layerId = "51C2DFEF-3776-4D13-9284-96485B799B57";
paths = (
{
closed = 1;
nodes = (
"366 0 LINE",
"551 490 LINE",
"379 490 LINE",
"270 124 LINE",
"292 124 LINE",
"194 490 LINE",
"3 490 LINE",
"191 0 LINE"
);
},
{
closed = 1;
nodes = (
"290 -217 LINE",
"366 0 LINE",
"191 0 LINE",
"102 -217 LINE"
);
}
);
width = 554;
},
{
anchors = (
{
name = bottom;
position = "{350, 0}";
},
{
name = top;
position = "{232, 480}";
}
);
layerId = "0B2E441B-685E-400D-9B9B-E078DEED62EF";
paths = (
{
closed = 1;
nodes = (
"254 0 LINE",
"443 480 LINE",
"422 480 LINE",
"241 14 LINE",
"250 14 LINE",
"67 480 LINE",
"44 480 LINE",
"236 0 LINE"
);
},
{
closed = 1;
nodes = (
"175 -217 LINE",
"254 0 LINE",
"236 0 LINE",
"152 -217 LINE"
);
}
);
width = 487;
}
);
note = y;
unicode = 0079;
},
{
glyphname = z;
layers = (
{
anchors = (
{
name = bottom;
position = "{235, 0}";
},
{
name = top;
position = "{235, 482}";
}
);
layerId = "F333AEC5-BB61-4D5E-9EDD-6124322D28F2";
paths = (
{
closed = 1;
nodes = (
"432 0 LINE",
"432 67 LINE",
"120 67 LINE",
"132 49 LINE",
"420 433 LINE",
"420 482 LINE",
"42 482 LINE",
"42 415 LINE",
"341 415 LINE",
"329 433 LINE",
"42 49 LINE",
"42 0 LINE"
);
}
);
width = 471;
},
{
anchors = (
{
name = bottom;
position = "{254, 0}";
},
{
name = top;
position = "{254, 490}";
}
);
layerId = "51C2DFEF-3776-4D13-9284-96485B799B57";
paths = (
{
closed = 1;
nodes = (
"476 0 LINE",
"476 141 LINE",
"179 141 LINE",
"207 80 LINE",
"463 386 LINE",
"463 490 LINE",
"37 490 LINE",
"37 349 LINE",
"322 349 LINE",
"294 411 LINE",
"37 103 LINE",
"37 0 LINE"
);
}
);
width = 508;
},
{
anchors = (
{
name = bottom;
position = "{223, 0}";
},
{
name = top;
position = "{223, 480}";
}
);
layerId = "0B2E441B-685E-400D-9B9B-E078DEED62EF";
paths = (
{
closed = 1;
nodes = (
"402 0 LINE",
"402 17 LINE",
"66 17 LINE",
"68 13 LINE",
"392 464 LINE",
"392 480 LINE",
"47 480 LINE",
"47 463 LINE",
"373 463 LINE",
"371 467 LINE",
"47 15 LINE",
"47 0 LINE"
);
}
);
width = 447;
}
);
note = z;
unicode = 007A;
},
{
glyphname = ordfeminine;
layers = (
{
anchors = (
{
name = bottom;
position = "{157, 408}";
},
{
name = ogonek;
position = "{254, 414}";
},
{
name = top;
position = "{149, 699}";
}
);
layerId = "F333AEC5-BB61-4D5E-9EDD-6124322D28F2";
paths = (
{
closed = 1;
nodes = (
"272 408 LINE",
"272 589 LINE SMOOTH",
"272 662 OFFCURVE",
"229 704 OFFCURVE",
"153 704 CURVE SMOOTH",
"111 704 OFFCURVE",
"66 691 OFFCURVE",
"33 670 CURVE",
"47 627 LINE",
"75 643 OFFCURVE",
"110 653 OFFCURVE",
"139 653 CURVE SMOOTH",
"184 653 OFFCURVE",
"208 629 OFFCURVE",
"208 588 CURVE SMOOTH",
"208 472 LINE",
"225 408 LINE"
);
},
{
closed = 1;
nodes = (
"166 402 OFFCURVE",
"207 424 OFFCURVE",
"242 474 CURVE",
"225 487 LINE",
"199 463 OFFCURVE",
"173 449 OFFCURVE",
"142 449 CURVE SMOOTH",
"109 449 OFFCURVE",
"90 465 OFFCURVE",
"90 490 CURVE SMOOTH",
"90 526 OFFCURVE",
"132 543 OFFCURVE",
"223 543 CURVE",
"223 578 LINE",
"98 578 OFFCURVE",
"26 542 OFFCURVE",
"26 479 CURVE SMOOTH",
"26 433 OFFCURVE",
"63 402 OFFCURVE",
"119 402 CURVE SMOOTH"
);
}
);
userData = {
RMXScaler = {
height = 60;
verticalShift = 408;
weight = -18;
width = 60;
};
};
width = 313;
},
{
anchors = (
{
name = bottom;
position = "{167, 403}";
},
{
name = ogonek;
position = "{269, 409}";
},
{
name = top;
position = "{161, 696}";
}
);
layerId = "51C2DFEF-3776-4D13-9284-96485B799B57";
paths = (
{
closed = 1;
nodes = (
"297 403 LINE",
"297 574 LINE SMOOTH",
"297 657 OFFCURVE",
"248 703 OFFCURVE",
"159 703 CURVE SMOOTH",
"112 703 OFFCURVE",
"65 691 OFFCURVE",
"23 666 CURVE",
"45 596 LINE",
"80 611 OFFCURVE",
"110 618 OFFCURVE",
"136 618 CURVE SMOOTH",
"175 618 OFFCURVE",
"196 603 OFFCURVE",
"196 575 CURVE SMOOTH",
"196 464 LINE",
"225 403 LINE"
);
},
{
closed = 1;
nodes = (
"191 397 OFFCURVE",
"242 442 OFFCURVE",
"264 521 CURVE",
"230 533 LINE",
"222 498 OFFCURVE",
"189 476 OFFCURVE",
"155 476 CURVE SMOOTH",
"134 476 OFFCURVE",
"120 485 OFFCURVE",
"120 498 CURVE SMOOTH",
"120 519 OFFCURVE",
"150 524 OFFCURVE",
"214 524 CURVE",
"214 584 LINE",
"88 585 OFFCURVE",
"19 544 OFFCURVE",
"19 480 CURVE SMOOTH",
"19 430 OFFCURVE",
"61 397 OFFCURVE",
"120 397 CURVE SMOOTH"
);
}
);
userData = {
RMXScaler = {
height = 60;
verticalShift = 403;
weight = -70;
width = 60;
};
};
width = 327;
},
{
anchors = (
{
name = bottom;
position = "{149, 412}";
},
{
name = ogonek;
position = "{241, 418}";
},
{
name = top;
position = "{138, 700}";
}
);
layerId = "0B2E441B-685E-400D-9B9B-E078DEED62EF";
paths = (
{
closed = 1;
nodes = (
"244 412 LINE",
"244 607 LINE SMOOTH",
"244 669 OFFCURVE",
"207 704 OFFCURVE",
"146 704 CURVE SMOOTH",
"112 704 OFFCURVE",
"75 693 OFFCURVE",
"45 673 CURVE",
"50 660 LINE",
"73 676 OFFCURVE",
"106 688 OFFCURVE",
"141 688 CURVE SMOOTH",
"196 688 OFFCURVE",
"225 659 OFFCURVE",
"225 605 CURVE SMOOTH",
"225 452 LINE",
"229 412 LINE"
);
},
{
closed = 1;
nodes = (
"171 406 OFFCURVE",
"212 428 OFFCURVE",
"236 464 CURVE",
"233 474 LINE",
"206 441 OFFCURVE",
"172 422 OFFCURVE",
"130 422 CURVE SMOOTH",
"82 422 OFFCURVE",
"53 445 OFFCURVE",
"53 481 CURVE SMOOTH",
"53 533 OFFCURVE",
"112 558 OFFCURVE",
"230 558 CURVE",
"230 573 LINE",
"105 573 OFFCURVE",
"35 539 OFFCURVE",
"35 478 CURVE SMOOTH",
"35 435 OFFCURVE",
"70 406 OFFCURVE",
"124 406 CURVE SMOOTH"
);
}
);
userData = {
RMXScaler = {
height = 60;
verticalShift = 412;
weight = -2;
width = 60;
};
};
width = 299;
}
);
unicode = 00AA;
userData = {
RMXScaler = {
source = a;
};
};
},
{
glyphname = ordmasculine;
layers = (
{
anchors = (
{
name = bottom;
position = "{173, 408}";
},
{
name = center;
position = "{173, 554}";
},
{
name = ogonek;
position = "{214, 414}";
},
{
name = top;
position = "{170, 699}";
},
{
name = topright;
position = "{277, 699}";
}
);
layerId = "F333AEC5-BB61-4D5E-9EDD-6124322D28F2";
paths = (
{
closed = 1;
nodes = (
"258 402 OFFCURVE",
"317 464 OFFCURVE",
"317 557 CURVE SMOOTH",
"317 646 OFFCURVE",
"261 704 OFFCURVE",
"177 704 CURVE SMOOTH",
"88 704 OFFCURVE",
"28 642 OFFCURVE",
"28 550 CURVE SMOOTH",
"28 461 OFFCURVE",
"84 402 OFFCURVE",
"170 402 CURVE SMOOTH"
);
},
{
closed = 1;
nodes = (
"125 455 OFFCURVE",
"92 494 OFFCURVE",
"92 554 CURVE SMOOTH",
"92 611 OFFCURVE",
"123 652 OFFCURVE",
"171 652 CURVE SMOOTH",
"221 652 OFFCURVE",
"253 611 OFFCURVE",
"253 551 CURVE SMOOTH",
"253 493 OFFCURVE",
"222 455 OFFCURVE",
"174 455 CURVE SMOOTH"
);
}
);
userData = {
RMXScaler = {
height = 60;
verticalShift = 408;
weight = -18;
width = 60;
};
};
width = 345;
},
{
anchors = (
{
name = bottom;
position = "{174, 404}";
},
{
name = center;
position = "{174, 551}";
},
{
name = ogonek;
position = "{221, 410}";
},
{
name = top;
position = "{176, 697}";
},
{
name = topright;
position = "{284, 697}";
}
);
layerId = "51C2DFEF-3776-4D13-9284-96485B799B57";
paths = (
{
closed = 1;
nodes = (
"267 398 OFFCURVE",
"333 462 OFFCURVE",
"333 557 CURVE SMOOTH",
"333 646 OFFCURVE",
"273 704 OFFCURVE",
"180 704 CURVE SMOOTH",
"82 704 OFFCURVE",
"16 640 OFFCURVE",
"16 545 CURVE SMOOTH",
"16 456 OFFCURVE",
"75 398 OFFCURVE",
"168 398 CURVE SMOOTH"
);
},
{
closed = 1;
nodes = (
"143 484 OFFCURVE",
"119 513 OFFCURVE",
"119 553 CURVE SMOOTH",
"119 592 OFFCURVE",
"140 618 OFFCURVE",
"172 618 CURVE SMOOTH",
"206 618 OFFCURVE",
"230 588 OFFCURVE",
"230 547 CURVE SMOOTH",
"230 510 OFFCURVE",
"209 484 OFFCURVE",
"177 484 CURVE SMOOTH"
);
}
);
userData = {
RMXScaler = {
height = 60;
verticalShift = 404;
weight = -69;
width = 60;
};
};
width = 349;
},
{
anchors = (
{
name = bottom;
position = "{170, 412}";
},
{
name = center;
position = "{170, 556}";
},
{
name = ogonek;
position = "{217, 418}";
},
{
name = top;
position = "{165, 700}";
},
{
name = topright;
position = "{269, 700}";
}
);
layerId = "0B2E441B-685E-400D-9B9B-E078DEED62EF";
paths = (
{
closed = 1;
nodes = (
"245 406 OFFCURVE",
"298 466 OFFCURVE",
"298 557 CURVE SMOOTH",
"298 645 OFFCURVE",
"247 704 OFFCURVE",
"171 704 CURVE SMOOTH",
"93 704 OFFCURVE",
"41 644 OFFCURVE",
"41 554 CURVE SMOOTH",
"41 465 OFFCURVE",
"92 406 OFFCURVE",
"169 406 CURVE SMOOTH"
);
},
{
closed = 1;
nodes = (
"104 422 OFFCURVE",
"59 476 OFFCURVE",
"59 556 CURVE SMOOTH",
"59 634 OFFCURVE",
"101 688 OFFCURVE",
"168 688 CURVE SMOOTH",
"235 688 OFFCURVE",
"279 635 OFFCURVE",
"279 554 CURVE SMOOTH",
"279 474 OFFCURVE",
"236 422 OFFCURVE",
"171 422 CURVE SMOOTH"
);
}
);
userData = {
RMXScaler = {
height = 60;
verticalShift = 412;
weight = -2;
width = 60;
};
};
width = 339;
}
);
unicode = 00BA;
userData = {
RMXScaler = {
source = o;
};
};
},
{
glyphname = pi;
layers = (
{
layerId = "F333AEC5-BB61-4D5E-9EDD-6124322D28F2";
paths = (
{
closed = 1;
nodes = (
"535 -10 OFFCURVE",
"561 -2 OFFCURVE",
"580 7 CURVE",
"566 63 LINE",
"557 59 OFFCURVE",
"545 55 OFFCURVE",
"532 55 CURVE SMOOTH",
"501 55 OFFCURVE",
"484 77 OFFCURVE",
"484 124 CURVE SMOOTH",
"484 425 LINE",
"404 425 LINE",
"404 114 LINE SMOOTH",
"404 34 OFFCURVE",
"445 -10 OFFCURVE",
"508 -10 CURVE SMOOTH"
);
},
{
closed = 1;
nodes = (
"188 0 LINE",
"188 425 LINE",
"108 425 LINE",
"108 0 LINE"
);
},
{
closed = 1;
nodes = (
"563 415 LINE",
"563 482 LINE",
"28 482 LINE",
"28 415 LINE"
);
}
);
width = 615;
},
{
layerId = "51C2DFEF-3776-4D13-9284-96485B799B57";
paths = (
{
closed = 1;
nodes = (
"595 -8 OFFCURVE",
"630 1 OFFCURVE",
"671 21 CURVE",
"642 139 LINE",
"624 134 OFFCURVE",
"609 130 OFFCURVE",
"597 130 CURVE SMOOTH",
"565 130 OFFCURVE",
"547 157 OFFCURVE",
"547 201 CURVE SMOOTH",
"547 425 LINE",
"374 425 LINE",
"374 182 LINE SMOOTH",
"374 63 OFFCURVE",
"440 -8 OFFCURVE",
"555 -8 CURVE SMOOTH"
);
},
{
closed = 1;
nodes = (
"278 0 LINE",
"278 425 LINE",
"105 425 LINE",
"105 0 LINE"
);
},
{
closed = 1;
nodes = (
"649 355 LINE",
"649 490 LINE",
"14 490 LINE",
"14 355 LINE"
);
}
);
width = 695;
},
{
layerId = "0B2E441B-685E-400D-9B9B-E078DEED62EF";
paths = (
{
closed = 1;
nodes = (
"490 -10 OFFCURVE",
"508 -5 OFFCURVE",
"523 4 CURVE",
"520 17 LINE",
"506 11 OFFCURVE",
"488 7 OFFCURVE",
"474 7 CURVE SMOOTH",
"450 7 OFFCURVE",
"434 30 OFFCURVE",
"434 64 CURVE SMOOTH",
"434 471 LINE",
"413 471 LINE",
"413 64 LINE SMOOTH",
"413 20 OFFCURVE",
"437 -10 OFFCURVE",
"472 -10 CURVE SMOOTH"
);
},
{
closed = 1;
nodes = (
"138 0 LINE",
"138 471 LINE",
"117 471 LINE",
"117 0 LINE"
);
},
{
closed = 1;
nodes = (
"512 463 LINE",
"512 480 LINE",
"37 480 LINE",
"37 463 LINE"
);
}
);
width = 566;
}
);
unicode = 03C0;
},
{
glyphname = zero;
layers = (
{
anchors = (
{
name = slash;
position = "{319, 350}";
}
);
layerId = "F333AEC5-BB61-4D5E-9EDD-6124322D28F2";
paths = (
{
closed = 1;
nodes = (
"474 -10 OFFCURVE",
"568 125 OFFCURVE",
"568 352 CURVE SMOOTH",
"568 573 OFFCURVE",
"477 704 OFFCURVE",
"324 704 CURVE SMOOTH",
"164 704 OFFCURVE",
"69 570 OFFCURVE",
"69 342 CURVE SMOOTH",
"69 121 OFFCURVE",
"161 -10 OFFCURVE",
"316 -10 CURVE SMOOTH"
);
},
{
closed = 1;
nodes = (
"217 62 OFFCURVE",
"154 170 OFFCURVE",
"154 352 CURVE SMOOTH",
"154 528 OFFCURVE",
"215 632 OFFCURVE",
"317 632 CURVE SMOOTH",
"421 632 OFFCURVE",
"483 524 OFFCURVE",
"483 342 CURVE SMOOTH",
"483 166 OFFCURVE",
"424 62 OFFCURVE",
"323 62 CURVE SMOOTH"
);
}
);
width = 638;
},
{
anchors = (
{
name = slash;
position = "{333, 345}";
}
);
layerId = "51C2DFEF-3776-4D13-9284-96485B799B57";
paths = (
{
closed = 1;
nodes = (
"505 -10 OFFCURVE",
"624 134 OFFCURVE",
"624 351 CURVE SMOOTH",
"624 563 OFFCURVE",
"507 704 OFFCURVE",
"334 704 CURVE SMOOTH",
"157 704 OFFCURVE",
"38 560 OFFCURVE",
"38 344 CURVE SMOOTH",
"38 132 OFFCURVE",
"155 -10 OFFCURVE",
"329 -10 CURVE SMOOTH"
);
},
{
closed = 1;
nodes = (
"262 138 OFFCURVE",
"216 223 OFFCURVE",
"216 350 CURVE SMOOTH",
"216 474 OFFCURVE",
"262 556 OFFCURVE",
"330 556 CURVE SMOOTH",
"399 556 OFFCURVE",
"446 471 OFFCURVE",
"446 343 CURVE SMOOTH",
"446 220 OFFCURVE",
"400 138 OFFCURVE",
"333 138 CURVE SMOOTH"
);
}
);
width = 662;
},
{
anchors = (
{
name = slash;
position = "{317, 350}";
}
);
layerId = "0B2E441B-685E-400D-9B9B-E078DEED62EF";
paths = (
{
closed = 1;
nodes = (
"439 -10 OFFCURVE",
"526 131 OFFCURVE",
"526 343 CURVE SMOOTH",
"526 556 OFFCURVE",
"440 699 OFFCURVE",
"312 699 CURVE SMOOTH",
"179 699 OFFCURVE",
"91 555 OFFCURVE",
"91 340 CURVE SMOOTH",
"91 130 OFFCURVE",
"178 -10 OFFCURVE",
"308 -10 CURVE SMOOTH"
);
},
{
closed = 1;
nodes = (
"192 8 OFFCURVE",
"112 142 OFFCURVE",
"112 343 CURVE SMOOTH",
"112 546 OFFCURVE",
"191 681 OFFCURVE",
"309 681 CURVE SMOOTH",
"427 681 OFFCURVE",
"505 544 OFFCURVE",
"505 340 CURVE SMOOTH",
"505 141 OFFCURVE",
"427 8 OFFCURVE",
"311 8 CURVE SMOOTH"
);
}
);
width = 617;
}
);
note = zero;
unicode = 0030;
},
{
glyphname = one;
layers = (
{
layerId = "F333AEC5-BB61-4D5E-9EDD-6124322D28F2";
paths = (
{
closed = 1;
nodes = (
"320 55 LINE",
"320 694 LINE",
"268 694 LINE",
"48 565 LINE",
"78 508 LINE",
"265 608 LINE",
"235 635 LINE",
"235 55 LINE"
);
},
{
closed = 1;
nodes = (
"472 0 LINE",
"472 71 LINE",
"59 71 LINE",
"59 0 LINE"
);
}
);
width = 512;
},
{
layerId = "51C2DFEF-3776-4D13-9284-96485B799B57";
paths = (
{
closed = 1;
nodes = (
"401 131 LINE",
"401 694 LINE",
"297 694 LINE",
"18 549 LINE",
"75 425 LINE",
"282 508 LINE",
"227 569 LINE",
"227 131 LINE"
);
},
{
closed = 1;
nodes = (
"557 0 LINE",
"557 148 LINE",
"55 148 LINE",
"55 0 LINE"
);
}
);
width = 577;
},
{
layerId = "0B2E441B-685E-400D-9B9B-E078DEED62EF";
paths = (
{
closed = 1;
nodes = (
"270 7 LINE",
"270 694 LINE",
"259 694 LINE",
"74 574 LINE",
"82 560 LINE",
"259 673 LINE",
"251 677 LINE",
"251 7 LINE"
);
},
{
closed = 1;
nodes = (
"431 0 LINE",
"431 17 LINE",
"72 17 LINE",
"72 0 LINE"
);
}
);
width = 487;
}
);
note = one;
unicode = 0031;
},
{
glyphname = two;
layers = (
{
layerId = "F333AEC5-BB61-4D5E-9EDD-6124322D28F2";
paths = (
{
closed = 1;
nodes = (
"505 0 LINE",
"505 72 LINE",
"144 72 LINE",
"152 48 LINE",
"384 266 OFFCURVE",
"475 383 OFFCURVE",
"475 510 CURVE SMOOTH",
"475 630 OFFCURVE",
"395 704 OFFCURVE",
"260 704 CURVE SMOOTH",
"187 704 OFFCURVE",
"110 682 OFFCURVE",
"48 644 CURVE",
"67 583 LINE",
"127 614 OFFCURVE",
"188 631 OFFCURVE",
"240 631 CURVE SMOOTH",
"330 631 OFFCURVE",
"390 579 OFFCURVE",
"390 495 CURVE SMOOTH",
"390 397 OFFCURVE",
"311 291 OFFCURVE",
"60 55 CURVE",
"60 0 LINE"
);
}
);
width = 557;
},
{
layerId = "51C2DFEF-3776-4D13-9284-96485B799B57";
paths = (
{
closed = 1;
nodes = (
"552 0 LINE",
"552 150 LINE",
"256 150 LINE",
"257 114 LINE",
"401 213 OFFCURVE",
"533 341 OFFCURVE",
"533 489 CURVE SMOOTH",
"533 618 OFFCURVE",
"433 704 OFFCURVE",
"264 704 CURVE SMOOTH",
"180 704 OFFCURVE",
"98 683 OFFCURVE",
"26 644 CURVE",
"65 513 LINE",
"131 543 OFFCURVE",
"181 556 OFFCURVE",
"228 556 CURVE SMOOTH",
"308 556 OFFCURVE",
"353 519 OFFCURVE",
"353 463 CURVE SMOOTH",
"353 376 OFFCURVE",
"241 272 OFFCURVE",
"52 122 CURVE",
"52 0 LINE"
);
}
);
width = 590;
},
{
layerId = "0B2E441B-685E-400D-9B9B-E078DEED62EF";
paths = (
{
closed = 1;
nodes = (
"470 0 LINE",
"470 17 LINE",
"84 17 LINE",
"88 10 LINE",
"386 310 OFFCURVE",
"443 405 OFFCURVE",
"443 509 CURVE SMOOTH",
"443 630 OFFCURVE",
"367 704 OFFCURVE",
"245 704 CURVE SMOOTH",
"182 704 OFFCURVE",
"118 685 OFFCURVE",
"64 649 CURVE",
"69 633 LINE",
"131 669 OFFCURVE",
"185 686 OFFCURVE",
"241 686 CURVE SMOOTH",
"352 686 OFFCURVE",
"422 617 OFFCURVE",
"422 507 CURVE SMOOTH",
"422 406 OFFCURVE",
"364 311 OFFCURVE",
"64 8 CURVE",
"64 0 LINE"
);
}
);
width = 538;
}
);
note = two;
unicode = 0032;
},
{
glyphname = three;
layers = (
{
layerId = "F333AEC5-BB61-4D5E-9EDD-6124322D28F2";
paths = (
{
closed = 1;
nodes = (
"413 -10 OFFCURVE",
"516 68 OFFCURVE",
"516 182 CURVE SMOOTH",
"516 284 OFFCURVE",
"436 361 OFFCURVE",
"318 373 CURVE",
"317 358 LINE",
"413 361 OFFCURVE",
"479 436 OFFCURVE",
"479 527 CURVE SMOOTH",
"479 632 OFFCURVE",
"393 704 OFFCURVE",
"268 704 CURVE SMOOTH",
"200 704 OFFCURVE",
"125 683 OFFCURVE",
"64 647 CURVE",
"83 586 LINE",
"141 614 OFFCURVE",
"201 631 OFFCURVE",
"251 631 CURVE SMOOTH",
"338 631 OFFCURVE",
"394 585 OFFCURVE",
"394 514 CURVE SMOOTH",
"394 432 OFFCURVE",
"318 386 OFFCURVE",
"181 386 CURVE",
"181 318 LINE",
"338 318 OFFCURVE",
"431 265 OFFCURVE",
"431 175 CURVE SMOOTH",
"431 105 OFFCURVE",
"372 63 OFFCURVE",
"271 63 CURVE SMOOTH",
"206 63 OFFCURVE",
"131 81 OFFCURVE",
"69 112 CURVE",
"50 43 LINE",
"115 9 OFFCURVE",
"189 -10 OFFCURVE",
"263 -10 CURVE SMOOTH"
);
}
);
width = 573;
},
{
layerId = "51C2DFEF-3776-4D13-9284-96485B799B57";
paths = (
{
closed = 1;
nodes = (
"434 -10 OFFCURVE",
"551 67 OFFCURVE",
"551 193 CURVE SMOOTH",
"551 290 OFFCURVE",
"483 360 OFFCURVE",
"378 370 CURVE",
"352 353 LINE",
"451 359 OFFCURVE",
"513 422 OFFCURVE",
"513 518 CURVE SMOOTH",
"513 634 OFFCURVE",
"423 704 OFFCURVE",
"270 704 CURVE SMOOTH",
"191 704 OFFCURVE",
"110 685 OFFCURVE",
"36 644 CURVE",
"75 513 LINE",
"135 540 OFFCURVE",
"188 556 OFFCURVE",
"236 556 CURVE SMOOTH",
"294 556 OFFCURVE",
"333 532 OFFCURVE",
"333 494 CURVE SMOOTH",
"333 447 OFFCURVE",
"265 415 OFFCURVE",
"164 415 CURVE",
"164 277 LINE",
"294 277 OFFCURVE",
"371 247 OFFCURVE",
"371 197 CURVE SMOOTH",
"371 160 OFFCURVE",
"328 138 OFFCURVE",
"253 138 CURVE SMOOTH",
"194 138 OFFCURVE",
"127 152 OFFCURVE",
"71 176 CURVE",
"26 39 LINE",
"92 5 OFFCURVE",
"159 -10 OFFCURVE",
"243 -10 CURVE SMOOTH"
);
}
);
width = 581;
},
{
layerId = "0B2E441B-685E-400D-9B9B-E078DEED62EF";
paths = (
{
closed = 1;
nodes = (
"408 -10 OFFCURVE",
"495 60 OFFCURVE",
"495 170 CURVE SMOOTH",
"495 273 OFFCURVE",
"418 337 OFFCURVE",
"271 356 CURVE",
"271 352 LINE",
"384 359 OFFCURVE",
"458 429 OFFCURVE",
"458 528 CURVE SMOOTH",
"458 632 OFFCURVE",
"378 704 OFFCURVE",
"261 704 CURVE SMOOTH",
"197 704 OFFCURVE",
"133 683 OFFCURVE",
"81 645 CURVE",
"86 629 LINE",
"146 668 OFFCURVE",
"200 686 OFFCURVE",
"257 686 CURVE SMOOTH",
"365 686 OFFCURVE",
"437 624 OFFCURVE",
"437 524 CURVE SMOOTH",
"437 416 OFFCURVE",
"355 361 OFFCURVE",
"194 361 CURVE",
"194 344 LINE",
"374 344 OFFCURVE",
"475 281 OFFCURVE",
"475 168 CURVE SMOOTH",
"475 69 OFFCURVE",
"398 9 OFFCURVE",
"273 9 CURVE SMOOTH",
"202 9 OFFCURVE",
"127 29 OFFCURVE",
"67 63 CURVE",
"62 45 LINE",
"120 11 OFFCURVE",
"199 -10 OFFCURVE",
"272 -10 CURVE SMOOTH"
);
}
);
width = 573;
}
);
note = three;
unicode = 0033;
},
{
glyphname = four;
layers = (
{
layerId = "F333AEC5-BB61-4D5E-9EDD-6124322D28F2";
paths = (
{
closed = 1;
nodes = (
"464 -10 LINE",
"464 694 LINE",
"402 694 LINE",
"42 206 LINE",
"42 161 LINE",
"589 161 LINE",
"589 236 LINE",
"128 236 LINE",
"128 214 LINE",
"389 567 LINE",
"381 567 LINE",
"381 -10 LINE"
);
}
);
width = 633;
},
{
layerId = "51C2DFEF-3776-4D13-9284-96485B799B57";
paths = (
{
closed = 1;
nodes = (
"511 -5 LINE",
"511 694 LINE",
"372 694 LINE",
"19 215 LINE",
"19 122 LINE",
"633 122 LINE",
"633 272 LINE",
"107 274 LINE",
"162 217 LINE",
"393 534 LINE",
"337 583 LINE",
"337 -5 LINE"
);
}
);
width = 657;
},
{
layerId = "0B2E441B-685E-400D-9B9B-E078DEED62EF";
paths = (
{
closed = 1;
nodes = (
"434 -10 LINE",
"434 694 LINE",
"421 694 LINE",
"60 200 LINE",
"60 190 LINE",
"556 190 LINE",
"556 207 LINE",
"82 207 LINE",
"82 202 LINE",
"419 662 LINE",
"416 665 LINE",
"416 -10 LINE"
);
}
);
width = 615;
}
);
note = four;
unicode = 0034;
},
{
glyphname = five;
layers = (
{
layerId = "F333AEC5-BB61-4D5E-9EDD-6124322D28F2";
paths = (
{
closed = 1;
nodes = (
"408 -10 OFFCURVE",
"511 77 OFFCURVE",
"511 215 CURVE SMOOTH",
"511 346 OFFCURVE",
"418 427 OFFCURVE",
"262 427 CURVE SMOOTH",
"227 427 OFFCURVE",
"189 423 OFFCURVE",
"151 415 CURVE",
"170 389 LINE",
"181 622 LINE",
"478 622 LINE",
"478 694 LINE",
"106 694 LINE",
"89 338 LINE",
"140 349 OFFCURVE",
"195 355 OFFCURVE",
"234 355 CURVE SMOOTH",
"356 355 OFFCURVE",
"426 298 OFFCURVE",
"426 205 CURVE SMOOTH",
"426 116 OFFCURVE",
"362 63 OFFCURVE",
"260 63 CURVE SMOOTH",
"200 63 OFFCURVE",
"135 80 OFFCURVE",
"80 108 CURVE",
"56 41 LINE",
"119 8 OFFCURVE",
"183 -10 OFFCURVE",
"252 -10 CURVE SMOOTH"
);
}
);
width = 569;
},
{
layerId = "51C2DFEF-3776-4D13-9284-96485B799B57";
paths = (
{
closed = 1;
nodes = (
"437 -10 OFFCURVE",
"554 81 OFFCURVE",
"554 226 CURVE SMOOTH",
"554 362 OFFCURVE",
"453 441 OFFCURVE",
"279 441 CURVE SMOOTH",
"238 441 OFFCURVE",
"199 437 OFFCURVE",
"170 429 CURVE",
"250 365 LINE",
"258 543 LINE",
"517 543 LINE",
"517 694 LINE",
"89 694 LINE",
"71 287 LINE",
"114 295 OFFCURVE",
"169 301 OFFCURVE",
"210 301 CURVE SMOOTH",
"314 301 OFFCURVE",
"374 268 OFFCURVE",
"374 212 CURVE SMOOTH",
"374 165 OFFCURVE",
"331 140 OFFCURVE",
"253 140 CURVE SMOOTH",
"193 140 OFFCURVE",
"126 155 OFFCURVE",
"76 179 CURVE",
"29 41 LINE",
"96 7 OFFCURVE",
"172 -10 OFFCURVE",
"252 -10 CURVE SMOOTH"
);
}
);
width = 589;
},
{
layerId = "0B2E441B-685E-400D-9B9B-E078DEED62EF";
paths = (
{
closed = 1;
nodes = (
"400 -10 OFFCURVE",
"486 80 OFFCURVE",
"486 203 CURVE SMOOTH",
"486 326 OFFCURVE",
"399 403 OFFCURVE",
"254 403 CURVE SMOOTH",
"217 403 OFFCURVE",
"167 398 OFFCURVE",
"117 388 CURVE",
"129 384 LINE",
"142 677 LINE",
"457 677 LINE",
"457 694 LINE",
"124 694 LINE",
"108 369 LINE",
"154 379 OFFCURVE",
"206 385 OFFCURVE",
"247 385 CURVE SMOOTH",
"391 385 OFFCURVE",
"465 310 OFFCURVE",
"465 201 CURVE SMOOTH",
"465 88 OFFCURVE",
"387 9 OFFCURVE",
"266 9 CURVE SMOOTH",
"204 9 OFFCURVE",
"132 29 OFFCURVE",
"87 58 CURVE",
"81 41 LINE",
"131 9 OFFCURVE",
"198 -10 OFFCURVE",
"262 -10 CURVE SMOOTH"
);
}
);
width = 562;
}
);
note = five;
unicode = 0035;
},
{
glyphname = six;
layers = (
{
layerId = "F333AEC5-BB61-4D5E-9EDD-6124322D28F2";
paths = (
{
closed = 1;
nodes = (
"449 -10 OFFCURVE",
"542 80 OFFCURVE",
"542 213 CURVE SMOOTH",
"542 338 OFFCURVE",
"460 424 OFFCURVE",
"340 424 CURVE SMOOTH",
"239 424 OFFCURVE",
"159 364 OFFCURVE",
"113 256 CURVE",
"135 213 LINE",
"169 302 OFFCURVE",
"232 352 OFFCURVE",
"311 352 CURVE SMOOTH",
"398 352 OFFCURVE",
"457 291 OFFCURVE",
"457 199 CURVE SMOOTH",
"457 115 OFFCURVE",
"408 63 OFFCURVE",
"327 63 CURVE SMOOTH",
"218 63 OFFCURVE",
"158 159 OFFCURVE",
"158 334 CURVE SMOOTH",
"158 535 OFFCURVE",
"235 631 OFFCURVE",
"364 631 CURVE SMOOTH",
"415 631 OFFCURVE",
"471 618 OFFCURVE",
"508 595 CURVE",
"532 660 LINE",
"497 687 OFFCURVE",
"438 704 OFFCURVE",
"373 704 CURVE SMOOTH",
"184 704 OFFCURVE",
"68 567 OFFCURVE",
"68 328 CURVE SMOOTH",
"68 110 OFFCURVE",
"165 -10 OFFCURVE",
"317 -10 CURVE SMOOTH"
);
}
);
width = 603;
},
{
layerId = "51C2DFEF-3776-4D13-9284-96485B799B57";
paths = (
{
closed = 1;
nodes = (
"477 -10 OFFCURVE",
"583 87 OFFCURVE",
"583 232 CURVE SMOOTH",
"583 362 OFFCURVE",
"500 449 OFFCURVE",
"376 449 CURVE SMOOTH",
"282 449 OFFCURVE",
"210 399 OFFCURVE",
"168 315 CURVE",
"211 255 LINE",
"238 280 OFFCURVE",
"279 301 OFFCURVE",
"322 301 CURVE SMOOTH",
"373 301 OFFCURVE",
"407 268 OFFCURVE",
"407 219 CURVE SMOOTH",
"407 170 OFFCURVE",
"375 138 OFFCURVE",
"330 138 CURVE SMOOTH",
"260 138 OFFCURVE",
"221 210 OFFCURVE",
"221 338 CURVE SMOOTH",
"221 490 OFFCURVE",
"271 556 OFFCURVE",
"386 556 CURVE SMOOTH",
"434 556 OFFCURVE",
"481 545 OFFCURVE",
"526 523 CURVE",
"572 663 LINE",
"515 690 OFFCURVE",
"449 704 OFFCURVE",
"379 704 CURVE SMOOTH",
"157 704 OFFCURVE",
"40 573 OFFCURVE",
"40 322 CURVE SMOOTH",
"40 110 OFFCURVE",
"141 -10 OFFCURVE",
"318 -10 CURVE SMOOTH"
);
}
);
width = 620;
},
{
layerId = "0B2E441B-685E-400D-9B9B-E078DEED62EF";
paths = (
{
closed = 1;
nodes = (
"439 -10 OFFCURVE",
"521 77 OFFCURVE",
"521 206 CURVE SMOOTH",
"521 333 OFFCURVE",
"441 410 OFFCURVE",
"322 410 CURVE SMOOTH",
"225 410 OFFCURVE",
"149 361 OFFCURVE",
"103 270 CURVE",
"103 239 LINE",
"147 337 OFFCURVE",
"224 392 OFFCURVE",
"320 392 CURVE SMOOTH",
"426 392 OFFCURVE",
"500 322 OFFCURVE",
"500 203 CURVE SMOOTH",
"500 86 OFFCURVE",
"428 8 OFFCURVE",
"320 8 CURVE SMOOTH",
"188 8 OFFCURVE",
"112 125 OFFCURVE",
"112 322 CURVE SMOOTH",
"112 560 OFFCURVE",
"199 686 OFFCURVE",
"363 686 CURVE SMOOTH",
"414 686 OFFCURVE",
"464 673 OFFCURVE",
"502 650 CURVE",
"509 667 LINE",
"468 691 OFFCURVE",
"419 704 OFFCURVE",
"365 704 CURVE SMOOTH",
"186 704 OFFCURVE",
"91 570 OFFCURVE",
"91 319 CURVE SMOOTH",
"91 113 OFFCURVE",
"175 -10 OFFCURVE",
"319 -10 CURVE SMOOTH"
);
}
);
width = 600;
}
);
note = six;
unicode = 0036;
},
{
glyphname = seven;
layers = (
{
layerId = "F333AEC5-BB61-4D5E-9EDD-6124322D28F2";
paths = (
{
closed = 1;
nodes = (
"217 0 LINE",
"505 654 LINE",
"505 694 LINE",
"40 694 LINE",
"40 622 LINE",
"440 622 LINE",
"419 652 LINE",
"130 0 LINE"
);
}
);
width = 547;
},
{
layerId = "51C2DFEF-3776-4D13-9284-96485B799B57";
paths = (
{
closed = 1;
nodes = (
"260 0 LINE",
"537 590 LINE",
"537 694 LINE",
"22 694 LINE",
"22 540 LINE",
"383 540 LINE",
"352 587 LINE",
"73 0 LINE"
);
}
);
width = 557;
},
{
layerId = "0B2E441B-685E-400D-9B9B-E078DEED62EF";
paths = (
{
closed = 1;
nodes = (
"191 0 LINE",
"482 682 LINE",
"482 694 LINE",
"55 694 LINE",
"55 676 LINE",
"465 676 LINE",
"462 685 LINE",
"168 0 LINE"
);
}
);
width = 542;
}
);
note = seven;
unicode = 0037;
},
{
glyphname = eight;
layers = (
{
layerId = "F333AEC5-BB61-4D5E-9EDD-6124322D28F2";
paths = (
{
closed = 1;
nodes = (
"449 -10 OFFCURVE",
"544 63 OFFCURVE",
"544 176 CURVE SMOOTH",
"544 401 OFFCURVE",
"169 359 OFFCURVE",
"169 534 CURVE SMOOTH",
"169 595 OFFCURVE",
"216 633 OFFCURVE",
"293 633 CURVE SMOOTH",
"377 633 OFFCURVE",
"434 589 OFFCURVE",
"434 523 CURVE SMOOTH",
"434 458 OFFCURVE",
"379 402 OFFCURVE",
"298 387 CURVE",
"361 356 LINE",
"455 384 OFFCURVE",
"513 453 OFFCURVE",
"513 537 CURVE SMOOTH",
"513 637 OFFCURVE",
"430 704 OFFCURVE",
"305 704 CURVE SMOOTH",
"173 704 OFFCURVE",
"86 631 OFFCURVE",
"86 521 CURVE SMOOTH",
"86 290 OFFCURVE",
"459 344 OFFCURVE",
"459 169 CURVE SMOOTH",
"459 102 OFFCURVE",
"408 63 OFFCURVE",
"317 63 CURVE SMOOTH",
"215 63 OFFCURVE",
"147 112 OFFCURVE",
"147 185 CURVE SMOOTH",
"147 257 OFFCURVE",
"210 315 OFFCURVE",
"302 328 CURVE",
"248 361 LINE",
"136 346 OFFCURVE",
"62 271 OFFCURVE",
"62 174 CURVE SMOOTH",
"62 64 OFFCURVE",
"158 -10 OFFCURVE",
"303 -10 CURVE SMOOTH"
);
}
);
width = 603;
},
{
layerId = "51C2DFEF-3776-4D13-9284-96485B799B57";
paths = (
{
closed = 1;
nodes = (
"479 -10 OFFCURVE",
"591 76 OFFCURVE",
"591 206 CURVE SMOOTH",
"591 429 OFFCURVE",
"233 385 OFFCURVE",
"233 498 CURVE SMOOTH",
"233 533 OFFCURVE",
"264 556 OFFCURVE",
"312 556 CURVE SMOOTH",
"359 556 OFFCURVE",
"390 533 OFFCURVE",
"390 497 CURVE SMOOTH",
"390 456 OFFCURVE",
"356 424 OFFCURVE",
"306 419 CURVE",
"423 359 LINE",
"516 393 OFFCURVE",
"568 455 OFFCURVE",
"568 529 CURVE SMOOTH",
"568 634 OFFCURVE",
"467 704 OFFCURVE",
"318 704 CURVE SMOOTH",
"160 704 OFFCURVE",
"55 619 OFFCURVE",
"55 492 CURVE SMOOTH",
"55 260 OFFCURVE",
"413 306 OFFCURVE",
"413 197 CURVE SMOOTH",
"413 162 OFFCURVE",
"375 138 OFFCURVE",
"320 138 CURVE SMOOTH",
"256 138 OFFCURVE",
"214 169 OFFCURVE",
"214 215 CURVE SMOOTH",
"214 260 OFFCURVE",
"254 292 OFFCURVE",
"314 294 CURVE",
"215 357 LINE",
"103 337 OFFCURVE",
"36 273 OFFCURVE",
"36 185 CURVE SMOOTH",
"36 68 OFFCURVE",
"146 -10 OFFCURVE",
"311 -10 CURVE SMOOTH"
);
}
);
width = 625;
},
{
layerId = "0B2E441B-685E-400D-9B9B-E078DEED62EF";
paths = (
{
closed = 1;
nodes = (
"433 -10 OFFCURVE",
"520 57 OFFCURVE",
"520 163 CURVE SMOOTH",
"520 389 OFFCURVE",
"125 324 OFFCURVE",
"125 540 CURVE SMOOTH",
"125 629 OFFCURVE",
"192 687 OFFCURVE",
"290 687 CURVE SMOOTH",
"388 687 OFFCURVE",
"463 628 OFFCURVE",
"463 543 CURVE SMOOTH",
"463 460 OFFCURVE",
"391 397 OFFCURVE",
"282 369 CURVE",
"298 358 LINE",
"411 385 OFFCURVE",
"482 454 OFFCURVE",
"482 543 CURVE SMOOTH",
"482 639 OFFCURVE",
"401 704 OFFCURVE",
"292 704 CURVE SMOOTH",
"182 704 OFFCURVE",
"106 639 OFFCURVE",
"106 538 CURVE SMOOTH",
"106 307 OFFCURVE",
"500 372 OFFCURVE",
"500 161 CURVE SMOOTH",
"500 67 OFFCURVE",
"423 7 OFFCURVE",
"305 7 CURVE SMOOTH",
"184 7 OFFCURVE",
"101 71 OFFCURVE",
"101 166 CURVE SMOOTH",
"101 254 OFFCURVE",
"173 325 OFFCURVE",
"282 352 CURVE",
"266 363 LINE",
"155 338 OFFCURVE",
"81 260 OFFCURVE",
"81 164 CURVE SMOOTH",
"81 60 OFFCURVE",
"170 -10 OFFCURVE",
"303 -10 CURVE SMOOTH"
);
}
);
width = 597;
}
);
note = eight;
unicode = 0038;
},
{
glyphname = nine;
layers = (
{
layerId = "F333AEC5-BB61-4D5E-9EDD-6124322D28F2";
paths = (
{
closed = 1;
nodes = (
"155 704 OFFCURVE",
"62 614 OFFCURVE",
"62 481 CURVE SMOOTH",
"62 356 OFFCURVE",
"144 270 OFFCURVE",
"264 270 CURVE SMOOTH",
"365 270 OFFCURVE",
"445 330 OFFCURVE",
"491 438 CURVE",
"469 481 LINE",
"435 392 OFFCURVE",
"372 342 OFFCURVE",
"293 342 CURVE SMOOTH",
"206 342 OFFCURVE",
"147 403 OFFCURVE",
"147 495 CURVE SMOOTH",
"147 579 OFFCURVE",
"196 631 OFFCURVE",
"277 631 CURVE SMOOTH",
"386 631 OFFCURVE",
"446 535 OFFCURVE",
"446 360 CURVE SMOOTH",
"446 159 OFFCURVE",
"369 63 OFFCURVE",
"240 63 CURVE SMOOTH",
"189 63 OFFCURVE",
"133 76 OFFCURVE",
"96 99 CURVE",
"72 34 LINE",
"107 7 OFFCURVE",
"166 -10 OFFCURVE",
"231 -10 CURVE SMOOTH",
"420 -10 OFFCURVE",
"536 127 OFFCURVE",
"536 366 CURVE SMOOTH",
"536 584 OFFCURVE",
"439 704 OFFCURVE",
"287 704 CURVE SMOOTH"
);
}
);
width = 604;
},
{
layerId = "51C2DFEF-3776-4D13-9284-96485B799B57";
paths = (
{
closed = 1;
nodes = (
"145 704 OFFCURVE",
"39 607 OFFCURVE",
"39 462 CURVE SMOOTH",
"39 332 OFFCURVE",
"122 245 OFFCURVE",
"246 245 CURVE SMOOTH",
"340 245 OFFCURVE",
"412 295 OFFCURVE",
"454 379 CURVE",
"411 439 LINE",
"380 410 OFFCURVE",
"338 393 OFFCURVE",
"300 393 CURVE SMOOTH",
"249 393 OFFCURVE",
"215 426 OFFCURVE",
"215 475 CURVE SMOOTH",
"215 524 OFFCURVE",
"247 556 OFFCURVE",
"292 556 CURVE SMOOTH",
"362 556 OFFCURVE",
"401 484 OFFCURVE",
"401 356 CURVE SMOOTH",
"401 204 OFFCURVE",
"351 138 OFFCURVE",
"236 138 CURVE SMOOTH",
"188 138 OFFCURVE",
"141 149 OFFCURVE",
"96 171 CURVE",
"50 31 LINE",
"107 4 OFFCURVE",
"173 -10 OFFCURVE",
"243 -10 CURVE SMOOTH",
"465 -10 OFFCURVE",
"582 121 OFFCURVE",
"582 372 CURVE SMOOTH",
"582 584 OFFCURVE",
"481 704 OFFCURVE",
"304 704 CURVE SMOOTH"
);
}
);
width = 622;
},
{
layerId = "0B2E441B-685E-400D-9B9B-E078DEED62EF";
paths = (
{
closed = 1;
nodes = (
"161 704 OFFCURVE",
"79 617 OFFCURVE",
"79 488 CURVE SMOOTH",
"79 361 OFFCURVE",
"159 284 OFFCURVE",
"278 284 CURVE SMOOTH",
"375 284 OFFCURVE",
"451 333 OFFCURVE",
"497 424 CURVE",
"497 455 LINE",
"453 357 OFFCURVE",
"376 302 OFFCURVE",
"280 302 CURVE SMOOTH",
"174 302 OFFCURVE",
"100 372 OFFCURVE",
"100 491 CURVE SMOOTH",
"100 608 OFFCURVE",
"172 686 OFFCURVE",
"280 686 CURVE SMOOTH",
"412 686 OFFCURVE",
"488 569 OFFCURVE",
"488 372 CURVE SMOOTH",
"488 134 OFFCURVE",
"401 8 OFFCURVE",
"237 8 CURVE SMOOTH",
"186 8 OFFCURVE",
"136 21 OFFCURVE",
"98 44 CURVE",
"91 27 LINE",
"132 3 OFFCURVE",
"181 -10 OFFCURVE",
"235 -10 CURVE SMOOTH",
"414 -10 OFFCURVE",
"509 124 OFFCURVE",
"509 375 CURVE SMOOTH",
"509 581 OFFCURVE",
"425 704 OFFCURVE",
"281 704 CURVE SMOOTH"
);
}
);
width = 600;
}
);
note = nine;
unicode = 0039;
},
{
glyphname = zero.osf;
layers = (
{
anchors = (
{
name = slash;
position = "{314, 250}";
}
);
layerId = "F333AEC5-BB61-4D5E-9EDD-6124322D28F2";
paths = (
{
closed = 1;
nodes = (
"449 -10 OFFCURVE",
"550 95 OFFCURVE",
"550 243 CURVE SMOOTH",
"550 389 OFFCURVE",
"452 492 OFFCURVE",
"313 492 CURVE SMOOTH",
"168 492 OFFCURVE",
"66 385 OFFCURVE",
"66 234 CURVE SMOOTH",
"66 91 OFFCURVE",
"165 -10 OFFCURVE",
"305 -10 CURVE SMOOTH"
);
},
{
closed = 1;
nodes = (
"215 60 OFFCURVE",
"146 136 OFFCURVE",
"146 243 CURVE SMOOTH",
"146 348 OFFCURVE",
"212 422 OFFCURVE",
"305 422 CURVE SMOOTH",
"402 422 OFFCURVE",
"470 344 OFFCURVE",
"470 234 CURVE SMOOTH",
"470 132 OFFCURVE",
"405 60 OFFCURVE",
"313 60 CURVE SMOOTH"
);
}
);
width = 617;
},
{
anchors = (
{
name = slash;
position = "{308, 245}";
}
);
layerId = "51C2DFEF-3776-4D13-9284-96485B799B57";
paths = (
{
closed = 1;
nodes = (
"469 -6 OFFCURVE",
"579 97 OFFCURVE",
"579 250 CURVE SMOOTH",
"579 401 OFFCURVE",
"472 500 OFFCURVE",
"310 500 CURVE SMOOTH",
"147 500 OFFCURVE",
"38 398 OFFCURVE",
"38 246 CURVE SMOOTH",
"38 95 OFFCURVE",
"145 -6 OFFCURVE",
"306 -6 CURVE SMOOTH"
);
},
{
closed = 1;
nodes = (
"252 138 OFFCURVE",
"213 183 OFFCURVE",
"213 250 CURVE SMOOTH",
"213 314 OFFCURVE",
"250 356 OFFCURVE",
"307 356 CURVE SMOOTH",
"365 356 OFFCURVE",
"403 312 OFFCURVE",
"403 247 CURVE SMOOTH",
"403 182 OFFCURVE",
"365 138 OFFCURVE",
"309 138 CURVE SMOOTH"
);
}
);
width = 617;
},
{
anchors = (
{
name = slash;
position = "{313, 250}";
}
);
layerId = "0B2E441B-685E-400D-9B9B-E078DEED62EF";
paths = (
{
closed = 1;
nodes = (
"446 -10 OFFCURVE",
"535 89 OFFCURVE",
"535 238 CURVE SMOOTH",
"535 387 OFFCURVE",
"447 487 OFFCURVE",
"315 487 CURVE SMOOTH",
"180 487 OFFCURVE",
"90 386 OFFCURVE",
"90 235 CURVE SMOOTH",
"90 88 OFFCURVE",
"179 -10 OFFCURVE",
"312 -10 CURVE SMOOTH"
);
},
{
closed = 1;
nodes = (
"193 8 OFFCURVE",
"111 100 OFFCURVE",
"111 238 CURVE SMOOTH",
"111 376 OFFCURVE",
"191 469 OFFCURVE",
"312 469 CURVE SMOOTH",
"433 469 OFFCURVE",
"514 375 OFFCURVE",
"514 235 CURVE SMOOTH",
"514 99 OFFCURVE",
"434 8 OFFCURVE",
"315 8 CURVE SMOOTH"
);
}
);
width = 625;
}
);
},
{
glyphname = one.osf;
layers = (
{
layerId = "F333AEC5-BB61-4D5E-9EDD-6124322D28F2";
paths = (
{
closed = 1;
nodes = (
"330 30 LINE",
"330 482 LINE",
"270 482 LINE",
"53 363 LINE",
"83 306 LINE",
"277 405 LINE",
"250 424 LINE",
"250 30 LINE"
);
},
{
closed = 1;
nodes = (
"480 0 LINE",
"480 70 LINE",
"77 70 LINE",
"77 0 LINE"
);
}
);
width = 526;
},
{
layerId = "51C2DFEF-3776-4D13-9284-96485B799B57";
paths = (
{
closed = 1;
nodes = (
"391 81 LINE",
"391 490 LINE",
"279 490 LINE",
"31 354 LINE",
"89 230 LINE",
"272 317 LINE",
"220 365 LINE",
"220 81 LINE"
);
},
{
closed = 1;
nodes = (
"535 0 LINE",
"535 132 LINE",
"61 132 LINE",
"61 0 LINE"
);
}
);
width = 561;
},
{
layerId = "0B2E441B-685E-400D-9B9B-E078DEED62EF";
paths = (
{
closed = 1;
nodes = (
"279 7 LINE",
"279 480 LINE",
"267 480 LINE",
"69 371 LINE",
"77 357 LINE",
"267 459 LINE",
"259 463 LINE",
"259 7 LINE"
);
},
{
closed = 1;
nodes = (
"442 0 LINE",
"442 16 LINE",
"78 16 LINE",
"78 0 LINE"
);
}
);
width = 501;
}
);
},
{
glyphname = two.osf;
layers = (
{
layerId = "F333AEC5-BB61-4D5E-9EDD-6124322D28F2";
paths = (
{
closed = 1;
nodes = (
"482 0 LINE",
"482 71 LINE",
"151 71 LINE",
"159 38 LINE",
"373 130 OFFCURVE",
"457 212 OFFCURVE",
"457 319 CURVE SMOOTH",
"457 425 OFFCURVE",
"377 492 OFFCURVE",
"249 492 CURVE SMOOTH",
"185 492 OFFCURVE",
"123 476 OFFCURVE",
"56 441 CURVE",
"74 383 LINE",
"137 410 OFFCURVE",
"188 422 OFFCURVE",
"232 422 CURVE SMOOTH",
"316 422 OFFCURVE",
"372 377 OFFCURVE",
"372 310 CURVE SMOOTH",
"372 231 OFFCURVE",
"290 166 OFFCURVE",
"67 55 CURVE",
"67 0 LINE"
);
}
);
width = 544;
},
{
layerId = "51C2DFEF-3776-4D13-9284-96485B799B57";
paths = (
{
closed = 1;
nodes = (
"517 0 LINE",
"517 130 LINE",
"275 130 LINE",
"179 98 LINE",
"348 98 OFFCURVE",
"502 188 OFFCURVE",
"502 324 CURVE SMOOTH",
"502 430 OFFCURVE",
"408 500 OFFCURVE",
"267 500 CURVE SMOOTH",
"190 500 OFFCURVE",
"112 481 OFFCURVE",
"34 446 CURVE",
"73 326 LINE",
"123 345 OFFCURVE",
"179 356 OFFCURVE",
"223 356 CURVE SMOOTH",
"282 356 OFFCURVE",
"322 333 OFFCURVE",
"322 298 CURVE SMOOTH",
"322 248 OFFCURVE",
"256 203 OFFCURVE",
"58 115 CURVE",
"58 0 LINE"
);
}
);
width = 563;
},
{
layerId = "0B2E441B-685E-400D-9B9B-E078DEED62EF";
paths = (
{
closed = 1;
nodes = (
"454 0 LINE",
"454 17 LINE",
"106 17 LINE",
"102 10 LINE",
"329 118 OFFCURVE",
"434 227 OFFCURVE",
"434 335 CURVE SMOOTH",
"434 427 OFFCURVE",
"358 490 OFFCURVE",
"247 490 CURVE SMOOTH",
"182 490 OFFCURVE",
"119 469 OFFCURVE",
"69 439 CURVE",
"74 425 LINE",
"130 454 OFFCURVE",
"186 472 OFFCURVE",
"243 472 CURVE SMOOTH",
"345 472 OFFCURVE",
"414 416 OFFCURVE",
"414 333 CURVE SMOOTH",
"414 229 OFFCURVE",
"304 122 OFFCURVE",
"69 12 CURVE",
"69 0 LINE"
);
}
);
width = 530;
}
);
},
{
glyphname = three.osf;
layers = (
{
layerId = "F333AEC5-BB61-4D5E-9EDD-6124322D28F2";
paths = (
{
closed = 1;
nodes = (
"390 -222 OFFCURVE",
"490 -143 OFFCURVE",
"490 -28 CURVE SMOOTH",
"490 74 OFFCURVE",
"412 149 OFFCURVE",
"294 161 CURVE",
"294 156 LINE",
"389 159 OFFCURVE",
"453 224 OFFCURVE",
"453 314 CURVE SMOOTH",
"453 419 OFFCURVE",
"365 492 OFFCURVE",
"243 492 CURVE SMOOTH",
"177 492 OFFCURVE",
"108 473 OFFCURVE",
"42 437 CURVE",
"63 382 LINE",
"124 408 OFFCURVE",
"180 422 OFFCURVE",
"225 422 CURVE SMOOTH",
"311 422 OFFCURVE",
"373 374 OFFCURVE",
"373 304 CURVE SMOOTH",
"373 227 OFFCURVE",
"292 174 OFFCURVE",
"172 174 CURVE",
"172 110 LINE",
"312 110 OFFCURVE",
"410 51 OFFCURVE",
"410 -36 CURVE SMOOTH",
"410 -105 OFFCURVE",
"347 -152 OFFCURVE",
"251 -152 CURVE SMOOTH",
"194 -152 OFFCURVE",
"131 -136 OFFCURVE",
"60 -106 CURVE",
"41 -172 LINE",
"101 -203 OFFCURVE",
"175 -222 OFFCURVE",
"244 -222 CURVE SMOOTH"
);
}
);
width = 540;
},
{
layerId = "51C2DFEF-3776-4D13-9284-96485B799B57";
paths = (
{
closed = 1;
nodes = (
"412 -214 OFFCURVE",
"518 -136 OFFCURVE",
"518 -7 CURVE SMOOTH",
"518 91 OFFCURVE",
"457 154 OFFCURVE",
"351 166 CURVE",
"330 149 LINE",
"421 155 OFFCURVE",
"482 221 OFFCURVE",
"482 317 CURVE SMOOTH",
"482 431 OFFCURVE",
"396 500 OFFCURVE",
"249 500 CURVE SMOOTH",
"172 500 OFFCURVE",
"94 480 OFFCURVE",
"24 442 CURVE",
"61 323 LINE",
"111 343 OFFCURVE",
"168 356 OFFCURVE",
"209 356 CURVE SMOOTH",
"268 356 OFFCURVE",
"306 330 OFFCURVE",
"306 288 CURVE SMOOTH",
"306 237 OFFCURVE",
"246 209 OFFCURVE",
"145 209 CURVE",
"145 75 LINE",
"269 75 OFFCURVE",
"342 44 OFFCURVE",
"342 -8 CURVE SMOOTH",
"342 -47 OFFCURVE",
"300 -70 OFFCURVE",
"235 -70 CURVE SMOOTH",
"181 -70 OFFCURVE",
"113 -55 OFFCURVE",
"55 -28 CURVE",
"18 -165 LINE",
"87 -199 OFFCURVE",
"164 -214 OFFCURVE",
"239 -214 CURVE SMOOTH"
);
}
);
width = 544;
},
{
layerId = "0B2E441B-685E-400D-9B9B-E078DEED62EF";
paths = (
{
closed = 1;
nodes = (
"386 -224 OFFCURVE",
"471 -153 OFFCURVE",
"471 -44 CURVE SMOOTH",
"471 63 OFFCURVE",
"395 127 OFFCURVE",
"250 143 CURVE",
"250 138 LINE",
"362 145 OFFCURVE",
"435 215 OFFCURVE",
"435 314 CURVE SMOOTH",
"435 418 OFFCURVE",
"356 490 OFFCURVE",
"240 490 CURVE SMOOTH",
"179 490 OFFCURVE",
"114 470 OFFCURVE",
"61 436 CURVE",
"66 422 LINE",
"124 455 OFFCURVE",
"184 472 OFFCURVE",
"239 472 CURVE SMOOTH",
"346 472 OFFCURVE",
"414 410 OFFCURVE",
"414 310 CURVE SMOOTH",
"414 202 OFFCURVE",
"333 147 OFFCURVE",
"184 147 CURVE",
"184 130 LINE",
"350 130 OFFCURVE",
"451 67 OFFCURVE",
"451 -46 CURVE SMOOTH",
"451 -144 OFFCURVE",
"376 -205 OFFCURVE",
"256 -205 CURVE SMOOTH",
"193 -205 OFFCURVE",
"119 -187 OFFCURVE",
"59 -158 CURVE",
"52 -174 LINE",
"114 -206 OFFCURVE",
"188 -224 OFFCURVE",
"255 -224 CURVE SMOOTH"
);
}
);
width = 539;
}
);
},
{
glyphname = four.osf;
layers = (
{
layerId = "F333AEC5-BB61-4D5E-9EDD-6124322D28F2";
paths = (
{
closed = 1;
nodes = (
"444 -217 LINE",
"444 482 LINE",
"380 482 LINE",
"45 50 LINE",
"45 0 LINE",
"569 0 LINE",
"569 71 LINE",
"124 71 LINE",
"124 42 LINE",
"375 367 LINE",
"364 367 LINE",
"364 -217 LINE"
);
}
);
width = 615;
},
{
layerId = "51C2DFEF-3776-4D13-9284-96485B799B57";
paths = (
{
closed = 1;
nodes = (
"493 -207 LINE",
"493 490 LINE",
"340 490 LINE",
"21 108 LINE",
"21 0 LINE",
"614 0 LINE",
"614 132 LINE",
"94 134 LINE",
"138 54 LINE",
"379 358 LINE",
"325 400 LINE",
"325 -207 LINE"
);
}
);
width = 639;
},
{
layerId = "0B2E441B-685E-400D-9B9B-E078DEED62EF";
paths = (
{
closed = 1;
nodes = (
"421 -227 LINE",
"421 480 LINE",
"406 480 LINE",
"60 10 LINE",
"60 0 LINE",
"536 0 LINE",
"536 17 LINE",
"82 17 LINE",
"82 12 LINE",
"404 448 LINE",
"401 451 LINE",
"401 -227 LINE"
);
}
);
width = 595;
}
);
},
{
glyphname = five.osf;
layers = (
{
layerId = "F333AEC5-BB61-4D5E-9EDD-6124322D28F2";
paths = (
{
closed = 1;
nodes = (
"391 -222 OFFCURVE",
"494 -135 OFFCURVE",
"494 3 CURVE SMOOTH",
"494 135 OFFCURVE",
"400 216 OFFCURVE",
"250 216 CURVE SMOOTH",
"216 216 OFFCURVE",
"178 212 OFFCURVE",
"138 204 CURVE",
"157 177 LINE",
"168 415 LINE",
"462 415 LINE",
"462 482 LINE",
"97 482 LINE",
"80 129 LINE",
"128 140 OFFCURVE",
"184 146 OFFCURVE",
"221 146 CURVE SMOOTH",
"337 146 OFFCURVE",
"414 86 OFFCURVE",
"414 -9 CURVE SMOOTH",
"414 -97 OFFCURVE",
"346 -152 OFFCURVE",
"250 -152 CURVE SMOOTH",
"198 -152 OFFCURVE",
"130 -136 OFFCURVE",
"68 -108 CURVE",
"49 -174 LINE",
"113 -207 OFFCURVE",
"172 -222 OFFCURVE",
"237 -222 CURVE SMOOTH"
);
}
);
width = 549;
},
{
layerId = "51C2DFEF-3776-4D13-9284-96485B799B57";
paths = (
{
closed = 1;
nodes = (
"423 -214 OFFCURVE",
"534 -125 OFFCURVE",
"534 20 CURVE SMOOTH",
"534 156 OFFCURVE",
"436 247 OFFCURVE",
"269 247 CURVE SMOOTH",
"234 247 OFFCURVE",
"193 243 OFFCURVE",
"159 235 CURVE",
"226 171 LINE",
"234 355 LINE",
"495 355 LINE",
"495 490 LINE",
"79 490 LINE",
"61 99 LINE",
"99 105 OFFCURVE",
"159 110 OFFCURVE",
"194 110 CURVE SMOOTH",
"299 110 OFFCURVE",
"358 64 OFFCURVE",
"358 9 CURVE SMOOTH",
"358 -40 OFFCURVE",
"311 -70 OFFCURVE",
"237 -70 CURVE SMOOTH",
"186 -70 OFFCURVE",
"120 -55 OFFCURVE",
"64 -33 CURVE",
"27 -170 LINE",
"100 -201 OFFCURVE",
"165 -214 OFFCURVE",
"236 -214 CURVE SMOOTH"
);
}
);
width = 566;
},
{
layerId = "0B2E441B-685E-400D-9B9B-E078DEED62EF";
paths = (
{
closed = 1;
nodes = (
"394 -224 OFFCURVE",
"481 -134 OFFCURVE",
"481 -11 CURVE SMOOTH",
"481 112 OFFCURVE",
"393 189 OFFCURVE",
"245 189 CURVE SMOOTH",
"208 189 OFFCURVE",
"158 184 OFFCURVE",
"108 174 CURVE",
"120 170 LINE",
"132 463 LINE",
"449 463 LINE",
"449 480 LINE",
"114 480 LINE",
"99 155 LINE",
"145 165 OFFCURVE",
"197 171 OFFCURVE",
"238 171 CURVE SMOOTH",
"385 171 OFFCURVE",
"460 96 OFFCURVE",
"460 -13 CURVE SMOOTH",
"460 -126 OFFCURVE",
"381 -205 OFFCURVE",
"259 -205 CURVE SMOOTH",
"199 -205 OFFCURVE",
"125 -187 OFFCURVE",
"74 -157 CURVE",
"67 -174 LINE",
"122 -206 OFFCURVE",
"191 -224 OFFCURVE",
"255 -224 CURVE SMOOTH"
);
}
);
width = 551;
}
);
},
{
glyphname = six.osf;
layers = (
{
layerId = "F333AEC5-BB61-4D5E-9EDD-6124322D28F2";
paths = (
{
closed = 1;
nodes = (
"449 -10 OFFCURVE",
"541 80 OFFCURVE",
"541 213 CURVE SMOOTH",
"541 338 OFFCURVE",
"459 423 OFFCURVE",
"339 423 CURVE SMOOTH",
"239 423 OFFCURVE",
"159 364 OFFCURVE",
"113 257 CURVE",
"133 215 LINE",
"168 304 OFFCURVE",
"232 355 OFFCURVE",
"312 355 CURVE SMOOTH",
"400 355 OFFCURVE",
"460 293 OFFCURVE",
"460 199 CURVE SMOOTH",
"460 113 OFFCURVE",
"410 59 OFFCURVE",
"327 59 CURVE SMOOTH",
"216 59 OFFCURVE",
"155 157 OFFCURVE",
"155 333 CURVE SMOOTH",
"155 537 OFFCURVE",
"233 635 OFFCURVE",
"364 635 CURVE SMOOTH",
"415 635 OFFCURVE",
"471 622 OFFCURVE",
"508 599 CURVE",
"531 660 LINE",
"496 687 OFFCURVE",
"437 704 OFFCURVE",
"373 704 CURVE SMOOTH",
"185 704 OFFCURVE",
"70 567 OFFCURVE",
"70 327 CURVE SMOOTH",
"70 110 OFFCURVE",
"166 -10 OFFCURVE",
"318 -10 CURVE SMOOTH"
);
}
);
userData = {
RMXScaler = {
weight = -4;
};
};
width = 603;
},
{
layerId = "51C2DFEF-3776-4D13-9284-96485B799B57";
paths = (
{
closed = 1;
nodes = (
"476 -10 OFFCURVE",
"582 87 OFFCURVE",
"582 232 CURVE SMOOTH",
"582 362 OFFCURVE",
"499 449 OFFCURVE",
"375 449 CURVE SMOOTH",
"281 449 OFFCURVE",
"209 399 OFFCURVE",
"167 314 CURVE",
"210 255 LINE",
"237 280 OFFCURVE",
"278 302 OFFCURVE",
"322 302 CURVE SMOOTH",
"373 302 OFFCURVE",
"407 268 OFFCURVE",
"407 219 CURVE SMOOTH",
"407 169 OFFCURVE",
"375 137 OFFCURVE",
"330 137 CURVE SMOOTH",
"259 137 OFFCURVE",
"220 210 OFFCURVE",
"220 338 CURVE SMOOTH",
"220 491 OFFCURVE",
"271 557 OFFCURVE",
"385 557 CURVE SMOOTH",
"433 557 OFFCURVE",
"481 546 OFFCURVE",
"525 524 CURVE",
"571 663 LINE",
"514 690 OFFCURVE",
"449 704 OFFCURVE",
"379 704 CURVE SMOOTH",
"157 704 OFFCURVE",
"40 573 OFFCURVE",
"40 322 CURVE SMOOTH",
"40 110 OFFCURVE",
"141 -10 OFFCURVE",
"318 -10 CURVE SMOOTH"
);
}
);
userData = {
RMXScaler = {
weight = -1;
};
};
width = 619;
},
{
layerId = "0B2E441B-685E-400D-9B9B-E078DEED62EF";
paths = (
{
closed = 1;
nodes = (
"439 -10 OFFCURVE",
"521 77 OFFCURVE",
"521 206 CURVE SMOOTH",
"521 333 OFFCURVE",
"441 410 OFFCURVE",
"322 410 CURVE SMOOTH",
"225 410 OFFCURVE",
"149 361 OFFCURVE",
"103 270 CURVE",
"103 239 LINE",
"147 337 OFFCURVE",
"224 392 OFFCURVE",
"320 392 CURVE SMOOTH",
"426 392 OFFCURVE",
"500 322 OFFCURVE",
"500 203 CURVE SMOOTH",
"500 86 OFFCURVE",
"428 8 OFFCURVE",
"320 8 CURVE SMOOTH",
"188 8 OFFCURVE",
"112 125 OFFCURVE",
"112 322 CURVE SMOOTH",
"112 560 OFFCURVE",
"199 686 OFFCURVE",
"363 686 CURVE SMOOTH",
"414 686 OFFCURVE",
"464 673 OFFCURVE",
"502 650 CURVE",
"509 667 LINE",
"468 691 OFFCURVE",
"419 704 OFFCURVE",
"365 704 CURVE SMOOTH",
"186 704 OFFCURVE",
"91 570 OFFCURVE",
"91 319 CURVE SMOOTH",
"91 113 OFFCURVE",
"175 -10 OFFCURVE",
"319 -10 CURVE SMOOTH"
);
}
);
width = 600;
}
);
userData = {
RMXScaler = {
source = six;
};
};
},
{
glyphname = seven.osf;
layers = (
{
layerId = "F333AEC5-BB61-4D5E-9EDD-6124322D28F2";
paths = (
{
closed = 1;
nodes = (
"221 -217 LINE",
"491 447 LINE",
"491 482 LINE",
"46 482 LINE",
"46 406 LINE",
"426 406 LINE",
"410 445 LINE",
"139 -217 LINE"
);
}
);
width = 539;
},
{
layerId = "51C2DFEF-3776-4D13-9284-96485B799B57";
paths = (
{
closed = 1;
nodes = (
"289 -217 LINE",
"542 407 LINE",
"542 490 LINE",
"27 490 LINE",
"27 355 LINE",
"388 355 LINE",
"362 383 LINE",
"107 -217 LINE"
);
}
);
width = 569;
},
{
layerId = "0B2E441B-685E-400D-9B9B-E078DEED62EF";
paths = (
{
closed = 1;
nodes = (
"184 -217 LINE",
"465 468 LINE",
"465 480 LINE",
"58 480 LINE",
"58 463 LINE",
"448 463 LINE",
"446 471 LINE",
"163 -217 LINE"
);
}
);
width = 530;
}
);
},
{
glyphname = eight.osf;
layers = (
{
layerId = "F333AEC5-BB61-4D5E-9EDD-6124322D28F2";
paths = (
{
closed = 1;
nodes = (
"438 -10 OFFCURVE",
"531 64 OFFCURVE",
"531 175 CURVE SMOOTH",
"531 402 OFFCURVE",
"163 359 OFFCURVE",
"163 533 CURVE SMOOTH",
"163 595 OFFCURVE",
"213 637 OFFCURVE",
"288 637 CURVE SMOOTH",
"372 637 OFFCURVE",
"428 591 OFFCURVE",
"428 523 CURVE SMOOTH",
"428 457 OFFCURVE",
"374 402 OFFCURVE",
"292 387 CURVE",
"355 356 LINE",
"443 382 OFFCURVE",
"502 454 OFFCURVE",
"502 536 CURVE SMOOTH",
"502 637 OFFCURVE",
"420 704 OFFCURVE",
"298 704 CURVE SMOOTH",
"170 704 OFFCURVE",
"85 631 OFFCURVE",
"85 521 CURVE SMOOTH",
"85 288 OFFCURVE",
"451 346 OFFCURVE",
"451 168 CURVE SMOOTH",
"451 103 OFFCURVE",
"395 60 OFFCURVE",
"310 60 CURVE SMOOTH",
"210 60 OFFCURVE",
"144 110 OFFCURVE",
"144 186 CURVE SMOOTH",
"144 259 OFFCURVE",
"205 316 OFFCURVE",
"296 328 CURVE",
"242 361 LINE",
"135 347 OFFCURVE",
"64 272 OFFCURVE",
"64 175 CURVE SMOOTH",
"64 64 OFFCURVE",
"158 -10 OFFCURVE",
"298 -10 CURVE SMOOTH"
);
}
);
width = 592;
},
{
layerId = "51C2DFEF-3776-4D13-9284-96485B799B57";
paths = (
{
closed = 1;
nodes = (
"470 -10 OFFCURVE",
"582 77 OFFCURVE",
"582 205 CURVE SMOOTH",
"582 430 OFFCURVE",
"233 385 OFFCURVE",
"233 501 CURVE SMOOTH",
"233 536 OFFCURVE",
"263 560 OFFCURVE",
"309 560 CURVE SMOOTH",
"354 560 OFFCURVE",
"384 535 OFFCURVE",
"384 497 CURVE SMOOTH",
"384 457 OFFCURVE",
"352 425 OFFCURVE",
"303 419 CURVE",
"420 359 LINE",
"511 394 OFFCURVE",
"560 455 OFFCURVE",
"560 527 CURVE SMOOTH",
"560 630 OFFCURVE",
"459 704 OFFCURVE",
"315 704 CURVE SMOOTH",
"160 704 OFFCURVE",
"57 619 OFFCURVE",
"57 492 CURVE SMOOTH",
"57 260 OFFCURVE",
"406 306 OFFCURVE",
"406 197 CURVE SMOOTH",
"406 159 OFFCURVE",
"370 134 OFFCURVE",
"315 134 CURVE SMOOTH",
"255 134 OFFCURVE",
"215 165 OFFCURVE",
"215 212 CURVE SMOOTH",
"215 259 OFFCURVE",
"253 292 OFFCURVE",
"311 294 CURVE",
"212 357 LINE",
"105 337 OFFCURVE",
"39 272 OFFCURVE",
"39 185 CURVE SMOOTH",
"39 71 OFFCURVE",
"150 -10 OFFCURVE",
"307 -10 CURVE SMOOTH"
);
}
);
width = 618;
},
{
layerId = "0B2E441B-685E-400D-9B9B-E078DEED62EF";
paths = (
{
closed = 1;
nodes = (
"426 -10 OFFCURVE",
"511 57 OFFCURVE",
"511 163 CURVE SMOOTH",
"511 389 OFFCURVE",
"125 324 OFFCURVE",
"125 540 CURVE SMOOTH",
"125 629 OFFCURVE",
"191 687 OFFCURVE",
"286 687 CURVE SMOOTH",
"382 687 OFFCURVE",
"455 628 OFFCURVE",
"455 543 CURVE SMOOTH",
"455 460 OFFCURVE",
"385 397 OFFCURVE",
"279 369 CURVE",
"295 358 LINE",
"405 385 OFFCURVE",
"474 454 OFFCURVE",
"474 543 CURVE SMOOTH",
"474 639 OFFCURVE",
"395 704 OFFCURVE",
"288 704 CURVE SMOOTH",
"181 704 OFFCURVE",
"106 639 OFFCURVE",
"106 538 CURVE SMOOTH",
"106 307 OFFCURVE",
"491 372 OFFCURVE",
"491 161 CURVE SMOOTH",
"491 67 OFFCURVE",
"416 7 OFFCURVE",
"301 7 CURVE SMOOTH",
"183 7 OFFCURVE",
"102 71 OFFCURVE",
"102 166 CURVE SMOOTH",
"102 254 OFFCURVE",
"172 325 OFFCURVE",
"279 352 CURVE",
"263 363 LINE",
"154 338 OFFCURVE",
"82 260 OFFCURVE",
"82 164 CURVE SMOOTH",
"82 60 OFFCURVE",
"169 -10 OFFCURVE",
"299 -10 CURVE SMOOTH"
);
}
);
width = 590;
}
);
},
{
glyphname = nine.osf;
layers = (
{
layerId = "F333AEC5-BB61-4D5E-9EDD-6124322D28F2";
paths = (
{
closed = 1;
nodes = (
"167 492 OFFCURVE",
"75 402 OFFCURVE",
"75 269 CURVE SMOOTH",
"75 144 OFFCURVE",
"157 59 OFFCURVE",
"277 59 CURVE SMOOTH",
"377 59 OFFCURVE",
"457 118 OFFCURVE",
"503 225 CURVE",
"483 267 LINE",
"448 178 OFFCURVE",
"384 127 OFFCURVE",
"304 127 CURVE SMOOTH",
"216 127 OFFCURVE",
"156 189 OFFCURVE",
"156 283 CURVE SMOOTH",
"156 369 OFFCURVE",
"206 423 OFFCURVE",
"289 423 CURVE SMOOTH",
"400 423 OFFCURVE",
"461 325 OFFCURVE",
"461 149 CURVE SMOOTH",
"461 -55 OFFCURVE",
"383 -153 OFFCURVE",
"252 -153 CURVE SMOOTH",
"201 -153 OFFCURVE",
"145 -140 OFFCURVE",
"108 -117 CURVE",
"85 -178 LINE",
"120 -205 OFFCURVE",
"179 -222 OFFCURVE",
"243 -222 CURVE SMOOTH",
"431 -222 OFFCURVE",
"546 -85 OFFCURVE",
"546 155 CURVE SMOOTH",
"546 372 OFFCURVE",
"450 492 OFFCURVE",
"298 492 CURVE SMOOTH"
);
}
);
width = 616;
},
{
layerId = "51C2DFEF-3776-4D13-9284-96485B799B57";
paths = (
{
closed = 1;
nodes = (
"137 500 OFFCURVE",
"31 403 OFFCURVE",
"31 258 CURVE SMOOTH",
"31 128 OFFCURVE",
"114 41 OFFCURVE",
"238 41 CURVE SMOOTH",
"332 41 OFFCURVE",
"404 91 OFFCURVE",
"446 176 CURVE",
"403 235 LINE",
"376 210 OFFCURVE",
"335 188 OFFCURVE",
"291 188 CURVE SMOOTH",
"240 188 OFFCURVE",
"206 222 OFFCURVE",
"206 271 CURVE SMOOTH",
"206 321 OFFCURVE",
"238 353 OFFCURVE",
"283 353 CURVE SMOOTH",
"354 353 OFFCURVE",
"393 280 OFFCURVE",
"393 152 CURVE SMOOTH",
"393 -1 OFFCURVE",
"342 -70 OFFCURVE",
"228 -70 CURVE SMOOTH",
"180 -70 OFFCURVE",
"132 -59 OFFCURVE",
"88 -37 CURVE",
"42 -176 LINE",
"99 -203 OFFCURVE",
"164 -217 OFFCURVE",
"234 -217 CURVE SMOOTH",
"456 -217 OFFCURVE",
"573 -84 OFFCURVE",
"573 168 CURVE SMOOTH",
"573 380 OFFCURVE",
"472 500 OFFCURVE",
"295 500 CURVE SMOOTH"
);
}
);
width = 612;
},
{
layerId = "0B2E441B-685E-400D-9B9B-E078DEED62EF";
paths = (
{
closed = 1;
nodes = (
"159 490 OFFCURVE",
"77 403 OFFCURVE",
"77 274 CURVE SMOOTH",
"77 147 OFFCURVE",
"157 70 OFFCURVE",
"276 70 CURVE SMOOTH",
"373 70 OFFCURVE",
"449 119 OFFCURVE",
"495 210 CURVE",
"495 241 LINE",
"451 143 OFFCURVE",
"374 88 OFFCURVE",
"278 88 CURVE SMOOTH",
"172 88 OFFCURVE",
"98 158 OFFCURVE",
"98 277 CURVE SMOOTH",
"98 394 OFFCURVE",
"170 472 OFFCURVE",
"278 472 CURVE SMOOTH",
"410 472 OFFCURVE",
"486 355 OFFCURVE",
"486 158 CURVE SMOOTH",
"486 -80 OFFCURVE",
"399 -206 OFFCURVE",
"235 -206 CURVE SMOOTH",
"184 -206 OFFCURVE",
"134 -193 OFFCURVE",
"96 -170 CURVE",
"89 -187 LINE",
"130 -211 OFFCURVE",
"179 -224 OFFCURVE",
"233 -224 CURVE SMOOTH",
"412 -224 OFFCURVE",
"507 -90 OFFCURVE",
"507 161 CURVE SMOOTH",
"507 367 OFFCURVE",
"423 490 OFFCURVE",
"279 490 CURVE SMOOTH"
);
}
);
width = 598;
}
);
},
